<mxfile host="app.diagrams.net" agent="Mozilla/5.0 (Macintosh; Intel Mac OS X 10_15_7) AppleWebKit/537.36 (KHTML, like Gecko) Chrome/133.0.0.0 Safari/537.36" version="26.0.16">
  <diagram name="第 1 页" id="mxfp9z6j75f1absljEtE">
    <mxGraphModel dx="545" dy="360" grid="1" gridSize="10" guides="1" tooltips="1" connect="1" arrows="1" fold="1" page="1" pageScale="1" pageWidth="827" pageHeight="1169" math="1" shadow="0">
      <root>
        <mxCell id="0" />
        <mxCell id="1" parent="0" />
        <mxCell id="Dc8xoGKeF29MCSsuU2qs-2" value="" style="group;aspect=fixed;" vertex="1" connectable="0" parent="1">
          <mxGeometry x="344.28" y="178.54999999999998" width="398" height="196.17" as="geometry" />
        </mxCell>
        <mxCell id="kbOJXT6cfB6z6lRoZ_cL-592" value="" style="rounded=1;whiteSpace=wrap;html=1;fontFamily=Times New Roman;fontSize=11;labelBackgroundColor=default;fillColor=#f5f5f5;dashed=1;strokeColor=#99FFFF;fontColor=#333333;" parent="Dc8xoGKeF29MCSsuU2qs-2" vertex="1">
          <mxGeometry width="397.99999999999994" height="161.53868517993766" as="geometry" />
        </mxCell>
        <mxCell id="kbOJXT6cfB6z6lRoZ_cL-594" value="" style="rounded=1;whiteSpace=wrap;html=1;fontFamily=Times New Roman;fontSize=11;labelBackgroundColor=default;fillColor=#cce5ff;strokeColor=#36393d;" parent="Dc8xoGKeF29MCSsuU2qs-2" vertex="1">
          <mxGeometry x="58.610502793296114" y="86.10578917540381" width="187.88268156424581" height="71.15262113913289" as="geometry" />
        </mxCell>
        <mxCell id="kbOJXT6cfB6z6lRoZ_cL-593" value="" style="rounded=1;whiteSpace=wrap;html=1;fontFamily=Times New Roman;fontSize=11;labelBackgroundColor=default;fillColor=#b0e3e6;strokeColor=#0e8088;" parent="Dc8xoGKeF29MCSsuU2qs-2" vertex="1">
          <mxGeometry x="58.610502793296114" y="6.0590903938793055" width="187.88268156424581" height="71.15262113913289" as="geometry" />
        </mxCell>
        <mxCell id="kbOJXT6cfB6z6lRoZ_cL-190" value="" style="shape=cube;whiteSpace=wrap;html=1;boundedLbl=1;backgroundOutline=1;darkOpacity=0.05;darkOpacity2=0.1;size=20;flipV=0;flipH=1;aspect=fixed;fillColor=#A3D2D9;strokeColor=#FFFFFF;fontFamily=Times New Roman;" parent="Dc8xoGKeF29MCSsuU2qs-2" vertex="1">
          <mxGeometry x="7.6820670391061725" y="62.647659393595916" width="40.022346368715084" height="36.242458100558665" as="geometry" />
        </mxCell>
        <mxCell id="kbOJXT6cfB6z6lRoZ_cL-191" value="&lt;font style=&quot;font-size: 7px;&quot;&gt;$$\mathbf{H} \times \mathbf{W} \times \mathbf{1}$$&lt;/font&gt;" style="text;html=1;align=center;verticalAlign=middle;whiteSpace=wrap;rounded=0;fontSize=5;fontFamily=Times New Roman;strokeColor=none;" parent="Dc8xoGKeF29MCSsuU2qs-2" vertex="1">
          <mxGeometry x="208.19402234636868" y="127.7967781241145" width="34.46368715083799" height="16.67639557948427" as="geometry" />
        </mxCell>
        <mxCell id="kbOJXT6cfB6z6lRoZ_cL-192" value="$$\mathbf{H} \times \mathbf{W} \times \mathbf{C}$$" style="text;html=1;align=center;verticalAlign=middle;whiteSpace=wrap;rounded=0;fontSize=6;fontFamily=Times New Roman;fontStyle=1" parent="Dc8xoGKeF29MCSsuU2qs-2" vertex="1">
          <mxGeometry x="10.205698324022354" y="96.06715613488245" width="34.46368715083799" height="16.67639557948427" as="geometry" />
        </mxCell>
        <mxCell id="kbOJXT6cfB6z6lRoZ_cL-193" value="&lt;font style=&quot;font-size: 11px;&quot;&gt;$$\sigma$$&lt;/font&gt;" style="text;html=1;align=center;verticalAlign=middle;whiteSpace=wrap;rounded=0;fontSize=10;fontFamily=Times New Roman;" parent="Dc8xoGKeF29MCSsuU2qs-2" vertex="1">
          <mxGeometry x="254.48653631284924" y="34.96484273165204" width="41.134078212290504" height="17.999389628790027" as="geometry" />
        </mxCell>
        <mxCell id="kbOJXT6cfB6z6lRoZ_cL-194" value="" style="group;fontFamily=Times New Roman;strokeColor=none;" parent="Dc8xoGKeF29MCSsuU2qs-2" vertex="1" connectable="0">
          <mxGeometry x="71.15083798882681" y="14.997638424482867" width="22.03250380904018" height="22.190723717767113" as="geometry" />
        </mxCell>
        <mxCell id="kbOJXT6cfB6z6lRoZ_cL-195" value="" style="shape=cube;whiteSpace=wrap;html=1;boundedLbl=1;backgroundOutline=1;darkOpacity=0.05;darkOpacity2=0.1;size=3;flipV=0;flipH=1;fillColor=#154778;fontFamily=Times New Roman;strokeColor=none;" parent="kbOJXT6cfB6z6lRoZ_cL-194" vertex="1">
          <mxGeometry x="13.138649060436828" width="8.893854748603351" height="9.510310164757318" as="geometry" />
        </mxCell>
        <mxCell id="kbOJXT6cfB6z6lRoZ_cL-196" value="" style="shape=cube;whiteSpace=wrap;html=1;boundedLbl=1;backgroundOutline=1;darkOpacity=0.05;darkOpacity2=0.1;size=3;flipV=0;flipH=1;fillColor=#397AAA;fontFamily=Times New Roman;strokeColor=none;" parent="kbOJXT6cfB6z6lRoZ_cL-194" vertex="1">
          <mxGeometry x="9.85398679532759" y="3.170103388252264" width="8.893854748603351" height="9.510310164757318" as="geometry" />
        </mxCell>
        <mxCell id="kbOJXT6cfB6z6lRoZ_cL-197" value="" style="shape=cube;whiteSpace=wrap;html=1;boundedLbl=1;backgroundOutline=1;darkOpacity=0.05;darkOpacity2=0.1;size=3;flipV=0;flipH=1;fillColor=#5FA9D1;fontFamily=Times New Roman;strokeColor=none;" parent="kbOJXT6cfB6z6lRoZ_cL-194" vertex="1">
          <mxGeometry x="6.569324530218476" y="6.340206776504781" width="8.893854748603351" height="9.510310164757318" as="geometry" />
        </mxCell>
        <mxCell id="kbOJXT6cfB6z6lRoZ_cL-198" value="" style="shape=cube;whiteSpace=wrap;html=1;boundedLbl=1;backgroundOutline=1;darkOpacity=0.05;darkOpacity2=0.1;size=3;flipV=0;flipH=1;fillColor=#95D4EE;fontFamily=Times New Roman;strokeColor=none;" parent="kbOJXT6cfB6z6lRoZ_cL-194" vertex="1">
          <mxGeometry x="3.284662265109238" y="9.510310164757298" width="8.893854748603351" height="9.510310164757318" as="geometry" />
        </mxCell>
        <mxCell id="kbOJXT6cfB6z6lRoZ_cL-199" value="" style="shape=cube;whiteSpace=wrap;html=1;boundedLbl=1;backgroundOutline=1;darkOpacity=0.05;darkOpacity2=0.1;size=3;flipV=0;flipH=1;fillColor=light-dark(#C8EBF6,#EDEDED);fontFamily=Times New Roman;strokeColor=none;" parent="kbOJXT6cfB6z6lRoZ_cL-194" vertex="1">
          <mxGeometry y="12.680413553009815" width="8.893854748603351" height="9.510310164757318" as="geometry" />
        </mxCell>
        <mxCell id="kbOJXT6cfB6z6lRoZ_cL-200" value="" style="group;fontFamily=Times New Roman;strokeColor=none;" parent="Dc8xoGKeF29MCSsuU2qs-2" vertex="1" connectable="0">
          <mxGeometry x="149.9837430167598" y="50.74071294984416" width="71.45100558659216" height="22.190723717767113" as="geometry" />
        </mxCell>
        <mxCell id="kbOJXT6cfB6z6lRoZ_cL-201" value="" style="group;fontFamily=Times New Roman;" parent="kbOJXT6cfB6z6lRoZ_cL-200" vertex="1" connectable="0">
          <mxGeometry x="-78.93296089385476" width="22.03250380904018" height="22.19072371776713" as="geometry" />
        </mxCell>
        <mxCell id="kbOJXT6cfB6z6lRoZ_cL-202" value="" style="shape=cube;whiteSpace=wrap;html=1;boundedLbl=1;backgroundOutline=1;darkOpacity=0.05;darkOpacity2=0.1;size=3;flipV=0;flipH=1;fillColor=#7A57BE;fontFamily=Times New Roman;strokeColor=none;" parent="kbOJXT6cfB6z6lRoZ_cL-201" vertex="1">
          <mxGeometry x="13.138649060436828" width="8.893854748603351" height="9.510310164757318" as="geometry" />
        </mxCell>
        <mxCell id="kbOJXT6cfB6z6lRoZ_cL-203" value="" style="shape=cube;whiteSpace=wrap;html=1;boundedLbl=1;backgroundOutline=1;darkOpacity=0.05;darkOpacity2=0.1;size=3;flipV=0;flipH=1;fillColor=#9473CC;fontFamily=Times New Roman;strokeColor=none;" parent="kbOJXT6cfB6z6lRoZ_cL-201" vertex="1">
          <mxGeometry x="9.85398679532759" y="3.170103388252264" width="8.893854748603351" height="9.510310164757318" as="geometry" />
        </mxCell>
        <mxCell id="kbOJXT6cfB6z6lRoZ_cL-204" value="" style="shape=cube;whiteSpace=wrap;html=1;boundedLbl=1;backgroundOutline=1;darkOpacity=0.05;darkOpacity2=0.1;size=3;flipV=0;flipH=1;fillColor=#B29CDC;fontFamily=Times New Roman;strokeColor=none;" parent="kbOJXT6cfB6z6lRoZ_cL-201" vertex="1">
          <mxGeometry x="6.569324530218476" y="6.340206776504781" width="8.893854748603351" height="9.510310164757318" as="geometry" />
        </mxCell>
        <mxCell id="kbOJXT6cfB6z6lRoZ_cL-205" value="" style="shape=cube;whiteSpace=wrap;html=1;boundedLbl=1;backgroundOutline=1;darkOpacity=0.05;darkOpacity2=0.1;size=3;flipV=0;flipH=1;fillColor=#CEC3E7;fontFamily=Times New Roman;strokeColor=none;" parent="kbOJXT6cfB6z6lRoZ_cL-201" vertex="1">
          <mxGeometry x="3.284662265109238" y="9.510310164757298" width="8.893854748603351" height="9.510310164757318" as="geometry" />
        </mxCell>
        <mxCell id="kbOJXT6cfB6z6lRoZ_cL-206" value="" style="shape=cube;whiteSpace=wrap;html=1;boundedLbl=1;backgroundOutline=1;darkOpacity=0.05;darkOpacity2=0.1;size=3;flipV=0;flipH=1;fillColor=light-dark(#EAE6F5,#EDEDED);fontFamily=Times New Roman;strokeColor=none;" parent="kbOJXT6cfB6z6lRoZ_cL-201" vertex="1">
          <mxGeometry y="12.680413553009815" width="8.893854748603351" height="9.510310164757318" as="geometry" />
        </mxCell>
        <mxCell id="kbOJXT6cfB6z6lRoZ_cL-587" value="$$C_{\gamma}$$" style="text;html=1;align=center;verticalAlign=middle;whiteSpace=wrap;rounded=0;fontSize=7;fontFamily=Times New Roman;fontStyle=1;strokeColor=none;" parent="kbOJXT6cfB6z6lRoZ_cL-200" vertex="1">
          <mxGeometry x="21.122905027933022" y="2.7571640691414196" width="34.46368715083799" height="16.67639557948427" as="geometry" />
        </mxCell>
        <mxCell id="kbOJXT6cfB6z6lRoZ_cL-207" value="" style="group;fontFamily=Times New Roman;" parent="Dc8xoGKeF29MCSsuU2qs-2" vertex="1" connectable="0">
          <mxGeometry x="339.27832402234645" y="48.30595919523947" width="51.13966480446927" height="48.87295664494195" as="geometry" />
        </mxCell>
        <mxCell id="kbOJXT6cfB6z6lRoZ_cL-208" value="" style="group;fontFamily=Times New Roman;" parent="kbOJXT6cfB6z6lRoZ_cL-207" vertex="1" connectable="0">
          <mxGeometry width="51.13966480446927" height="48.87295664494192" as="geometry" />
        </mxCell>
        <mxCell id="kbOJXT6cfB6z6lRoZ_cL-209" value="" style="shape=cube;whiteSpace=wrap;html=1;boundedLbl=1;backgroundOutline=1;darkOpacity=0.05;darkOpacity2=0.1;size=4;flipV=1;flipH=0;direction=west;fillColor=light-dark(#547A8A,#442724);strokeColor=none;fontFamily=Times New Roman;" parent="kbOJXT6cfB6z6lRoZ_cL-208" vertex="1">
          <mxGeometry x="17.787709497206702" width="33.35195530726257" height="32.24103145366959" as="geometry" />
        </mxCell>
        <mxCell id="kbOJXT6cfB6z6lRoZ_cL-210" value="" style="shape=cube;whiteSpace=wrap;html=1;boundedLbl=1;backgroundOutline=1;darkOpacity=0.05;darkOpacity2=0.1;size=4;flipV=1;flipH=0;direction=west;fillColor=light-dark(#80AAB7,#512D2B);strokeColor=none;fontFamily=Times New Roman;" parent="kbOJXT6cfB6z6lRoZ_cL-208" vertex="1">
          <mxGeometry x="13.34078212290503" y="4.402568432983856" width="33.35195530726257" height="32.24103145366959" as="geometry" />
        </mxCell>
        <mxCell id="kbOJXT6cfB6z6lRoZ_cL-211" value="" style="shape=cube;whiteSpace=wrap;html=1;boundedLbl=1;backgroundOutline=1;darkOpacity=0.05;darkOpacity2=0.1;size=4;flipV=1;flipH=0;direction=west;fillColor=light-dark(#A4D2D9,#572B2B);strokeColor=none;fontFamily=Times New Roman;" parent="kbOJXT6cfB6z6lRoZ_cL-208" vertex="1">
          <mxGeometry x="8.893854748603351" y="8.293727401530187" width="33.35195530726257" height="32.24103145366959" as="geometry" />
        </mxCell>
        <mxCell id="kbOJXT6cfB6z6lRoZ_cL-212" value="" style="shape=cube;whiteSpace=wrap;html=1;boundedLbl=1;backgroundOutline=1;darkOpacity=0.05;darkOpacity2=0.1;size=4;flipV=1;flipH=0;direction=west;fillColor=light-dark(#CAEEF2,#512D2B);gradientColor=none;strokeColor=none;fontFamily=Times New Roman;" parent="kbOJXT6cfB6z6lRoZ_cL-208" vertex="1">
          <mxGeometry x="4.4469273743016755" y="12.184886370076518" width="33.35195530726257" height="32.24103145366959" as="geometry" />
        </mxCell>
        <mxCell id="kbOJXT6cfB6z6lRoZ_cL-213" value="" style="shape=cube;whiteSpace=wrap;html=1;boundedLbl=1;backgroundOutline=1;darkOpacity=0.05;darkOpacity2=0.1;size=4;flipV=1;flipH=0;direction=west;fillColor=light-dark(#E3F8F8,#442724);strokeColor=none;fontFamily=Times New Roman;" parent="kbOJXT6cfB6z6lRoZ_cL-208" vertex="1">
          <mxGeometry y="16.631925191272323" width="33.35195530726257" height="32.24103145366959" as="geometry" />
        </mxCell>
        <mxCell id="kbOJXT6cfB6z6lRoZ_cL-214" value="" style="shape=table;startSize=0;container=1;collapsible=0;childLayout=tableLayout;fontSize=16;gradientColor=#FF6666;gradientDirection=north;strokeColor=none;fontFamily=Times New Roman;" parent="kbOJXT6cfB6z6lRoZ_cL-207" vertex="1">
          <mxGeometry x="0.5558659217877094" y="21.679314253329554" width="27.23743016759777" height="26.682232927174837" as="geometry" />
        </mxCell>
        <mxCell id="kbOJXT6cfB6z6lRoZ_cL-215" style="shape=tableRow;horizontal=0;startSize=0;swimlaneHead=0;swimlaneBody=0;strokeColor=inherit;top=0;left=0;bottom=0;right=0;collapsible=0;dropTarget=0;fillColor=none;points=[[0,0.5],[1,0.5]];portConstraint=eastwest;fontSize=16;fontFamily=Times New Roman;" parent="kbOJXT6cfB6z6lRoZ_cL-214" vertex="1">
          <mxGeometry width="27.23743016759777" height="7" as="geometry" />
        </mxCell>
        <mxCell id="kbOJXT6cfB6z6lRoZ_cL-216" style="shape=partialRectangle;html=1;whiteSpace=wrap;connectable=0;strokeColor=#b85450;overflow=hidden;fillColor=#E7F7F3;top=0;left=0;bottom=0;right=0;pointerEvents=1;fontSize=16;fontFamily=Times New Roman;" parent="kbOJXT6cfB6z6lRoZ_cL-215" vertex="1">
          <mxGeometry width="6" height="7" as="geometry">
            <mxRectangle width="6" height="7" as="alternateBounds" />
          </mxGeometry>
        </mxCell>
        <mxCell id="kbOJXT6cfB6z6lRoZ_cL-217" style="shape=partialRectangle;html=1;whiteSpace=wrap;connectable=0;strokeColor=#d79b00;overflow=hidden;fillColor=#425D5F;top=0;left=0;bottom=0;right=0;pointerEvents=1;fontSize=16;fontFamily=Times New Roman;" parent="kbOJXT6cfB6z6lRoZ_cL-215" vertex="1">
          <mxGeometry x="6" width="7" height="7" as="geometry">
            <mxRectangle width="7" height="7" as="alternateBounds" />
          </mxGeometry>
        </mxCell>
        <mxCell id="kbOJXT6cfB6z6lRoZ_cL-218" style="shape=partialRectangle;html=1;whiteSpace=wrap;connectable=0;strokeColor=#10739e;overflow=hidden;fillColor=#b1ddf0;top=0;left=0;bottom=0;right=0;pointerEvents=1;fontSize=16;fontFamily=Times New Roman;" parent="kbOJXT6cfB6z6lRoZ_cL-215" vertex="1">
          <mxGeometry x="13" width="6" height="7" as="geometry">
            <mxRectangle width="6" height="7" as="alternateBounds" />
          </mxGeometry>
        </mxCell>
        <mxCell id="kbOJXT6cfB6z6lRoZ_cL-219" style="shape=partialRectangle;html=1;whiteSpace=wrap;connectable=0;strokeColor=#6c8ebf;overflow=hidden;fillColor=#E7F7F3;top=0;left=0;bottom=0;right=0;pointerEvents=1;fontSize=16;fontFamily=Times New Roman;" parent="kbOJXT6cfB6z6lRoZ_cL-215" vertex="1">
          <mxGeometry x="19" width="8" height="7" as="geometry">
            <mxRectangle width="8" height="7" as="alternateBounds" />
          </mxGeometry>
        </mxCell>
        <mxCell id="kbOJXT6cfB6z6lRoZ_cL-220" value="" style="shape=tableRow;horizontal=0;startSize=0;swimlaneHead=0;swimlaneBody=0;strokeColor=inherit;top=0;left=0;bottom=0;right=0;collapsible=0;dropTarget=0;fillColor=none;points=[[0,0.5],[1,0.5]];portConstraint=eastwest;fontSize=16;fontFamily=Times New Roman;" parent="kbOJXT6cfB6z6lRoZ_cL-214" vertex="1">
          <mxGeometry y="7" width="27.23743016759777" height="6" as="geometry" />
        </mxCell>
        <mxCell id="kbOJXT6cfB6z6lRoZ_cL-221" value="" style="shape=partialRectangle;html=1;whiteSpace=wrap;connectable=0;strokeColor=#10739e;overflow=hidden;fillColor=#b1ddf0;top=0;left=0;bottom=0;right=0;pointerEvents=1;fontSize=16;fontFamily=Times New Roman;" parent="kbOJXT6cfB6z6lRoZ_cL-220" vertex="1">
          <mxGeometry width="6" height="6" as="geometry">
            <mxRectangle width="6" height="6" as="alternateBounds" />
          </mxGeometry>
        </mxCell>
        <mxCell id="kbOJXT6cfB6z6lRoZ_cL-222" value="" style="shape=partialRectangle;html=1;whiteSpace=wrap;connectable=0;strokeColor=inherit;overflow=hidden;fillColor=#A9CFCB;top=0;left=0;bottom=0;right=0;pointerEvents=1;fontSize=16;fontFamily=Times New Roman;" parent="kbOJXT6cfB6z6lRoZ_cL-220" vertex="1">
          <mxGeometry x="6" width="7" height="6" as="geometry">
            <mxRectangle width="7" height="6" as="alternateBounds" />
          </mxGeometry>
        </mxCell>
        <mxCell id="kbOJXT6cfB6z6lRoZ_cL-223" value="" style="shape=partialRectangle;html=1;whiteSpace=wrap;connectable=0;strokeColor=#9673a6;overflow=hidden;fillColor=#A9CFCB;top=0;left=0;bottom=0;right=0;pointerEvents=1;fontSize=16;fontFamily=Times New Roman;" parent="kbOJXT6cfB6z6lRoZ_cL-220" vertex="1">
          <mxGeometry x="13" width="6" height="6" as="geometry">
            <mxRectangle width="6" height="6" as="alternateBounds" />
          </mxGeometry>
        </mxCell>
        <mxCell id="kbOJXT6cfB6z6lRoZ_cL-224" style="shape=partialRectangle;html=1;whiteSpace=wrap;connectable=0;strokeColor=#10739e;overflow=hidden;fillColor=#b1ddf0;top=0;left=0;bottom=0;right=0;pointerEvents=1;fontSize=16;fontFamily=Times New Roman;" parent="kbOJXT6cfB6z6lRoZ_cL-220" vertex="1">
          <mxGeometry x="19" width="8" height="6" as="geometry">
            <mxRectangle width="8" height="6" as="alternateBounds" />
          </mxGeometry>
        </mxCell>
        <mxCell id="kbOJXT6cfB6z6lRoZ_cL-225" value="" style="shape=tableRow;horizontal=0;startSize=0;swimlaneHead=0;swimlaneBody=0;strokeColor=inherit;top=0;left=0;bottom=0;right=0;collapsible=0;dropTarget=0;fillColor=none;points=[[0,0.5],[1,0.5]];portConstraint=eastwest;fontSize=16;fontFamily=Times New Roman;" parent="kbOJXT6cfB6z6lRoZ_cL-214" vertex="1">
          <mxGeometry y="13" width="27.23743016759777" height="8" as="geometry" />
        </mxCell>
        <mxCell id="kbOJXT6cfB6z6lRoZ_cL-226" value="" style="shape=partialRectangle;html=1;whiteSpace=wrap;connectable=0;strokeColor=inherit;overflow=hidden;fillColor=#425D5F;top=0;left=0;bottom=0;right=0;pointerEvents=1;fontSize=16;fontFamily=Times New Roman;" parent="kbOJXT6cfB6z6lRoZ_cL-225" vertex="1">
          <mxGeometry width="6" height="8" as="geometry">
            <mxRectangle width="6" height="8" as="alternateBounds" />
          </mxGeometry>
        </mxCell>
        <mxCell id="kbOJXT6cfB6z6lRoZ_cL-227" value="" style="shape=partialRectangle;html=1;whiteSpace=wrap;connectable=0;strokeColor=#10739e;overflow=hidden;fillColor=#b1ddf0;top=0;left=0;bottom=0;right=0;pointerEvents=1;fontSize=16;fontFamily=Times New Roman;" parent="kbOJXT6cfB6z6lRoZ_cL-225" vertex="1">
          <mxGeometry x="6" width="7" height="8" as="geometry">
            <mxRectangle width="7" height="8" as="alternateBounds" />
          </mxGeometry>
        </mxCell>
        <mxCell id="kbOJXT6cfB6z6lRoZ_cL-228" value="&lt;span style=&quot;color: rgba(0, 0, 0, 0); font-size: 0px; text-align: start; text-wrap-mode: nowrap;&quot;&gt;%3CmxGraphModel%3E%3Croot%3E%3CmxCell%20id%3D%220%22%2F%3E%3CmxCell%20id%3D%221%22%20parent%3D%220%22%2F%3E%3CmxCell%20id%3D%222%22%20value%3D%22%22%20style%3D%22shape%3Dtable%3BstartSize%3D0%3Bcontainer%3D1%3Bcollapsible%3D0%3BchildLayout%3DtableLayout%3BfontSize%3D16%3BgradientColor%3D%23808080%3BgradientDirection%3Dnorth%3B%22%20vertex%3D%221%22%20parent%3D%221%22%3E%3CmxGeometry%20x%3D%22458%22%20y%3D%22158%22%20width%3D%2230%22%20height%3D%2228%22%20as%3D%22geometry%22%2F%3E%3C%2FmxCell%3E%3CmxCell%20id%3D%223%22%20style%3D%22shape%3DtableRow%3Bhorizontal%3D0%3BstartSize%3D0%3BswimlaneHead%3D0%3BswimlaneBody%3D0%3BstrokeColor%3Dinherit%3Btop%3D0%3Bleft%3D0%3Bbottom%3D0%3Bright%3D0%3Bcollapsible%3D0%3BdropTarget%3D0%3BfillColor%3Dnone%3Bpoints%3D%5B%5B0%2C0.5%5D%2C%5B1%2C0.5%5D%5D%3BportConstraint%3Deastwest%3BfontSize%3D16%3B%22%20vertex%3D%221%22%20parent%3D%222%22%3E%3CmxGeometry%20width%3D%2230%22%20height%3D%227%22%20as%3D%22geometry%22%2F%3E%3C%2FmxCell%3E%3CmxCell%20id%3D%224%22%20style%3D%22shape%3DpartialRectangle%3Bhtml%3D1%3BwhiteSpace%3Dwrap%3Bconnectable%3D0%3BstrokeColor%3Dinherit%3Boverflow%3Dhidden%3BfillColor%3Dnone%3Btop%3D0%3Bleft%3D0%3Bbottom%3D0%3Bright%3D0%3BpointerEvents%3D1%3BfontSize%3D16%3B%22%20vertex%3D%221%22%20parent%3D%223%22%3E%3CmxGeometry%20width%3D%228%22%20height%3D%227%22%20as%3D%22geometry%22%3E%3CmxRectangle%20width%3D%228%22%20height%3D%227%22%20as%3D%22alternateBounds%22%2F%3E%3C%2FmxGeometry%3E%3C%2FmxCell%3E%3CmxCell%20id%3D%225%22%20style%3D%22shape%3DpartialRectangle%3Bhtml%3D1%3BwhiteSpace%3Dwrap%3Bconnectable%3D0%3BstrokeColor%3Dinherit%3Boverflow%3Dhidden%3BfillColor%3Dnone%3Btop%3D0%3Bleft%3D0%3Bbottom%3D0%3Bright%3D0%3BpointerEvents%3D1%3BfontSize%3D16%3B%22%20vertex%3D%221%22%20parent%3D%223%22%3E%3CmxGeometry%20x%3D%228%22%20width%3D%227%22%20height%3D%227%22%20as%3D%22geometry%22%3E%3CmxRectangle%20width%3D%227%22%20height%3D%227%22%20as%3D%22alternateBounds%22%2F%3E%3C%2FmxGeometry%3E%3C%2FmxCell%3E%3CmxCell%20id%3D%226%22%20style%3D%22shape%3DpartialRectangle%3Bhtml%3D1%3BwhiteSpace%3Dwrap%3Bconnectable%3D0%3BstrokeColor%3Dinherit%3Boverflow%3Dhidden%3BfillColor%3Dnone%3Btop%3D0%3Bleft%3D0%3Bbottom%3D0%3Bright%3D0%3BpointerEvents%3D1%3BfontSize%3D16%3B%22%20vertex%3D%221%22%20parent%3D%223%22%3E%3CmxGeometry%20x%3D%2215%22%20width%3D%228%22%20height%3D%227%22%20as%3D%22geometry%22%3E%3CmxRectangle%20width%3D%228%22%20height%3D%227%22%20as%3D%22alternateBounds%22%2F%3E%3C%2FmxGeometry%3E%3C%2FmxCell%3E%3CmxCell%20id%3D%227%22%20style%3D%22shape%3DpartialRectangle%3Bhtml%3D1%3BwhiteSpace%3Dwrap%3Bconnectable%3D0%3BstrokeColor%3Dinherit%3Boverflow%3Dhidden%3BfillColor%3Dnone%3Btop%3D0%3Bleft%3D0%3Bbottom%3D0%3Bright%3D0%3BpointerEvents%3D1%3BfontSize%3D16%3B%22%20vertex%3D%221%22%20parent%3D%223%22%3E%3CmxGeometry%20x%3D%2223%22%20width%3D%227%22%20height%3D%227%22%20as%3D%22geometry%22%3E%3CmxRectangle%20width%3D%227%22%20height%3D%227%22%20as%3D%22alternateBounds%22%2F%3E%3C%2FmxGeometry%3E%3C%2FmxCell%3E%3CmxCell%20id%3D%228%22%20value%3D%22%22%20style%3D%22shape%3DtableRow%3Bhorizontal%3D0%3BstartSize%3D0%3BswimlaneHead%3D0%3BswimlaneBody%3D0%3BstrokeColor%3Dinherit%3Btop%3D0%3Bleft%3D0%3Bbottom%3D0%3Bright%3D0%3Bcollapsible%3D0%3BdropTarget%3D0%3BfillColor%3Dnone%3Bpoints%3D%5B%5B0%2C0.5%5D%2C%5B1%2C0.5%5D%5D%3BportConstraint%3Deastwest%3BfontSize%3D16%3B%22%20vertex%3D%221%22%20parent%3D%222%22%3E%3CmxGeometry%20y%3D%227%22%20width%3D%2230%22%20height%3D%227%22%20as%3D%22geometry%22%2F%3E%3C%2FmxCell%3E%3CmxCell%20id%3D%229%22%20value%3D%22%22%20style%3D%22shape%3DpartialRectangle%3Bhtml%3D1%3BwhiteSpace%3Dwrap%3Bconnectable%3D0%3BstrokeColor%3Dinherit%3Boverflow%3Dhidden%3BfillColor%3Dnone%3Btop%3D0%3Bleft%3D0%3Bbottom%3D0%3Bright%3D0%3BpointerEvents%3D1%3BfontSize%3D16%3B%22%20vertex%3D%221%22%20parent%3D%228%22%3E%3CmxGeometry%20width%3D%228%22%20height%3D%227%22%20as%3D%22geometry%22%3E%3CmxRectangle%20width%3D%228%22%20height%3D%227%22%20as%3D%22alternateBounds%22%2F%3E%3C%2FmxGeometry%3E%3C%2FmxCell%3E%3CmxCell%20id%3D%2210%22%20value%3D%22%22%20style%3D%22shape%3DpartialRectangle%3Bhtml%3D1%3BwhiteSpace%3Dwrap%3Bconnectable%3D0%3BstrokeColor%3Dinherit%3Boverflow%3Dhidden%3BfillColor%3Dnone%3Btop%3D0%3Bleft%3D0%3Bbottom%3D0%3Bright%3D0%3BpointerEvents%3D1%3BfontSize%3D16%3B%22%20vertex%3D%221%22%20parent%3D%228%22%3E%3CmxGeometry%20x%3D%228%22%20width%3D%227%22%20height%3D%227%22%20as%3D%22geometry%22%3E%3CmxRectangle%20width%3D%227%22%20height%3D%227%22%20as%3D%22alternateBounds%22%2F%3E%3C%2FmxGeometry%3E%3C%2FmxCell%3E%3CmxCell%20id%3D%2211%22%20value%3D%22%22%20style%3D%22shape%3DpartialRectangle%3Bhtml%3D1%3BwhiteSpace%3Dwrap%3Bconnectable%3D0%3BstrokeColor%3Dinherit%3Boverflow%3Dhidden%3BfillColor%3Dnone%3Btop%3D0%3Bleft%3D0%3Bbottom%3D0%3Bright%3D0%3BpointerEvents%3D1%3BfontSize%3D16%3B%22%20vertex%3D%221%22%20parent%3D%228%22%3E%3CmxGeometry%20x%3D%2215%22%20width%3D%228%22%20height%3D%227%22%20as%3D%22geometry%22%3E%3CmxRectangle%20width%3D%228%22%20height%3D%227%22%20as%3D%22alternateBounds%22%2F%3E%3C%2FmxGeometry%3E%3C%2FmxCell%3E%3CmxCell%20id%3D%2212%22%20style%3D%22shape%3DpartialRectangle%3Bhtml%3D1%3BwhiteSpace%3Dwrap%3Bconnectable%3D0%3BstrokeColor%3Dinherit%3Boverflow%3Dhidden%3BfillColor%3Dnone%3Btop%3D0%3Bleft%3D0%3Bbottom%3D0%3Bright%3D0%3BpointerEvents%3D1%3BfontSize%3D16%3B%22%20vertex%3D%221%22%20parent%3D%228%22%3E%3CmxGeometry%20x%3D%2223%22%20width%3D%227%22%20height%3D%227%22%20as%3D%22geometry%22%3E%3CmxRectangle%20width%3D%227%22%20height%3D%227%22%20as%3D%22alternateBounds%22%2F%3E%3C%2FmxGeometry%3E%3C%2FmxCell%3E%3CmxCell%20id%3D%2213%22%20value%3D%22%22%20style%3D%22shape%3DtableRow%3Bhorizontal%3D0%3BstartSize%3D0%3BswimlaneHead%3D0%3BswimlaneBody%3D0%3BstrokeColor%3Dinherit%3Btop%3D0%3Bleft%3D0%3Bbottom%3D0%3Bright%3D0%3Bcollapsible%3D0%3BdropTarget%3D0%3BfillColor%3Dnone%3Bpoints%3D%5B%5B0%2C0.5%5D%2C%5B1%2C0.5%5D%5D%3BportConstraint%3Deastwest%3BfontSize%3D16%3B%22%20vertex%3D%221%22%20parent%3D%222%22%3E%3CmxGeometry%20y%3D%2214%22%20width%3D%2230%22%20height%3D%227%22%20as%3D%22geometry%22%2F%3E%3C%2FmxCell%3E%3CmxCell%20id%3D%2214%22%20value%3D%22%22%20style%3D%22shape%3DpartialRectangle%3Bhtml%3D1%3BwhiteSpace%3Dwrap%3Bconnectable%3D0%3BstrokeColor%3Dinherit%3Boverflow%3Dhidden%3BfillColor%3Dnone%3Btop%3D0%3Bleft%3D0%3Bbottom%3D0%3Bright%3D0%3BpointerEvents%3D1%3BfontSize%3D16%3B%22%20vertex%3D%221%22%20parent%3D%2213%22%3E%3CmxGeometry%20width%3D%228%22%20height%3D%227%22%20as%3D%22geometry%22%3E%3CmxRectangle%20width%3D%228%22%20height%3D%227%22%20as%3D%22alternateBounds%22%2F%3E%3C%2FmxGeometry%3E%3C%2FmxCell%3E%3CmxCell%20id%3D%2215%22%20value%3D%22%22%20style%3D%22shape%3DpartialRectangle%3Bhtml%3D1%3BwhiteSpace%3Dwrap%3Bconnectable%3D0%3BstrokeColor%3Dinherit%3Boverflow%3Dhidden%3BfillColor%3Dnone%3Btop%3D0%3Bleft%3D0%3Bbottom%3D0%3Bright%3D0%3BpointerEvents%3D1%3BfontSize%3D16%3B%22%20vertex%3D%221%22%20parent%3D%2213%22%3E%3CmxGeometry%20x%3D%228%22%20width%3D%227%22%20height%3D%227%22%20as%3D%22geometry%22%3E%3CmxRectangle%20width%3D%227%22%20height%3D%227%22%20as%3D%22alternateBounds%22%2F%3E%3C%2FmxGeometry%3E%3C%2FmxCell%3E%3CmxCell%20id%3D%2216%22%20value%3D%22%22%20style%3D%22shape%3DpartialRectangle%3Bhtml%3D1%3BwhiteSpace%3Dwrap%3Bconnectable%3D0%3BstrokeColor%3Dinherit%3Boverflow%3Dhidden%3BfillColor%3Dnone%3Btop%3D0%3Bleft%3D0%3Bbottom%3D0%3Bright%3D0%3BpointerEvents%3D1%3BfontSize%3D16%3B%22%20vertex%3D%221%22%20parent%3D%2213%22%3E%3CmxGeometry%20x%3D%2215%22%20width%3D%228%22%20height%3D%227%22%20as%3D%22geometry%22%3E%3CmxRectangle%20width%3D%228%22%20height%3D%227%22%20as%3D%22alternateBounds%22%2F%3E%3C%2FmxGeometry%3E%3C%2FmxCell%3E%3CmxCell%20id%3D%2217%22%20style%3D%22shape%3DpartialRectangle%3Bhtml%3D1%3BwhiteSpace%3Dwrap%3Bconnectable%3D0%3BstrokeColor%3Dinherit%3Boverflow%3Dhidden%3BfillColor%3Dnone%3Btop%3D0%3Bleft%3D0%3Bbottom%3D0%3Bright%3D0%3BpointerEvents%3D1%3BfontSize%3D16%3B%22%20vertex%3D%221%22%20parent%3D%2213%22%3E%3CmxGeometry%20x%3D%2223%22%20width%3D%227%22%20height%3D%227%22%20as%3D%22geometry%22%3E%3CmxRectangle%20width%3D%227%22%20height%3D%227%22%20as%3D%22alternateBounds%22%2F%3E%3C%2FmxGeometry%3E%3C%2FmxCell%3E%3CmxCell%20id%3D%2218%22%20value%3D%22%22%20style%3D%22shape%3DtableRow%3Bhorizontal%3D0%3BstartSize%3D0%3BswimlaneHead%3D0%3BswimlaneBody%3D0%3BstrokeColor%3Dinherit%3Btop%3D0%3Bleft%3D0%3Bbottom%3D0%3Bright%3D0%3Bcollapsible%3D0%3BdropTarget%3D0%3BfillColor%3Dnone%3Bpoints%3D%5B%5B0%2C0.5%5D%2C%5B1%2C0.5%5D%5D%3BportConstraint%3Deastwest%3BfontSize%3D16%3B%22%20vertex%3D%221%22%20parent%3D%222%22%3E%3CmxGeometry%20y%3D%2221%22%20width%3D%2230%22%20height%3D%227%22%20as%3D%22geometry%22%2F%3E%3C%2FmxCell%3E%3CmxCell%20id%3D%2219%22%20value%3D%22%22%20style%3D%22shape%3DpartialRectangle%3Bhtml%3D1%3BwhiteSpace%3Dwrap%3Bconnectable%3D0%3BstrokeColor%3Dinherit%3Boverflow%3Dhidden%3BfillColor%3Dnone%3Btop%3D0%3Bleft%3D0%3Bbottom%3D0%3Bright%3D0%3BpointerEvents%3D1%3BfontSize%3D16%3B%22%20vertex%3D%221%22%20parent%3D%2218%22%3E%3CmxGeometry%20width%3D%228%22%20height%3D%227%22%20as%3D%22geometry%22%3E%3CmxRectangle%20width%3D%228%22%20height%3D%227%22%20as%3D%22alternateBounds%22%2F%3E%3C%2FmxGeometry%3E%3C%2FmxCell%3E%3CmxCell%20id%3D%2220%22%20value%3D%22%22%20style%3D%22shape%3DpartialRectangle%3Bhtml%3D1%3BwhiteSpace%3Dwrap%3Bconnectable%3D0%3BstrokeColor%3Dinherit%3Boverflow%3Dhidden%3BfillColor%3Dnone%3Btop%3D0%3Bleft%3D0%3Bbottom%3D0%3Bright%3D0%3BpointerEvents%3D1%3BfontSize%3D16%3B%22%20vertex%3D%221%22%20parent%3D%2218%22%3E%3CmxGeometry%20x%3D%228%22%20width%3D%227%22%20height%3D%227%22%20as%3D%22geometry%22%3E%3CmxRectangle%20width%3D%227%22%20height%3D%227%22%20as%3D%22alternateBounds%22%2F%3E%3C%2FmxGeometry%3E%3C%2FmxCell%3E%3CmxCell%20id%3D%2221%22%20value%3D%22%22%20style%3D%22shape%3DpartialRectangle%3Bhtml%3D1%3BwhiteSpace%3Dwrap%3Bconnectable%3D0%3BstrokeColor%3Dinherit%3Boverflow%3Dhidden%3BfillColor%3Dnone%3Btop%3D0%3Bleft%3D0%3Bbottom%3D0%3Bright%3D0%3BpointerEvents%3D1%3BfontSize%3D16%3B%22%20vertex%3D%221%22%20parent%3D%2218%22%3E%3CmxGeometry%20x%3D%2215%22%20width%3D%228%22%20height%3D%227%22%20as%3D%22geometry%22%3E%3CmxRectangle%20width%3D%228%22%20height%3D%227%22%20as%3D%22alternateBounds%22%2F%3E%3C%2FmxGeometry%3E%3C%2FmxCell%3E%3CmxCell%20id%3D%2222%22%20style%3D%22shape%3DpartialRectangle%3Bhtml%3D1%3BwhiteSpace%3Dwrap%3Bconnectable%3D0%3BstrokeColor%3Dinherit%3Boverflow%3Dhidden%3BfillColor%3Dnone%3Btop%3D0%3Bleft%3D0%3Bbottom%3D0%3Bright%3D0%3BpointerEvents%3D1%3BfontSize%3D16%3B%22%20vertex%3D%221%22%20parent%3D%2218%22%3E%3CmxGeometry%20x%3D%2223%22%20width%3D%227%22%20height%3D%227%22%20as%3D%22geometry%22%3E%3CmxRectangle%20width%3D%227%22%20height%3D%227%22%20as%3D%22alternateBounds%22%2F%3E%3C%2FmxGeometry%3E%3C%2FmxCell%3E%3C%2Froot%3E%3C%2FmxGraphModel%3E&lt;/span&gt;" style="shape=partialRectangle;html=1;whiteSpace=wrap;connectable=0;strokeColor=inherit;overflow=hidden;fillColor=#E7F7F3;top=0;left=0;bottom=0;right=0;pointerEvents=1;fontSize=16;fontFamily=Times New Roman;" parent="kbOJXT6cfB6z6lRoZ_cL-225" vertex="1">
          <mxGeometry x="13" width="6" height="8" as="geometry">
            <mxRectangle width="6" height="8" as="alternateBounds" />
          </mxGeometry>
        </mxCell>
        <mxCell id="kbOJXT6cfB6z6lRoZ_cL-229" style="shape=partialRectangle;html=1;whiteSpace=wrap;connectable=0;strokeColor=inherit;overflow=hidden;fillColor=#425D5F;top=0;left=0;bottom=0;right=0;pointerEvents=1;fontSize=16;fontFamily=Times New Roman;" parent="kbOJXT6cfB6z6lRoZ_cL-225" vertex="1">
          <mxGeometry x="19" width="8" height="8" as="geometry">
            <mxRectangle width="8" height="8" as="alternateBounds" />
          </mxGeometry>
        </mxCell>
        <mxCell id="kbOJXT6cfB6z6lRoZ_cL-230" value="" style="shape=tableRow;horizontal=0;startSize=0;swimlaneHead=0;swimlaneBody=0;strokeColor=inherit;top=0;left=0;bottom=0;right=0;collapsible=0;dropTarget=0;fillColor=none;points=[[0,0.5],[1,0.5]];portConstraint=eastwest;fontSize=16;fontFamily=Times New Roman;" parent="kbOJXT6cfB6z6lRoZ_cL-214" vertex="1">
          <mxGeometry y="21" width="27.23743016759777" height="6" as="geometry" />
        </mxCell>
        <mxCell id="kbOJXT6cfB6z6lRoZ_cL-231" value="" style="shape=partialRectangle;html=1;whiteSpace=wrap;connectable=0;strokeColor=inherit;overflow=hidden;fillColor=#E7F7F3;top=0;left=0;bottom=0;right=0;pointerEvents=1;fontSize=16;fontFamily=Times New Roman;" parent="kbOJXT6cfB6z6lRoZ_cL-230" vertex="1">
          <mxGeometry width="6" height="6" as="geometry">
            <mxRectangle width="6" height="6" as="alternateBounds" />
          </mxGeometry>
        </mxCell>
        <mxCell id="kbOJXT6cfB6z6lRoZ_cL-232" value="" style="shape=partialRectangle;html=1;whiteSpace=wrap;connectable=0;strokeColor=inherit;overflow=hidden;fillColor=#A9CFCB;top=0;left=0;bottom=0;right=0;pointerEvents=1;fontSize=16;fontFamily=Times New Roman;" parent="kbOJXT6cfB6z6lRoZ_cL-230" vertex="1">
          <mxGeometry x="6" width="7" height="6" as="geometry">
            <mxRectangle width="7" height="6" as="alternateBounds" />
          </mxGeometry>
        </mxCell>
        <mxCell id="kbOJXT6cfB6z6lRoZ_cL-233" value="" style="shape=partialRectangle;html=1;whiteSpace=wrap;connectable=0;strokeColor=inherit;overflow=hidden;fillColor=#425D5F;top=0;left=0;bottom=0;right=0;pointerEvents=1;fontSize=16;fontFamily=Times New Roman;" parent="kbOJXT6cfB6z6lRoZ_cL-230" vertex="1">
          <mxGeometry x="13" width="6" height="6" as="geometry">
            <mxRectangle width="6" height="6" as="alternateBounds" />
          </mxGeometry>
        </mxCell>
        <mxCell id="kbOJXT6cfB6z6lRoZ_cL-234" style="shape=partialRectangle;html=1;whiteSpace=wrap;connectable=0;strokeColor=#d6b656;overflow=hidden;fillColor=#A9CFCB;top=0;left=0;bottom=0;right=0;pointerEvents=1;fontSize=16;fontFamily=Times New Roman;" parent="kbOJXT6cfB6z6lRoZ_cL-230" vertex="1">
          <mxGeometry x="19" width="8" height="6" as="geometry">
            <mxRectangle width="8" height="6" as="alternateBounds" />
          </mxGeometry>
        </mxCell>
        <mxCell id="kbOJXT6cfB6z6lRoZ_cL-235" value="" style="shape=table;startSize=0;container=1;collapsible=0;childLayout=tableLayout;fontSize=16;gradientColor=none;gradientDirection=north;fillColor=none;fontFamily=Times New Roman;strokeColor=none;" parent="Dc8xoGKeF29MCSsuU2qs-2" vertex="1">
          <mxGeometry x="71.25089385474864" y="131.13205724001133" width="17.787709497206702" height="17.788155284783222" as="geometry" />
        </mxCell>
        <mxCell id="kbOJXT6cfB6z6lRoZ_cL-236" style="shape=tableRow;horizontal=0;startSize=0;swimlaneHead=0;swimlaneBody=0;strokeColor=inherit;top=0;left=0;bottom=0;right=0;collapsible=0;dropTarget=0;fillColor=none;points=[[0,0.5],[1,0.5]];portConstraint=eastwest;fontSize=16;fontFamily=Times New Roman;" parent="kbOJXT6cfB6z6lRoZ_cL-235" vertex="1">
          <mxGeometry width="17.787709497206702" height="4" as="geometry" />
        </mxCell>
        <mxCell id="kbOJXT6cfB6z6lRoZ_cL-237" style="shape=partialRectangle;html=1;whiteSpace=wrap;connectable=0;strokeColor=inherit;overflow=hidden;fillColor=#7A57BE;top=0;left=0;bottom=0;right=0;pointerEvents=1;fontSize=16;fontFamily=Times New Roman;" parent="kbOJXT6cfB6z6lRoZ_cL-236" vertex="1">
          <mxGeometry width="4" height="4" as="geometry">
            <mxRectangle width="4" height="4" as="alternateBounds" />
          </mxGeometry>
        </mxCell>
        <mxCell id="kbOJXT6cfB6z6lRoZ_cL-238" style="shape=partialRectangle;html=1;whiteSpace=wrap;connectable=0;strokeColor=inherit;overflow=hidden;fillColor=#EAE6F5;top=0;left=0;bottom=0;right=0;pointerEvents=1;fontSize=16;fontFamily=Times New Roman;" parent="kbOJXT6cfB6z6lRoZ_cL-236" vertex="1">
          <mxGeometry x="4" width="5" height="4" as="geometry">
            <mxRectangle width="5" height="4" as="alternateBounds" />
          </mxGeometry>
        </mxCell>
        <mxCell id="kbOJXT6cfB6z6lRoZ_cL-239" style="shape=partialRectangle;html=1;whiteSpace=wrap;connectable=0;strokeColor=inherit;overflow=hidden;fillColor=#9473CC;top=0;left=0;bottom=0;right=0;pointerEvents=1;fontSize=16;fontFamily=Times New Roman;" parent="kbOJXT6cfB6z6lRoZ_cL-236" vertex="1">
          <mxGeometry x="9" width="5" height="4" as="geometry">
            <mxRectangle width="5" height="4" as="alternateBounds" />
          </mxGeometry>
        </mxCell>
        <mxCell id="kbOJXT6cfB6z6lRoZ_cL-240" style="shape=partialRectangle;html=1;whiteSpace=wrap;connectable=0;strokeColor=inherit;overflow=hidden;fillColor=#E7F7F3;top=0;left=0;bottom=0;right=0;pointerEvents=1;fontSize=16;fontFamily=Times New Roman;" parent="kbOJXT6cfB6z6lRoZ_cL-236" vertex="1">
          <mxGeometry x="14" width="4" height="4" as="geometry">
            <mxRectangle width="4" height="4" as="alternateBounds" />
          </mxGeometry>
        </mxCell>
        <mxCell id="kbOJXT6cfB6z6lRoZ_cL-241" value="" style="shape=tableRow;horizontal=0;startSize=0;swimlaneHead=0;swimlaneBody=0;strokeColor=inherit;top=0;left=0;bottom=0;right=0;collapsible=0;dropTarget=0;fillColor=none;points=[[0,0.5],[1,0.5]];portConstraint=eastwest;fontSize=16;fontFamily=Times New Roman;" parent="kbOJXT6cfB6z6lRoZ_cL-235" vertex="1">
          <mxGeometry y="4" width="17.787709497206702" height="5" as="geometry" />
        </mxCell>
        <mxCell id="kbOJXT6cfB6z6lRoZ_cL-242" value="" style="shape=partialRectangle;html=1;whiteSpace=wrap;connectable=0;strokeColor=inherit;overflow=hidden;fillColor=#EAE6F5;top=0;left=0;bottom=0;right=0;pointerEvents=1;fontSize=16;fontFamily=Times New Roman;" parent="kbOJXT6cfB6z6lRoZ_cL-241" vertex="1">
          <mxGeometry width="4" height="5" as="geometry">
            <mxRectangle width="4" height="5" as="alternateBounds" />
          </mxGeometry>
        </mxCell>
        <mxCell id="kbOJXT6cfB6z6lRoZ_cL-243" value="" style="shape=partialRectangle;html=1;whiteSpace=wrap;connectable=0;strokeColor=inherit;overflow=hidden;fillColor=#B29CDC;top=0;left=0;bottom=0;right=0;pointerEvents=1;fontSize=16;fontFamily=Times New Roman;" parent="kbOJXT6cfB6z6lRoZ_cL-241" vertex="1">
          <mxGeometry x="4" width="5" height="5" as="geometry">
            <mxRectangle width="5" height="5" as="alternateBounds" />
          </mxGeometry>
        </mxCell>
        <mxCell id="kbOJXT6cfB6z6lRoZ_cL-244" value="a9cfcb" style="shape=partialRectangle;html=1;whiteSpace=wrap;connectable=0;strokeColor=inherit;overflow=hidden;fillColor=#EAE6F5;top=0;left=0;bottom=0;right=0;pointerEvents=1;fontSize=16;fontFamily=Times New Roman;" parent="kbOJXT6cfB6z6lRoZ_cL-241" vertex="1">
          <mxGeometry x="9" width="5" height="5" as="geometry">
            <mxRectangle width="5" height="5" as="alternateBounds" />
          </mxGeometry>
        </mxCell>
        <mxCell id="kbOJXT6cfB6z6lRoZ_cL-245" style="shape=partialRectangle;html=1;whiteSpace=wrap;connectable=0;strokeColor=inherit;overflow=hidden;fillColor=#B29CDC;top=0;left=0;bottom=0;right=0;pointerEvents=1;fontSize=16;fontFamily=Times New Roman;" parent="kbOJXT6cfB6z6lRoZ_cL-241" vertex="1">
          <mxGeometry x="14" width="4" height="5" as="geometry">
            <mxRectangle width="4" height="5" as="alternateBounds" />
          </mxGeometry>
        </mxCell>
        <mxCell id="kbOJXT6cfB6z6lRoZ_cL-246" value="" style="shape=tableRow;horizontal=0;startSize=0;swimlaneHead=0;swimlaneBody=0;strokeColor=inherit;top=0;left=0;bottom=0;right=0;collapsible=0;dropTarget=0;fillColor=none;points=[[0,0.5],[1,0.5]];portConstraint=eastwest;fontSize=16;fontFamily=Times New Roman;" parent="kbOJXT6cfB6z6lRoZ_cL-235" vertex="1">
          <mxGeometry y="9" width="17.787709497206702" height="5" as="geometry" />
        </mxCell>
        <mxCell id="kbOJXT6cfB6z6lRoZ_cL-247" value="" style="shape=partialRectangle;html=1;whiteSpace=wrap;connectable=0;strokeColor=inherit;overflow=hidden;fillColor=#7A57BE;top=0;left=0;bottom=0;right=0;pointerEvents=1;fontSize=16;fontFamily=Times New Roman;" parent="kbOJXT6cfB6z6lRoZ_cL-246" vertex="1">
          <mxGeometry width="4" height="5" as="geometry">
            <mxRectangle width="4" height="5" as="alternateBounds" />
          </mxGeometry>
        </mxCell>
        <mxCell id="kbOJXT6cfB6z6lRoZ_cL-248" value="" style="shape=partialRectangle;html=1;whiteSpace=wrap;connectable=0;strokeColor=inherit;overflow=hidden;fillColor=#9473CC;top=0;left=0;bottom=0;right=0;pointerEvents=1;fontSize=16;fontFamily=Times New Roman;" parent="kbOJXT6cfB6z6lRoZ_cL-246" vertex="1">
          <mxGeometry x="4" width="5" height="5" as="geometry">
            <mxRectangle width="5" height="5" as="alternateBounds" />
          </mxGeometry>
        </mxCell>
        <mxCell id="kbOJXT6cfB6z6lRoZ_cL-249" value="B29CDC" style="shape=partialRectangle;html=1;whiteSpace=wrap;connectable=0;strokeColor=inherit;overflow=hidden;fillColor=#B29CDC;top=0;left=0;bottom=0;right=0;pointerEvents=1;fontSize=16;fontFamily=Times New Roman;" parent="kbOJXT6cfB6z6lRoZ_cL-246" vertex="1">
          <mxGeometry x="9" width="5" height="5" as="geometry">
            <mxRectangle width="5" height="5" as="alternateBounds" />
          </mxGeometry>
        </mxCell>
        <mxCell id="kbOJXT6cfB6z6lRoZ_cL-250" style="shape=partialRectangle;html=1;whiteSpace=wrap;connectable=0;strokeColor=inherit;overflow=hidden;fillColor=#7A57BE;top=0;left=0;bottom=0;right=0;pointerEvents=1;fontSize=16;fontFamily=Times New Roman;" parent="kbOJXT6cfB6z6lRoZ_cL-246" vertex="1">
          <mxGeometry x="14" width="4" height="5" as="geometry">
            <mxRectangle width="4" height="5" as="alternateBounds" />
          </mxGeometry>
        </mxCell>
        <mxCell id="kbOJXT6cfB6z6lRoZ_cL-251" value="" style="shape=tableRow;horizontal=0;startSize=0;swimlaneHead=0;swimlaneBody=0;strokeColor=inherit;top=0;left=0;bottom=0;right=0;collapsible=0;dropTarget=0;fillColor=none;points=[[0,0.5],[1,0.5]];portConstraint=eastwest;fontSize=16;fontFamily=Times New Roman;" parent="kbOJXT6cfB6z6lRoZ_cL-235" vertex="1">
          <mxGeometry y="14" width="17.787709497206702" height="4" as="geometry" />
        </mxCell>
        <mxCell id="kbOJXT6cfB6z6lRoZ_cL-252" value="" style="shape=partialRectangle;html=1;whiteSpace=wrap;connectable=0;strokeColor=inherit;overflow=hidden;fillColor=#EAE6F5;top=0;left=0;bottom=0;right=0;pointerEvents=1;fontSize=16;fontFamily=Times New Roman;" parent="kbOJXT6cfB6z6lRoZ_cL-251" vertex="1">
          <mxGeometry width="4" height="4" as="geometry">
            <mxRectangle width="4" height="4" as="alternateBounds" />
          </mxGeometry>
        </mxCell>
        <mxCell id="kbOJXT6cfB6z6lRoZ_cL-253" value="" style="shape=partialRectangle;html=1;whiteSpace=wrap;connectable=0;strokeColor=inherit;overflow=hidden;fillColor=#EAE6F5;top=0;left=0;bottom=0;right=0;pointerEvents=1;fontSize=16;fontFamily=Times New Roman;" parent="kbOJXT6cfB6z6lRoZ_cL-251" vertex="1">
          <mxGeometry x="4" width="5" height="4" as="geometry">
            <mxRectangle width="5" height="4" as="alternateBounds" />
          </mxGeometry>
        </mxCell>
        <mxCell id="kbOJXT6cfB6z6lRoZ_cL-254" value="" style="shape=partialRectangle;html=1;whiteSpace=wrap;connectable=0;strokeColor=inherit;overflow=hidden;fillColor=#7A57BE;top=0;left=0;bottom=0;right=0;pointerEvents=1;fontSize=16;fontFamily=Times New Roman;" parent="kbOJXT6cfB6z6lRoZ_cL-251" vertex="1">
          <mxGeometry x="9" width="5" height="4" as="geometry">
            <mxRectangle width="5" height="4" as="alternateBounds" />
          </mxGeometry>
        </mxCell>
        <mxCell id="kbOJXT6cfB6z6lRoZ_cL-255" style="shape=partialRectangle;html=1;whiteSpace=wrap;connectable=0;strokeColor=inherit;overflow=hidden;fillColor=#9473CC;top=0;left=0;bottom=0;right=0;pointerEvents=1;fontSize=16;fontFamily=Times New Roman;" parent="kbOJXT6cfB6z6lRoZ_cL-251" vertex="1">
          <mxGeometry x="14" width="4" height="4" as="geometry">
            <mxRectangle width="4" height="4" as="alternateBounds" />
          </mxGeometry>
        </mxCell>
        <mxCell id="kbOJXT6cfB6z6lRoZ_cL-269" value="" style="endArrow=none;html=1;rounded=0;strokeColor=default;align=center;verticalAlign=middle;fontFamily=Times New Roman;fontSize=11;fontColor=default;labelBackgroundColor=default;strokeWidth=1;exitX=0.172;exitY=0.53;exitDx=0;exitDy=0;exitPerimeter=0;" parent="Dc8xoGKeF29MCSsuU2qs-2" source="kbOJXT6cfB6z6lRoZ_cL-190" edge="1">
          <mxGeometry width="50" height="50" relative="1" as="geometry">
            <mxPoint x="143.3133519553073" y="81.61427996599609" as="sourcePoint" />
            <mxPoint x="293.18592178770956" y="81.65875035420801" as="targetPoint" />
          </mxGeometry>
        </mxCell>
        <mxCell id="kbOJXT6cfB6z6lRoZ_cL-270" value="" style="group;fontFamily=Times New Roman;" parent="Dc8xoGKeF29MCSsuU2qs-2" vertex="1" connectable="0">
          <mxGeometry x="233.3636312849163" y="46.63831963729103" width="106.72625698324023" height="71.15262113913289" as="geometry" />
        </mxCell>
        <mxCell id="kbOJXT6cfB6z6lRoZ_cL-271" value="" style="endArrow=classicThin;html=1;rounded=0;strokeWidth=0.4;strokeColor=default;align=center;verticalAlign=middle;fontFamily=Times New Roman;fontSize=11;fontColor=default;labelBackgroundColor=default;endFill=1;" parent="kbOJXT6cfB6z6lRoZ_cL-270" edge="1">
          <mxGeometry width="50" height="50" relative="1" as="geometry">
            <mxPoint x="3.3351955307262573" y="2.7793992632473787" as="sourcePoint" />
            <mxPoint x="23.3463687150838" y="2.734928875035461" as="targetPoint" />
          </mxGeometry>
        </mxCell>
        <mxCell id="kbOJXT6cfB6z6lRoZ_cL-272" value="" style="endArrow=classicThin;html=1;rounded=0;strokeWidth=0.4;strokeColor=default;align=center;verticalAlign=middle;fontFamily=Times New Roman;fontSize=11;fontColor=default;labelBackgroundColor=default;endFill=1;" parent="kbOJXT6cfB6z6lRoZ_cL-270" edge="1">
          <mxGeometry width="50" height="50" relative="1" as="geometry">
            <mxPoint x="35.575418994413404" y="4.958448285633364" as="sourcePoint" />
            <mxPoint x="53.36312849162012" y="4.958448285633364" as="targetPoint" />
          </mxGeometry>
        </mxCell>
        <mxCell id="kbOJXT6cfB6z6lRoZ_cL-273" value="" style="group;fontFamily=Times New Roman;" parent="kbOJXT6cfB6z6lRoZ_cL-270" vertex="1" connectable="0">
          <mxGeometry x="24.068994413407797" width="8.893854748603351" height="8.894077642391611" as="geometry" />
        </mxCell>
        <mxCell id="kbOJXT6cfB6z6lRoZ_cL-274" value="" style="ellipse;whiteSpace=wrap;html=1;aspect=fixed;fontFamily=Times New Roman;fontSize=11;fontColor=default;labelBackgroundColor=default;" parent="kbOJXT6cfB6z6lRoZ_cL-273" vertex="1">
          <mxGeometry width="8.893854748603351" height="8.893854748603351" as="geometry" />
        </mxCell>
        <mxCell id="kbOJXT6cfB6z6lRoZ_cL-275" value="" style="shape=mxgraph.sysml.x;fontFamily=Times New Roman;fontSize=11;fontColor=default;labelBackgroundColor=default;strokeWidth=0.8;" parent="kbOJXT6cfB6z6lRoZ_cL-273" vertex="1">
          <mxGeometry x="0.9449720670391314" y="1.067289317087034" width="6.670391061452515" height="6.670558231793709" as="geometry" />
        </mxCell>
        <mxCell id="kbOJXT6cfB6z6lRoZ_cL-276" value="" style="group;fontFamily=Times New Roman;" parent="kbOJXT6cfB6z6lRoZ_cL-270" vertex="1" connectable="0">
          <mxGeometry x="55.58659217877095" width="8.893854748603351" height="8.894077642391611" as="geometry" />
        </mxCell>
        <mxCell id="kbOJXT6cfB6z6lRoZ_cL-277" value="" style="ellipse;whiteSpace=wrap;html=1;aspect=fixed;fontFamily=Times New Roman;fontSize=11;fontColor=default;labelBackgroundColor=default;" parent="kbOJXT6cfB6z6lRoZ_cL-276" vertex="1">
          <mxGeometry width="8.893854748603351" height="8.893854748603351" as="geometry" />
        </mxCell>
        <mxCell id="kbOJXT6cfB6z6lRoZ_cL-278" value="" style="shape=mxgraph.sysml.x;fontFamily=Times New Roman;fontSize=11;fontColor=default;labelBackgroundColor=default;strokeWidth=0.8;" parent="kbOJXT6cfB6z6lRoZ_cL-276" vertex="1">
          <mxGeometry x="0.9449720670391314" y="1.067289317087034" width="6.670391061452515" height="6.670558231793709" as="geometry" />
        </mxCell>
        <mxCell id="kbOJXT6cfB6z6lRoZ_cL-279" value="" style="endArrow=classicThin;html=1;rounded=0;strokeColor=default;align=center;verticalAlign=middle;fontFamily=Times New Roman;fontSize=11;fontColor=default;labelBackgroundColor=default;entryX=0.5;entryY=1;entryDx=0;entryDy=0;strokeWidth=0.6;endFill=1;edgeStyle=orthogonalEdgeStyle;curved=1;" parent="kbOJXT6cfB6z6lRoZ_cL-270" edge="1">
          <mxGeometry width="50" height="50" relative="1" as="geometry">
            <mxPoint x="60.03351955307262" y="39.42299914990086" as="sourcePoint" />
            <mxPoint x="60.03351955307262" y="11.117597052989515" as="targetPoint" />
          </mxGeometry>
        </mxCell>
        <mxCell id="kbOJXT6cfB6z6lRoZ_cL-280" value="" style="endArrow=classicThin;html=1;rounded=0;strokeColor=default;align=center;verticalAlign=middle;fontFamily=Times New Roman;fontSize=11;fontColor=default;labelBackgroundColor=default;entryX=0.5;entryY=1;entryDx=0;entryDy=0;strokeWidth=0.6;endFill=1;edgeStyle=orthogonalEdgeStyle;curved=1;" parent="kbOJXT6cfB6z6lRoZ_cL-270" edge="1">
          <mxGeometry width="50" height="50" relative="1" as="geometry">
            <mxPoint x="60.03351955307262" y="32.752440918107155" as="sourcePoint" />
            <mxPoint x="60.03351955307262" y="60.546433550580936" as="targetPoint" />
          </mxGeometry>
        </mxCell>
        <mxCell id="kbOJXT6cfB6z6lRoZ_cL-281" value="" style="endArrow=classicThin;html=1;rounded=0;strokeWidth=0.4;strokeColor=default;align=center;verticalAlign=middle;fontFamily=Times New Roman;fontSize=11;fontColor=default;labelBackgroundColor=default;endFill=1;" parent="kbOJXT6cfB6z6lRoZ_cL-270" edge="1">
          <mxGeometry width="50" height="50" relative="1" as="geometry">
            <mxPoint x="2.2234636871508378" y="71.66403060357045" as="sourcePoint" />
            <mxPoint x="23.3463687150838" y="71.66403060357045" as="targetPoint" />
          </mxGeometry>
        </mxCell>
        <mxCell id="kbOJXT6cfB6z6lRoZ_cL-282" value="" style="endArrow=classicThin;html=1;rounded=0;strokeWidth=0.4;strokeColor=default;align=center;verticalAlign=middle;fontFamily=Times New Roman;fontSize=11;fontColor=default;labelBackgroundColor=default;endFill=1;" parent="kbOJXT6cfB6z6lRoZ_cL-270" edge="1">
          <mxGeometry width="50" height="50" relative="1" as="geometry">
            <mxPoint x="36.687150837988824" y="68.3287514876736" as="sourcePoint" />
            <mxPoint x="54.47486033519553" y="68.3287514876736" as="targetPoint" />
          </mxGeometry>
        </mxCell>
        <mxCell id="kbOJXT6cfB6z6lRoZ_cL-283" value="" style="group;fontFamily=Times New Roman;" parent="kbOJXT6cfB6z6lRoZ_cL-270" vertex="1" connectable="0">
          <mxGeometry x="25.180726256983213" y="66.70558231793709" width="8.893854748603351" height="8.894077642391611" as="geometry" />
        </mxCell>
        <mxCell id="kbOJXT6cfB6z6lRoZ_cL-284" value="" style="ellipse;whiteSpace=wrap;html=1;aspect=fixed;fontFamily=Times New Roman;fontSize=11;fontColor=default;labelBackgroundColor=default;" parent="kbOJXT6cfB6z6lRoZ_cL-283" vertex="1">
          <mxGeometry width="8.893854748603351" height="8.893854748603351" as="geometry" />
        </mxCell>
        <mxCell id="kbOJXT6cfB6z6lRoZ_cL-285" value="" style="shape=mxgraph.sysml.x;fontFamily=Times New Roman;fontSize=11;fontColor=default;labelBackgroundColor=default;strokeWidth=0.8;" parent="kbOJXT6cfB6z6lRoZ_cL-283" vertex="1">
          <mxGeometry x="0.9449720670391314" y="1.067289317087034" width="6.670391061452515" height="6.670558231793709" as="geometry" />
        </mxCell>
        <mxCell id="kbOJXT6cfB6z6lRoZ_cL-286" value="" style="group;fontFamily=Times New Roman;" parent="kbOJXT6cfB6z6lRoZ_cL-270" vertex="1" connectable="0">
          <mxGeometry x="55.58659217877095" y="62.25854349674129" width="8.893854748603351" height="8.894077642391611" as="geometry" />
        </mxCell>
        <mxCell id="kbOJXT6cfB6z6lRoZ_cL-287" value="" style="ellipse;whiteSpace=wrap;html=1;aspect=fixed;fontFamily=Times New Roman;fontSize=11;fontColor=default;labelBackgroundColor=default;" parent="kbOJXT6cfB6z6lRoZ_cL-286" vertex="1">
          <mxGeometry width="8.893854748603351" height="8.893854748603351" as="geometry" />
        </mxCell>
        <mxCell id="kbOJXT6cfB6z6lRoZ_cL-288" value="" style="shape=mxgraph.sysml.x;fontFamily=Times New Roman;fontSize=11;fontColor=default;labelBackgroundColor=default;strokeWidth=0.8;" parent="kbOJXT6cfB6z6lRoZ_cL-286" vertex="1">
          <mxGeometry x="0.9449720670391314" y="1.067289317087034" width="6.670391061452515" height="6.670558231793709" as="geometry" />
        </mxCell>
        <mxCell id="kbOJXT6cfB6z6lRoZ_cL-289" value="" style="curved=1;endArrow=classicThin;html=1;rounded=0;strokeColor=default;align=center;verticalAlign=middle;fontFamily=Times New Roman;fontSize=11;fontColor=default;labelBackgroundColor=default;startFill=0;entryX=0;entryY=0.746;entryDx=0;entryDy=0;entryPerimeter=0;strokeWidth=0.8;endFill=1;" parent="kbOJXT6cfB6z6lRoZ_cL-270" edge="1">
          <mxGeometry width="50" height="50" relative="1" as="geometry">
            <mxPoint x="64.4804469273743" y="2.734928875035461" as="sourcePoint" />
            <mxPoint x="84.49162011173185" y="33.864200623406106" as="targetPoint" />
            <Array as="points">
              <mxPoint x="75.59776536312849" y="2.734928875035461" />
              <mxPoint x="76.7094972067039" y="24.97012298101449" />
            </Array>
          </mxGeometry>
        </mxCell>
        <mxCell id="kbOJXT6cfB6z6lRoZ_cL-290" value="" style="group;fontFamily=Times New Roman;" parent="kbOJXT6cfB6z6lRoZ_cL-270" vertex="1" connectable="0">
          <mxGeometry x="85.0873954111038" y="28.38978286289825" width="12.149231524161126" height="12.149536002738234" as="geometry" />
        </mxCell>
        <mxCell id="kbOJXT6cfB6z6lRoZ_cL-291" value="" style="ellipse;whiteSpace=wrap;html=1;aspect=fixed;fontFamily=Times New Roman;fontSize=11;fontColor=default;labelBackgroundColor=default;rotation=30;" parent="kbOJXT6cfB6z6lRoZ_cL-290" vertex="1">
          <mxGeometry x="1.6276883877788868" y="1.6277291801733114" width="8.893854748603351" height="8.893854748603351" as="geometry" />
        </mxCell>
        <mxCell id="kbOJXT6cfB6z6lRoZ_cL-292" value="" style="shape=mxgraph.sysml.x;fontFamily=Times New Roman;fontSize=11;fontColor=default;labelBackgroundColor=default;strokeWidth=0.8;direction=west;rotation=45;" parent="kbOJXT6cfB6z6lRoZ_cL-290" vertex="1">
          <mxGeometry x="2.572660454818018" y="2.695018497260345" width="6.670391061452515" height="6.670558231793709" as="geometry" />
        </mxCell>
        <mxCell id="kbOJXT6cfB6z6lRoZ_cL-293" value="" style="endArrow=classicThin;html=1;rounded=0;strokeWidth=0.4;strokeColor=default;align=center;verticalAlign=middle;fontFamily=Times New Roman;fontSize=11;fontColor=default;labelBackgroundColor=default;endFill=1;" parent="kbOJXT6cfB6z6lRoZ_cL-270" edge="1">
          <mxGeometry width="50" height="50" relative="1" as="geometry">
            <mxPoint x="96.72067039106146" y="34.42008047605558" as="sourcePoint" />
            <mxPoint x="106.72625698324023" y="34.42008047605558" as="targetPoint" />
          </mxGeometry>
        </mxCell>
        <mxCell id="kbOJXT6cfB6z6lRoZ_cL-294" value="" style="curved=1;endArrow=classicThin;html=1;rounded=0;strokeColor=default;align=center;verticalAlign=middle;fontFamily=Times New Roman;fontSize=11;fontColor=default;labelBackgroundColor=default;startFill=0;entryX=0;entryY=0.746;entryDx=0;entryDy=0;entryPerimeter=0;strokeWidth=0.8;endFill=1;" parent="kbOJXT6cfB6z6lRoZ_cL-270" edge="1">
          <mxGeometry width="50" height="50" relative="1" as="geometry">
            <mxPoint x="64.4804469273743" y="67.2169917823749" as="sourcePoint" />
            <mxPoint x="84.49162011173185" y="36.08772003400426" as="targetPoint" />
            <Array as="points">
              <mxPoint x="75.59776536312849" y="67.2169917823749" />
              <mxPoint x="76.7094972067039" y="44.98179767639587" />
            </Array>
          </mxGeometry>
        </mxCell>
        <mxCell id="kbOJXT6cfB6z6lRoZ_cL-295" value="&lt;font style=&quot;font-size: 9px;&quot;&gt;&lt;b style=&quot;&quot;&gt;Cw&lt;/b&gt;&lt;/font&gt;" style="text;html=1;align=center;verticalAlign=middle;whiteSpace=wrap;rounded=0;fontFamily=Times New Roman;" parent="kbOJXT6cfB6z6lRoZ_cL-270" vertex="1">
          <mxGeometry x="12.22905027932961" y="-23.902833663927456" width="34.46368715083799" height="4.447038821195806" as="geometry" />
        </mxCell>
        <mxCell id="kbOJXT6cfB6z6lRoZ_cL-296" value="&lt;font style=&quot;font-size: 9px;&quot;&gt;&lt;b style=&quot;&quot;&gt;S&lt;sub style=&quot;&quot;&gt;w&lt;/sub&gt;&lt;/b&gt;&lt;/font&gt;" style="text;html=1;align=center;verticalAlign=middle;whiteSpace=wrap;rounded=0;fontFamily=Times New Roman;" parent="kbOJXT6cfB6z6lRoZ_cL-270" vertex="1">
          <mxGeometry x="15.564245810055866" y="83.93785775007083" width="33.35195530726257" height="18.899914990082173" as="geometry" />
        </mxCell>
        <mxCell id="kbOJXT6cfB6z6lRoZ_cL-297" value="" style="endArrow=classicThin;html=1;rounded=0;strokeColor=default;align=center;verticalAlign=middle;fontFamily=Times New Roman;fontSize=11;fontColor=default;labelBackgroundColor=default;entryX=0.5;entryY=1;entryDx=0;entryDy=0;strokeWidth=0.4;endFill=1;edgeStyle=orthogonalEdgeStyle;curved=1;" parent="kbOJXT6cfB6z6lRoZ_cL-270" edge="1">
          <mxGeometry width="50" height="50" relative="1" as="geometry">
            <mxPoint x="30.01675977653631" y="89.4966562765656" as="sourcePoint" />
            <mxPoint x="30.01675977653631" y="76.71141966562766" as="targetPoint" />
          </mxGeometry>
        </mxCell>
        <mxCell id="kbOJXT6cfB6z6lRoZ_cL-298" value="" style="endArrow=classicThin;html=1;rounded=0;strokeColor=default;align=center;verticalAlign=middle;fontFamily=Times New Roman;fontSize=11;fontColor=default;labelBackgroundColor=default;entryX=0.5;entryY=1;entryDx=0;entryDy=0;strokeWidth=0.4;endFill=1;edgeStyle=orthogonalEdgeStyle;curved=1;" parent="kbOJXT6cfB6z6lRoZ_cL-270" edge="1">
          <mxGeometry width="50" height="50" relative="1" as="geometry">
            <mxPoint x="27.582067039106086" y="-13.896996316236894" as="sourcePoint" />
            <mxPoint x="27.793296089385475" y="-0.5558798526494757" as="targetPoint" />
          </mxGeometry>
        </mxCell>
        <mxCell id="kbOJXT6cfB6z6lRoZ_cL-299" value="&lt;font style=&quot;font-size: 11px;&quot;&gt;$$\sigma$$&lt;/font&gt;" style="text;html=1;align=center;verticalAlign=middle;whiteSpace=wrap;rounded=0;fontSize=10;fontFamily=Times New Roman;" parent="kbOJXT6cfB6z6lRoZ_cL-270" vertex="1">
          <mxGeometry x="22.23463687150838" y="51.69682629640125" width="41.134078212290504" height="17.999389628790027" as="geometry" />
        </mxCell>
        <mxCell id="kbOJXT6cfB6z6lRoZ_cL-300" value="$$\mathbf{1} \times \mathbf{1} \times \mathbf{C}$$" style="text;html=1;align=center;verticalAlign=middle;whiteSpace=wrap;rounded=0;fontSize=7;fontFamily=Times New Roman;fontStyle=1;strokeColor=none;" parent="kbOJXT6cfB6z6lRoZ_cL-270" vertex="1">
          <mxGeometry x="-23.3463687150838" y="12.229356758288468" width="34.46368715083799" height="16.67639557948427" as="geometry" />
        </mxCell>
        <mxCell id="kbOJXT6cfB6z6lRoZ_cL-301" value="" style="shape=table;startSize=0;container=1;collapsible=0;childLayout=tableLayout;fontSize=16;gradientColor=none;gradientDirection=north;fillColor=none;fontFamily=Times New Roman;strokeColor=none;" parent="Dc8xoGKeF29MCSsuU2qs-2" vertex="1">
          <mxGeometry x="71.25089385474864" y="88.32930858600172" width="17.787709497206702" height="17.788155284783222" as="geometry" />
        </mxCell>
        <mxCell id="kbOJXT6cfB6z6lRoZ_cL-302" style="shape=tableRow;horizontal=0;startSize=0;swimlaneHead=0;swimlaneBody=0;strokeColor=inherit;top=0;left=0;bottom=0;right=0;collapsible=0;dropTarget=0;fillColor=none;points=[[0,0.5],[1,0.5]];portConstraint=eastwest;fontSize=16;fontFamily=Times New Roman;" parent="kbOJXT6cfB6z6lRoZ_cL-301" vertex="1">
          <mxGeometry width="17.787709497206702" height="4" as="geometry" />
        </mxCell>
        <mxCell id="kbOJXT6cfB6z6lRoZ_cL-303" style="shape=partialRectangle;html=1;whiteSpace=wrap;connectable=0;strokeColor=inherit;overflow=hidden;fillColor=#5FA9D1;top=0;left=0;bottom=0;right=0;pointerEvents=1;fontSize=16;fontFamily=Times New Roman;" parent="kbOJXT6cfB6z6lRoZ_cL-302" vertex="1">
          <mxGeometry width="4" height="4" as="geometry">
            <mxRectangle width="4" height="4" as="alternateBounds" />
          </mxGeometry>
        </mxCell>
        <mxCell id="kbOJXT6cfB6z6lRoZ_cL-304" style="shape=partialRectangle;html=1;whiteSpace=wrap;connectable=0;strokeColor=inherit;overflow=hidden;fillColor=#397AAA;top=0;left=0;bottom=0;right=0;pointerEvents=1;fontSize=16;fontFamily=Times New Roman;" parent="kbOJXT6cfB6z6lRoZ_cL-302" vertex="1">
          <mxGeometry x="4" width="5" height="4" as="geometry">
            <mxRectangle width="5" height="4" as="alternateBounds" />
          </mxGeometry>
        </mxCell>
        <mxCell id="kbOJXT6cfB6z6lRoZ_cL-305" style="shape=partialRectangle;html=1;whiteSpace=wrap;connectable=0;strokeColor=inherit;overflow=hidden;fillColor=#154778;top=0;left=0;bottom=0;right=0;pointerEvents=1;fontSize=16;fontFamily=Times New Roman;" parent="kbOJXT6cfB6z6lRoZ_cL-302" vertex="1">
          <mxGeometry x="9" width="5" height="4" as="geometry">
            <mxRectangle width="5" height="4" as="alternateBounds" />
          </mxGeometry>
        </mxCell>
        <mxCell id="kbOJXT6cfB6z6lRoZ_cL-306" value="154778" style="shape=partialRectangle;html=1;whiteSpace=wrap;connectable=0;strokeColor=inherit;overflow=hidden;fillColor=#5FA9D1;top=0;left=0;bottom=0;right=0;pointerEvents=1;fontSize=16;fontFamily=Times New Roman;" parent="kbOJXT6cfB6z6lRoZ_cL-302" vertex="1">
          <mxGeometry x="14" width="4" height="4" as="geometry">
            <mxRectangle width="4" height="4" as="alternateBounds" />
          </mxGeometry>
        </mxCell>
        <mxCell id="kbOJXT6cfB6z6lRoZ_cL-307" value="" style="shape=tableRow;horizontal=0;startSize=0;swimlaneHead=0;swimlaneBody=0;strokeColor=inherit;top=0;left=0;bottom=0;right=0;collapsible=0;dropTarget=0;fillColor=none;points=[[0,0.5],[1,0.5]];portConstraint=eastwest;fontSize=16;fontFamily=Times New Roman;" parent="kbOJXT6cfB6z6lRoZ_cL-301" vertex="1">
          <mxGeometry y="4" width="17.787709497206702" height="5" as="geometry" />
        </mxCell>
        <mxCell id="kbOJXT6cfB6z6lRoZ_cL-308" value="" style="shape=partialRectangle;html=1;whiteSpace=wrap;connectable=0;strokeColor=inherit;overflow=hidden;fillColor=#154778;top=0;left=0;bottom=0;right=0;pointerEvents=1;fontSize=16;fontFamily=Times New Roman;" parent="kbOJXT6cfB6z6lRoZ_cL-307" vertex="1">
          <mxGeometry width="4" height="5" as="geometry">
            <mxRectangle width="4" height="5" as="alternateBounds" />
          </mxGeometry>
        </mxCell>
        <mxCell id="kbOJXT6cfB6z6lRoZ_cL-309" value="C8EBF6" style="shape=partialRectangle;html=1;whiteSpace=wrap;connectable=0;strokeColor=inherit;overflow=hidden;fillColor=#C8EBF6;top=0;left=0;bottom=0;right=0;pointerEvents=1;fontSize=16;fontFamily=Times New Roman;" parent="kbOJXT6cfB6z6lRoZ_cL-307" vertex="1">
          <mxGeometry x="4" width="5" height="5" as="geometry">
            <mxRectangle width="5" height="5" as="alternateBounds" />
          </mxGeometry>
        </mxCell>
        <mxCell id="kbOJXT6cfB6z6lRoZ_cL-310" value="397AAA" style="shape=partialRectangle;html=1;whiteSpace=wrap;connectable=0;strokeColor=inherit;overflow=hidden;fillColor=#397AAA;top=0;left=0;bottom=0;right=0;pointerEvents=1;fontSize=16;fontFamily=Times New Roman;" parent="kbOJXT6cfB6z6lRoZ_cL-307" vertex="1">
          <mxGeometry x="9" width="5" height="5" as="geometry">
            <mxRectangle width="5" height="5" as="alternateBounds" />
          </mxGeometry>
        </mxCell>
        <mxCell id="kbOJXT6cfB6z6lRoZ_cL-311" style="shape=partialRectangle;html=1;whiteSpace=wrap;connectable=0;strokeColor=inherit;overflow=hidden;fillColor=#b1ddf0;top=0;left=0;bottom=0;right=0;pointerEvents=1;fontSize=16;fontFamily=Times New Roman;" parent="kbOJXT6cfB6z6lRoZ_cL-307" vertex="1">
          <mxGeometry x="14" width="4" height="5" as="geometry">
            <mxRectangle width="4" height="5" as="alternateBounds" />
          </mxGeometry>
        </mxCell>
        <mxCell id="kbOJXT6cfB6z6lRoZ_cL-312" value="" style="shape=tableRow;horizontal=0;startSize=0;swimlaneHead=0;swimlaneBody=0;strokeColor=inherit;top=0;left=0;bottom=0;right=0;collapsible=0;dropTarget=0;fillColor=none;points=[[0,0.5],[1,0.5]];portConstraint=eastwest;fontSize=16;fontFamily=Times New Roman;" parent="kbOJXT6cfB6z6lRoZ_cL-301" vertex="1">
          <mxGeometry y="9" width="17.787709497206702" height="5" as="geometry" />
        </mxCell>
        <mxCell id="kbOJXT6cfB6z6lRoZ_cL-313" value="" style="shape=partialRectangle;html=1;whiteSpace=wrap;connectable=0;strokeColor=inherit;overflow=hidden;fillColor=#95D4EE;top=0;left=0;bottom=0;right=0;pointerEvents=1;fontSize=16;fontFamily=Times New Roman;" parent="kbOJXT6cfB6z6lRoZ_cL-312" vertex="1">
          <mxGeometry width="4" height="5" as="geometry">
            <mxRectangle width="4" height="5" as="alternateBounds" />
          </mxGeometry>
        </mxCell>
        <mxCell id="kbOJXT6cfB6z6lRoZ_cL-314" value="" style="shape=partialRectangle;html=1;whiteSpace=wrap;connectable=0;strokeColor=inherit;overflow=hidden;fillColor=#397AAA;top=0;left=0;bottom=0;right=0;pointerEvents=1;fontSize=16;fontFamily=Times New Roman;" parent="kbOJXT6cfB6z6lRoZ_cL-312" vertex="1">
          <mxGeometry x="4" width="5" height="5" as="geometry">
            <mxRectangle width="5" height="5" as="alternateBounds" />
          </mxGeometry>
        </mxCell>
        <mxCell id="kbOJXT6cfB6z6lRoZ_cL-315" value="&lt;span style=&quot;color: rgba(0, 0, 0, 0); font-size: 0px; text-align: start; text-wrap-mode: nowrap;&quot;&gt;%3CmxGraphModel%3E%3Croot%3E%3CmxCell%20id%3D%220%22%2F%3E%3CmxCell%20id%3D%221%22%20parent%3D%220%22%2F%3E%3CmxCell%20id%3D%222%22%20value%3D%22%22%20style%3D%22shape%3Dtable%3BstartSize%3D0%3Bcontainer%3D1%3Bcollapsible%3D0%3BchildLayout%3DtableLayout%3BfontSize%3D16%3BgradientColor%3D%23808080%3BgradientDirection%3Dnorth%3B%22%20vertex%3D%221%22%20parent%3D%221%22%3E%3CmxGeometry%20x%3D%22458%22%20y%3D%22158%22%20width%3D%2230%22%20height%3D%2228%22%20as%3D%22geometry%22%2F%3E%3C%2FmxCell%3E%3CmxCell%20id%3D%223%22%20style%3D%22shape%3DtableRow%3Bhorizontal%3D0%3BstartSize%3D0%3BswimlaneHead%3D0%3BswimlaneBody%3D0%3BstrokeColor%3Dinherit%3Btop%3D0%3Bleft%3D0%3Bbottom%3D0%3Bright%3D0%3Bcollapsible%3D0%3BdropTarget%3D0%3BfillColor%3Dnone%3Bpoints%3D%5B%5B0%2C0.5%5D%2C%5B1%2C0.5%5D%5D%3BportConstraint%3Deastwest%3BfontSize%3D16%3B%22%20vertex%3D%221%22%20parent%3D%222%22%3E%3CmxGeometry%20width%3D%2230%22%20height%3D%227%22%20as%3D%22geometry%22%2F%3E%3C%2FmxCell%3E%3CmxCell%20id%3D%224%22%20style%3D%22shape%3DpartialRectangle%3Bhtml%3D1%3BwhiteSpace%3Dwrap%3Bconnectable%3D0%3BstrokeColor%3Dinherit%3Boverflow%3Dhidden%3BfillColor%3Dnone%3Btop%3D0%3Bleft%3D0%3Bbottom%3D0%3Bright%3D0%3BpointerEvents%3D1%3BfontSize%3D16%3B%22%20vertex%3D%221%22%20parent%3D%223%22%3E%3CmxGeometry%20width%3D%228%22%20height%3D%227%22%20as%3D%22geometry%22%3E%3CmxRectangle%20width%3D%228%22%20height%3D%227%22%20as%3D%22alternateBounds%22%2F%3E%3C%2FmxGeometry%3E%3C%2FmxCell%3E%3CmxCell%20id%3D%225%22%20style%3D%22shape%3DpartialRectangle%3Bhtml%3D1%3BwhiteSpace%3Dwrap%3Bconnectable%3D0%3BstrokeColor%3Dinherit%3Boverflow%3Dhidden%3BfillColor%3Dnone%3Btop%3D0%3Bleft%3D0%3Bbottom%3D0%3Bright%3D0%3BpointerEvents%3D1%3BfontSize%3D16%3B%22%20vertex%3D%221%22%20parent%3D%223%22%3E%3CmxGeometry%20x%3D%228%22%20width%3D%227%22%20height%3D%227%22%20as%3D%22geometry%22%3E%3CmxRectangle%20width%3D%227%22%20height%3D%227%22%20as%3D%22alternateBounds%22%2F%3E%3C%2FmxGeometry%3E%3C%2FmxCell%3E%3CmxCell%20id%3D%226%22%20style%3D%22shape%3DpartialRectangle%3Bhtml%3D1%3BwhiteSpace%3Dwrap%3Bconnectable%3D0%3BstrokeColor%3Dinherit%3Boverflow%3Dhidden%3BfillColor%3Dnone%3Btop%3D0%3Bleft%3D0%3Bbottom%3D0%3Bright%3D0%3BpointerEvents%3D1%3BfontSize%3D16%3B%22%20vertex%3D%221%22%20parent%3D%223%22%3E%3CmxGeometry%20x%3D%2215%22%20width%3D%228%22%20height%3D%227%22%20as%3D%22geometry%22%3E%3CmxRectangle%20width%3D%228%22%20height%3D%227%22%20as%3D%22alternateBounds%22%2F%3E%3C%2FmxGeometry%3E%3C%2FmxCell%3E%3CmxCell%20id%3D%227%22%20style%3D%22shape%3DpartialRectangle%3Bhtml%3D1%3BwhiteSpace%3Dwrap%3Bconnectable%3D0%3BstrokeColor%3Dinherit%3Boverflow%3Dhidden%3BfillColor%3Dnone%3Btop%3D0%3Bleft%3D0%3Bbottom%3D0%3Bright%3D0%3BpointerEvents%3D1%3BfontSize%3D16%3B%22%20vertex%3D%221%22%20parent%3D%223%22%3E%3CmxGeometry%20x%3D%2223%22%20width%3D%227%22%20height%3D%227%22%20as%3D%22geometry%22%3E%3CmxRectangle%20width%3D%227%22%20height%3D%227%22%20as%3D%22alternateBounds%22%2F%3E%3C%2FmxGeometry%3E%3C%2FmxCell%3E%3CmxCell%20id%3D%228%22%20value%3D%22%22%20style%3D%22shape%3DtableRow%3Bhorizontal%3D0%3BstartSize%3D0%3BswimlaneHead%3D0%3BswimlaneBody%3D0%3BstrokeColor%3Dinherit%3Btop%3D0%3Bleft%3D0%3Bbottom%3D0%3Bright%3D0%3Bcollapsible%3D0%3BdropTarget%3D0%3BfillColor%3Dnone%3Bpoints%3D%5B%5B0%2C0.5%5D%2C%5B1%2C0.5%5D%5D%3BportConstraint%3Deastwest%3BfontSize%3D16%3B%22%20vertex%3D%221%22%20parent%3D%222%22%3E%3CmxGeometry%20y%3D%227%22%20width%3D%2230%22%20height%3D%227%22%20as%3D%22geometry%22%2F%3E%3C%2FmxCell%3E%3CmxCell%20id%3D%229%22%20value%3D%22%22%20style%3D%22shape%3DpartialRectangle%3Bhtml%3D1%3BwhiteSpace%3Dwrap%3Bconnectable%3D0%3BstrokeColor%3Dinherit%3Boverflow%3Dhidden%3BfillColor%3Dnone%3Btop%3D0%3Bleft%3D0%3Bbottom%3D0%3Bright%3D0%3BpointerEvents%3D1%3BfontSize%3D16%3B%22%20vertex%3D%221%22%20parent%3D%228%22%3E%3CmxGeometry%20width%3D%228%22%20height%3D%227%22%20as%3D%22geometry%22%3E%3CmxRectangle%20width%3D%228%22%20height%3D%227%22%20as%3D%22alternateBounds%22%2F%3E%3C%2FmxGeometry%3E%3C%2FmxCell%3E%3CmxCell%20id%3D%2210%22%20value%3D%22%22%20style%3D%22shape%3DpartialRectangle%3Bhtml%3D1%3BwhiteSpace%3Dwrap%3Bconnectable%3D0%3BstrokeColor%3Dinherit%3Boverflow%3Dhidden%3BfillColor%3Dnone%3Btop%3D0%3Bleft%3D0%3Bbottom%3D0%3Bright%3D0%3BpointerEvents%3D1%3BfontSize%3D16%3B%22%20vertex%3D%221%22%20parent%3D%228%22%3E%3CmxGeometry%20x%3D%228%22%20width%3D%227%22%20height%3D%227%22%20as%3D%22geometry%22%3E%3CmxRectangle%20width%3D%227%22%20height%3D%227%22%20as%3D%22alternateBounds%22%2F%3E%3C%2FmxGeometry%3E%3C%2FmxCell%3E%3CmxCell%20id%3D%2211%22%20value%3D%22%22%20style%3D%22shape%3DpartialRectangle%3Bhtml%3D1%3BwhiteSpace%3Dwrap%3Bconnectable%3D0%3BstrokeColor%3Dinherit%3Boverflow%3Dhidden%3BfillColor%3Dnone%3Btop%3D0%3Bleft%3D0%3Bbottom%3D0%3Bright%3D0%3BpointerEvents%3D1%3BfontSize%3D16%3B%22%20vertex%3D%221%22%20parent%3D%228%22%3E%3CmxGeometry%20x%3D%2215%22%20width%3D%228%22%20height%3D%227%22%20as%3D%22geometry%22%3E%3CmxRectangle%20width%3D%228%22%20height%3D%227%22%20as%3D%22alternateBounds%22%2F%3E%3C%2FmxGeometry%3E%3C%2FmxCell%3E%3CmxCell%20id%3D%2212%22%20style%3D%22shape%3DpartialRectangle%3Bhtml%3D1%3BwhiteSpace%3Dwrap%3Bconnectable%3D0%3BstrokeColor%3Dinherit%3Boverflow%3Dhidden%3BfillColor%3Dnone%3Btop%3D0%3Bleft%3D0%3Bbottom%3D0%3Bright%3D0%3BpointerEvents%3D1%3BfontSize%3D16%3B%22%20vertex%3D%221%22%20parent%3D%228%22%3E%3CmxGeometry%20x%3D%2223%22%20width%3D%227%22%20height%3D%227%22%20as%3D%22geometry%22%3E%3CmxRectangle%20width%3D%227%22%20height%3D%227%22%20as%3D%22alternateBounds%22%2F%3E%3C%2FmxGeometry%3E%3C%2FmxCell%3E%3CmxCell%20id%3D%2213%22%20value%3D%22%22%20style%3D%22shape%3DtableRow%3Bhorizontal%3D0%3BstartSize%3D0%3BswimlaneHead%3D0%3BswimlaneBody%3D0%3BstrokeColor%3Dinherit%3Btop%3D0%3Bleft%3D0%3Bbottom%3D0%3Bright%3D0%3Bcollapsible%3D0%3BdropTarget%3D0%3BfillColor%3Dnone%3Bpoints%3D%5B%5B0%2C0.5%5D%2C%5B1%2C0.5%5D%5D%3BportConstraint%3Deastwest%3BfontSize%3D16%3B%22%20vertex%3D%221%22%20parent%3D%222%22%3E%3CmxGeometry%20y%3D%2214%22%20width%3D%2230%22%20height%3D%227%22%20as%3D%22geometry%22%2F%3E%3C%2FmxCell%3E%3CmxCell%20id%3D%2214%22%20value%3D%22%22%20style%3D%22shape%3DpartialRectangle%3Bhtml%3D1%3BwhiteSpace%3Dwrap%3Bconnectable%3D0%3BstrokeColor%3Dinherit%3Boverflow%3Dhidden%3BfillColor%3Dnone%3Btop%3D0%3Bleft%3D0%3Bbottom%3D0%3Bright%3D0%3BpointerEvents%3D1%3BfontSize%3D16%3B%22%20vertex%3D%221%22%20parent%3D%2213%22%3E%3CmxGeometry%20width%3D%228%22%20height%3D%227%22%20as%3D%22geometry%22%3E%3CmxRectangle%20width%3D%228%22%20height%3D%227%22%20as%3D%22alternateBounds%22%2F%3E%3C%2FmxGeometry%3E%3C%2FmxCell%3E%3CmxCell%20id%3D%2215%22%20value%3D%22%22%20style%3D%22shape%3DpartialRectangle%3Bhtml%3D1%3BwhiteSpace%3Dwrap%3Bconnectable%3D0%3BstrokeColor%3Dinherit%3Boverflow%3Dhidden%3BfillColor%3Dnone%3Btop%3D0%3Bleft%3D0%3Bbottom%3D0%3Bright%3D0%3BpointerEvents%3D1%3BfontSize%3D16%3B%22%20vertex%3D%221%22%20parent%3D%2213%22%3E%3CmxGeometry%20x%3D%228%22%20width%3D%227%22%20height%3D%227%22%20as%3D%22geometry%22%3E%3CmxRectangle%20width%3D%227%22%20height%3D%227%22%20as%3D%22alternateBounds%22%2F%3E%3C%2FmxGeometry%3E%3C%2FmxCell%3E%3CmxCell%20id%3D%2216%22%20value%3D%22%22%20style%3D%22shape%3DpartialRectangle%3Bhtml%3D1%3BwhiteSpace%3Dwrap%3Bconnectable%3D0%3BstrokeColor%3Dinherit%3Boverflow%3Dhidden%3BfillColor%3Dnone%3Btop%3D0%3Bleft%3D0%3Bbottom%3D0%3Bright%3D0%3BpointerEvents%3D1%3BfontSize%3D16%3B%22%20vertex%3D%221%22%20parent%3D%2213%22%3E%3CmxGeometry%20x%3D%2215%22%20width%3D%228%22%20height%3D%227%22%20as%3D%22geometry%22%3E%3CmxRectangle%20width%3D%228%22%20height%3D%227%22%20as%3D%22alternateBounds%22%2F%3E%3C%2FmxGeometry%3E%3C%2FmxCell%3E%3CmxCell%20id%3D%2217%22%20style%3D%22shape%3DpartialRectangle%3Bhtml%3D1%3BwhiteSpace%3Dwrap%3Bconnectable%3D0%3BstrokeColor%3Dinherit%3Boverflow%3Dhidden%3BfillColor%3Dnone%3Btop%3D0%3Bleft%3D0%3Bbottom%3D0%3Bright%3D0%3BpointerEvents%3D1%3BfontSize%3D16%3B%22%20vertex%3D%221%22%20parent%3D%2213%22%3E%3CmxGeometry%20x%3D%2223%22%20width%3D%227%22%20height%3D%227%22%20as%3D%22geometry%22%3E%3CmxRectangle%20width%3D%227%22%20height%3D%227%22%20as%3D%22alternateBounds%22%2F%3E%3C%2FmxGeometry%3E%3C%2FmxCell%3E%3CmxCell%20id%3D%2218%22%20value%3D%22%22%20style%3D%22shape%3DtableRow%3Bhorizontal%3D0%3BstartSize%3D0%3BswimlaneHead%3D0%3BswimlaneBody%3D0%3BstrokeColor%3Dinherit%3Btop%3D0%3Bleft%3D0%3Bbottom%3D0%3Bright%3D0%3Bcollapsible%3D0%3BdropTarget%3D0%3BfillColor%3Dnone%3Bpoints%3D%5B%5B0%2C0.5%5D%2C%5B1%2C0.5%5D%5D%3BportConstraint%3Deastwest%3BfontSize%3D16%3B%22%20vertex%3D%221%22%20parent%3D%222%22%3E%3CmxGeometry%20y%3D%2221%22%20width%3D%2230%22%20height%3D%227%22%20as%3D%22geometry%22%2F%3E%3C%2FmxCell%3E%3CmxCell%20id%3D%2219%22%20value%3D%22%22%20style%3D%22shape%3DpartialRectangle%3Bhtml%3D1%3BwhiteSpace%3Dwrap%3Bconnectable%3D0%3BstrokeColor%3Dinherit%3Boverflow%3Dhidden%3BfillColor%3Dnone%3Btop%3D0%3Bleft%3D0%3Bbottom%3D0%3Bright%3D0%3BpointerEvents%3D1%3BfontSize%3D16%3B%22%20vertex%3D%221%22%20parent%3D%2218%22%3E%3CmxGeometry%20width%3D%228%22%20height%3D%227%22%20as%3D%22geometry%22%3E%3CmxRectangle%20width%3D%228%22%20height%3D%227%22%20as%3D%22alternateBounds%22%2F%3E%3C%2FmxGeometry%3E%3C%2FmxCell%3E%3CmxCell%20id%3D%2220%22%20value%3D%22%22%20style%3D%22shape%3DpartialRectangle%3Bhtml%3D1%3BwhiteSpace%3Dwrap%3Bconnectable%3D0%3BstrokeColor%3Dinherit%3Boverflow%3Dhidden%3BfillColor%3Dnone%3Btop%3D0%3Bleft%3D0%3Bbottom%3D0%3Bright%3D0%3BpointerEvents%3D1%3BfontSize%3D16%3B%22%20vertex%3D%221%22%20parent%3D%2218%22%3E%3CmxGeometry%20x%3D%228%22%20width%3D%227%22%20height%3D%227%22%20as%3D%22geometry%22%3E%3CmxRectangle%20width%3D%227%22%20height%3D%227%22%20as%3D%22alternateBounds%22%2F%3E%3C%2FmxGeometry%3E%3C%2FmxCell%3E%3CmxCell%20id%3D%2221%22%20value%3D%22%22%20style%3D%22shape%3DpartialRectangle%3Bhtml%3D1%3BwhiteSpace%3Dwrap%3Bconnectable%3D0%3BstrokeColor%3Dinherit%3Boverflow%3Dhidden%3BfillColor%3Dnone%3Btop%3D0%3Bleft%3D0%3Bbottom%3D0%3Bright%3D0%3BpointerEvents%3D1%3BfontSize%3D16%3B%22%20vertex%3D%221%22%20parent%3D%2218%22%3E%3CmxGeometry%20x%3D%2215%22%20width%3D%228%22%20height%3D%227%22%20as%3D%22geometry%22%3E%3CmxRectangle%20width%3D%228%22%20height%3D%227%22%20as%3D%22alternateBounds%22%2F%3E%3C%2FmxGeometry%3E%3C%2FmxCell%3E%3CmxCell%20id%3D%2222%22%20style%3D%22shape%3DpartialRectangle%3Bhtml%3D1%3BwhiteSpace%3Dwrap%3Bconnectable%3D0%3BstrokeColor%3Dinherit%3Boverflow%3Dhidden%3BfillColor%3Dnone%3Btop%3D0%3Bleft%3D0%3Bbottom%3D0%3Bright%3D0%3BpointerEvents%3D1%3BfontSize%3D16%3B%22%20vertex%3D%221%22%20parent%3D%2218%22%3E%3CmxGeometry%20x%3D%2223%22%20width%3D%227%22%20height%3D%227%22%20as%3D%22geometry%22%3E%3CmxRectangle%20width%3D%227%22%20height%3D%227%22%20as%3D%22alternateBounds%22%2F%3E%3C%2FmxGeometry%3E%3C%2FmxCell%3E%3C%2Froot%3E%3C%2FmxGraphModel%3E&lt;/span&gt;" style="shape=partialRectangle;html=1;whiteSpace=wrap;connectable=0;strokeColor=inherit;overflow=hidden;fillColor=#5FA9D1;top=0;left=0;bottom=0;right=0;pointerEvents=1;fontSize=16;fontFamily=Times New Roman;" parent="kbOJXT6cfB6z6lRoZ_cL-312" vertex="1">
          <mxGeometry x="9" width="5" height="5" as="geometry">
            <mxRectangle width="5" height="5" as="alternateBounds" />
          </mxGeometry>
        </mxCell>
        <mxCell id="kbOJXT6cfB6z6lRoZ_cL-316" style="shape=partialRectangle;html=1;whiteSpace=wrap;connectable=0;strokeColor=inherit;overflow=hidden;fillColor=#95D4EE;top=0;left=0;bottom=0;right=0;pointerEvents=1;fontSize=16;fontFamily=Times New Roman;" parent="kbOJXT6cfB6z6lRoZ_cL-312" vertex="1">
          <mxGeometry x="14" width="4" height="5" as="geometry">
            <mxRectangle width="4" height="5" as="alternateBounds" />
          </mxGeometry>
        </mxCell>
        <mxCell id="kbOJXT6cfB6z6lRoZ_cL-317" value="" style="shape=tableRow;horizontal=0;startSize=0;swimlaneHead=0;swimlaneBody=0;strokeColor=inherit;top=0;left=0;bottom=0;right=0;collapsible=0;dropTarget=0;fillColor=none;points=[[0,0.5],[1,0.5]];portConstraint=eastwest;fontSize=16;fontFamily=Times New Roman;" parent="kbOJXT6cfB6z6lRoZ_cL-301" vertex="1">
          <mxGeometry y="14" width="17.787709497206702" height="4" as="geometry" />
        </mxCell>
        <mxCell id="kbOJXT6cfB6z6lRoZ_cL-318" value="" style="shape=partialRectangle;html=1;whiteSpace=wrap;connectable=0;strokeColor=inherit;overflow=hidden;fillColor=#C8EBF6;top=0;left=0;bottom=0;right=0;pointerEvents=1;fontSize=16;fontFamily=Times New Roman;" parent="kbOJXT6cfB6z6lRoZ_cL-317" vertex="1">
          <mxGeometry width="4" height="4" as="geometry">
            <mxRectangle width="4" height="4" as="alternateBounds" />
          </mxGeometry>
        </mxCell>
        <mxCell id="kbOJXT6cfB6z6lRoZ_cL-319" value="" style="shape=partialRectangle;html=1;whiteSpace=wrap;connectable=0;strokeColor=inherit;overflow=hidden;fillColor=#154778;top=0;left=0;bottom=0;right=0;pointerEvents=1;fontSize=16;fontFamily=Times New Roman;" parent="kbOJXT6cfB6z6lRoZ_cL-317" vertex="1">
          <mxGeometry x="4" width="5" height="4" as="geometry">
            <mxRectangle width="5" height="4" as="alternateBounds" />
          </mxGeometry>
        </mxCell>
        <mxCell id="kbOJXT6cfB6z6lRoZ_cL-320" value="" style="shape=partialRectangle;html=1;whiteSpace=wrap;connectable=0;strokeColor=inherit;overflow=hidden;fillColor=#C8EBF6;top=0;left=0;bottom=0;right=0;pointerEvents=1;fontSize=16;fontFamily=Times New Roman;" parent="kbOJXT6cfB6z6lRoZ_cL-317" vertex="1">
          <mxGeometry x="9" width="5" height="4" as="geometry">
            <mxRectangle width="5" height="4" as="alternateBounds" />
          </mxGeometry>
        </mxCell>
        <mxCell id="kbOJXT6cfB6z6lRoZ_cL-321" style="shape=partialRectangle;html=1;whiteSpace=wrap;connectable=0;strokeColor=inherit;overflow=hidden;fillColor=#397AAA;top=0;left=0;bottom=0;right=0;pointerEvents=1;fontSize=16;fontFamily=Times New Roman;" parent="kbOJXT6cfB6z6lRoZ_cL-317" vertex="1">
          <mxGeometry x="14" width="4" height="4" as="geometry">
            <mxRectangle width="4" height="4" as="alternateBounds" />
          </mxGeometry>
        </mxCell>
        <mxCell id="kbOJXT6cfB6z6lRoZ_cL-322" value="" style="shape=table;startSize=0;container=1;collapsible=0;childLayout=tableLayout;fontSize=16;gradientColor=none;gradientDirection=north;fillColor=none;fontFamily=Times New Roman;strokeColor=none;" parent="Dc8xoGKeF29MCSsuU2qs-2" vertex="1">
          <mxGeometry x="71.25089385474864" y="110.00862283933127" width="17.787709497206702" height="17.788155284783222" as="geometry" />
        </mxCell>
        <mxCell id="kbOJXT6cfB6z6lRoZ_cL-323" style="shape=tableRow;horizontal=0;startSize=0;swimlaneHead=0;swimlaneBody=0;strokeColor=inherit;top=0;left=0;bottom=0;right=0;collapsible=0;dropTarget=0;fillColor=none;points=[[0,0.5],[1,0.5]];portConstraint=eastwest;fontSize=16;fontFamily=Times New Roman;" parent="kbOJXT6cfB6z6lRoZ_cL-322" vertex="1">
          <mxGeometry width="17.787709497206702" height="4" as="geometry" />
        </mxCell>
        <mxCell id="kbOJXT6cfB6z6lRoZ_cL-324" style="shape=partialRectangle;html=1;whiteSpace=wrap;connectable=0;strokeColor=inherit;overflow=hidden;fillColor=#FBD18B;top=0;left=0;bottom=0;right=0;pointerEvents=1;fontSize=16;fontFamily=Times New Roman;" parent="kbOJXT6cfB6z6lRoZ_cL-323" vertex="1">
          <mxGeometry width="4" height="4" as="geometry">
            <mxRectangle width="4" height="4" as="alternateBounds" />
          </mxGeometry>
        </mxCell>
        <mxCell id="kbOJXT6cfB6z6lRoZ_cL-325" style="shape=partialRectangle;html=1;whiteSpace=wrap;connectable=0;strokeColor=inherit;overflow=hidden;fillColor=#F7A049;top=0;left=0;bottom=0;right=0;pointerEvents=1;fontSize=16;fontFamily=Times New Roman;" parent="kbOJXT6cfB6z6lRoZ_cL-323" vertex="1">
          <mxGeometry x="4" width="5" height="4" as="geometry">
            <mxRectangle width="5" height="4" as="alternateBounds" />
          </mxGeometry>
        </mxCell>
        <mxCell id="kbOJXT6cfB6z6lRoZ_cL-326" style="shape=partialRectangle;html=1;whiteSpace=wrap;connectable=0;strokeColor=inherit;overflow=hidden;fillColor=#FDE4AF;top=0;left=0;bottom=0;right=0;pointerEvents=1;fontSize=16;fontFamily=Times New Roman;" parent="kbOJXT6cfB6z6lRoZ_cL-323" vertex="1">
          <mxGeometry x="9" width="5" height="4" as="geometry">
            <mxRectangle width="5" height="4" as="alternateBounds" />
          </mxGeometry>
        </mxCell>
        <mxCell id="kbOJXT6cfB6z6lRoZ_cL-327" style="shape=partialRectangle;html=1;whiteSpace=wrap;connectable=0;strokeColor=inherit;overflow=hidden;fillColor=#F9BD6F;top=0;left=0;bottom=0;right=0;pointerEvents=1;fontSize=16;fontFamily=Times New Roman;" parent="kbOJXT6cfB6z6lRoZ_cL-323" vertex="1">
          <mxGeometry x="14" width="4" height="4" as="geometry">
            <mxRectangle width="4" height="4" as="alternateBounds" />
          </mxGeometry>
        </mxCell>
        <mxCell id="kbOJXT6cfB6z6lRoZ_cL-328" value="" style="shape=tableRow;horizontal=0;startSize=0;swimlaneHead=0;swimlaneBody=0;strokeColor=inherit;top=0;left=0;bottom=0;right=0;collapsible=0;dropTarget=0;fillColor=none;points=[[0,0.5],[1,0.5]];portConstraint=eastwest;fontSize=16;fontFamily=Times New Roman;" parent="kbOJXT6cfB6z6lRoZ_cL-322" vertex="1">
          <mxGeometry y="4" width="17.787709497206702" height="5" as="geometry" />
        </mxCell>
        <mxCell id="kbOJXT6cfB6z6lRoZ_cL-329" value="" style="shape=partialRectangle;html=1;whiteSpace=wrap;connectable=0;strokeColor=inherit;overflow=hidden;fillColor=#FEF2D6;top=0;left=0;bottom=0;right=0;pointerEvents=1;fontSize=16;fontFamily=Times New Roman;" parent="kbOJXT6cfB6z6lRoZ_cL-328" vertex="1">
          <mxGeometry width="4" height="5" as="geometry">
            <mxRectangle width="4" height="5" as="alternateBounds" />
          </mxGeometry>
        </mxCell>
        <mxCell id="kbOJXT6cfB6z6lRoZ_cL-330" value="" style="shape=partialRectangle;html=1;whiteSpace=wrap;connectable=0;strokeColor=inherit;overflow=hidden;fillColor=#FBD18B;top=0;left=0;bottom=0;right=0;pointerEvents=1;fontSize=16;fontFamily=Times New Roman;" parent="kbOJXT6cfB6z6lRoZ_cL-328" vertex="1">
          <mxGeometry x="4" width="5" height="5" as="geometry">
            <mxRectangle width="5" height="5" as="alternateBounds" />
          </mxGeometry>
        </mxCell>
        <mxCell id="kbOJXT6cfB6z6lRoZ_cL-331" value="a9cfcb" style="shape=partialRectangle;html=1;whiteSpace=wrap;connectable=0;strokeColor=inherit;overflow=hidden;fillColor=#F9BD6F;top=0;left=0;bottom=0;right=0;pointerEvents=1;fontSize=16;fontFamily=Times New Roman;" parent="kbOJXT6cfB6z6lRoZ_cL-328" vertex="1">
          <mxGeometry x="9" width="5" height="5" as="geometry">
            <mxRectangle width="5" height="5" as="alternateBounds" />
          </mxGeometry>
        </mxCell>
        <mxCell id="kbOJXT6cfB6z6lRoZ_cL-332" value="FEF2D6" style="shape=partialRectangle;html=1;whiteSpace=wrap;connectable=0;strokeColor=inherit;overflow=hidden;fillColor=#FEF2D6;top=0;left=0;bottom=0;right=0;pointerEvents=1;fontSize=16;fontFamily=Times New Roman;" parent="kbOJXT6cfB6z6lRoZ_cL-328" vertex="1">
          <mxGeometry x="14" width="4" height="5" as="geometry">
            <mxRectangle width="4" height="5" as="alternateBounds" />
          </mxGeometry>
        </mxCell>
        <mxCell id="kbOJXT6cfB6z6lRoZ_cL-333" value="" style="shape=tableRow;horizontal=0;startSize=0;swimlaneHead=0;swimlaneBody=0;strokeColor=inherit;top=0;left=0;bottom=0;right=0;collapsible=0;dropTarget=0;fillColor=none;points=[[0,0.5],[1,0.5]];portConstraint=eastwest;fontSize=16;fontFamily=Times New Roman;" parent="kbOJXT6cfB6z6lRoZ_cL-322" vertex="1">
          <mxGeometry y="9" width="17.787709497206702" height="5" as="geometry" />
        </mxCell>
        <mxCell id="kbOJXT6cfB6z6lRoZ_cL-334" value="" style="shape=partialRectangle;html=1;whiteSpace=wrap;connectable=0;strokeColor=inherit;overflow=hidden;fillColor=#F7A049;top=0;left=0;bottom=0;right=0;pointerEvents=1;fontSize=16;fontFamily=Times New Roman;" parent="kbOJXT6cfB6z6lRoZ_cL-333" vertex="1">
          <mxGeometry width="4" height="5" as="geometry">
            <mxRectangle width="4" height="5" as="alternateBounds" />
          </mxGeometry>
        </mxCell>
        <mxCell id="kbOJXT6cfB6z6lRoZ_cL-335" value="" style="shape=partialRectangle;html=1;whiteSpace=wrap;connectable=0;strokeColor=inherit;overflow=hidden;fillColor=#FDE4AF;top=0;left=0;bottom=0;right=0;pointerEvents=1;fontSize=16;fontFamily=Times New Roman;" parent="kbOJXT6cfB6z6lRoZ_cL-333" vertex="1">
          <mxGeometry x="4" width="5" height="5" as="geometry">
            <mxRectangle width="5" height="5" as="alternateBounds" />
          </mxGeometry>
        </mxCell>
        <mxCell id="kbOJXT6cfB6z6lRoZ_cL-336" value="&lt;span style=&quot;color: rgba(0, 0, 0, 0); font-size: 0px; text-align: start; text-wrap-mode: nowrap;&quot;&gt;%3CmxGraphModel%3E%3Croot%3E%3CmxCell%20id%3D%220%22%2F%3E%3CmxCell%20id%3D%221%22%20parent%3D%220%22%2F%3E%3CmxCell%20id%3D%222%22%20value%3D%22%22%20style%3D%22shape%3Dtable%3BstartSize%3D0%3Bcontainer%3D1%3Bcollapsible%3D0%3BchildLayout%3DtableLayout%3BfontSize%3D16%3BgradientColor%3D%23808080%3BgradientDirection%3Dnorth%3B%22%20vertex%3D%221%22%20parent%3D%221%22%3E%3CmxGeometry%20x%3D%22458%22%20y%3D%22158%22%20width%3D%2230%22%20height%3D%2228%22%20as%3D%22geometry%22%2F%3E%3C%2FmxCell%3E%3CmxCell%20id%3D%223%22%20style%3D%22shape%3DtableRow%3Bhorizontal%3D0%3BstartSize%3D0%3BswimlaneHead%3D0%3BswimlaneBody%3D0%3BstrokeColor%3Dinherit%3Btop%3D0%3Bleft%3D0%3Bbottom%3D0%3Bright%3D0%3Bcollapsible%3D0%3BdropTarget%3D0%3BfillColor%3Dnone%3Bpoints%3D%5B%5B0%2C0.5%5D%2C%5B1%2C0.5%5D%5D%3BportConstraint%3Deastwest%3BfontSize%3D16%3B%22%20vertex%3D%221%22%20parent%3D%222%22%3E%3CmxGeometry%20width%3D%2230%22%20height%3D%227%22%20as%3D%22geometry%22%2F%3E%3C%2FmxCell%3E%3CmxCell%20id%3D%224%22%20style%3D%22shape%3DpartialRectangle%3Bhtml%3D1%3BwhiteSpace%3Dwrap%3Bconnectable%3D0%3BstrokeColor%3Dinherit%3Boverflow%3Dhidden%3BfillColor%3Dnone%3Btop%3D0%3Bleft%3D0%3Bbottom%3D0%3Bright%3D0%3BpointerEvents%3D1%3BfontSize%3D16%3B%22%20vertex%3D%221%22%20parent%3D%223%22%3E%3CmxGeometry%20width%3D%228%22%20height%3D%227%22%20as%3D%22geometry%22%3E%3CmxRectangle%20width%3D%228%22%20height%3D%227%22%20as%3D%22alternateBounds%22%2F%3E%3C%2FmxGeometry%3E%3C%2FmxCell%3E%3CmxCell%20id%3D%225%22%20style%3D%22shape%3DpartialRectangle%3Bhtml%3D1%3BwhiteSpace%3Dwrap%3Bconnectable%3D0%3BstrokeColor%3Dinherit%3Boverflow%3Dhidden%3BfillColor%3Dnone%3Btop%3D0%3Bleft%3D0%3Bbottom%3D0%3Bright%3D0%3BpointerEvents%3D1%3BfontSize%3D16%3B%22%20vertex%3D%221%22%20parent%3D%223%22%3E%3CmxGeometry%20x%3D%228%22%20width%3D%227%22%20height%3D%227%22%20as%3D%22geometry%22%3E%3CmxRectangle%20width%3D%227%22%20height%3D%227%22%20as%3D%22alternateBounds%22%2F%3E%3C%2FmxGeometry%3E%3C%2FmxCell%3E%3CmxCell%20id%3D%226%22%20style%3D%22shape%3DpartialRectangle%3Bhtml%3D1%3BwhiteSpace%3Dwrap%3Bconnectable%3D0%3BstrokeColor%3Dinherit%3Boverflow%3Dhidden%3BfillColor%3Dnone%3Btop%3D0%3Bleft%3D0%3Bbottom%3D0%3Bright%3D0%3BpointerEvents%3D1%3BfontSize%3D16%3B%22%20vertex%3D%221%22%20parent%3D%223%22%3E%3CmxGeometry%20x%3D%2215%22%20width%3D%228%22%20height%3D%227%22%20as%3D%22geometry%22%3E%3CmxRectangle%20width%3D%228%22%20height%3D%227%22%20as%3D%22alternateBounds%22%2F%3E%3C%2FmxGeometry%3E%3C%2FmxCell%3E%3CmxCell%20id%3D%227%22%20style%3D%22shape%3DpartialRectangle%3Bhtml%3D1%3BwhiteSpace%3Dwrap%3Bconnectable%3D0%3BstrokeColor%3Dinherit%3Boverflow%3Dhidden%3BfillColor%3Dnone%3Btop%3D0%3Bleft%3D0%3Bbottom%3D0%3Bright%3D0%3BpointerEvents%3D1%3BfontSize%3D16%3B%22%20vertex%3D%221%22%20parent%3D%223%22%3E%3CmxGeometry%20x%3D%2223%22%20width%3D%227%22%20height%3D%227%22%20as%3D%22geometry%22%3E%3CmxRectangle%20width%3D%227%22%20height%3D%227%22%20as%3D%22alternateBounds%22%2F%3E%3C%2FmxGeometry%3E%3C%2FmxCell%3E%3CmxCell%20id%3D%228%22%20value%3D%22%22%20style%3D%22shape%3DtableRow%3Bhorizontal%3D0%3BstartSize%3D0%3BswimlaneHead%3D0%3BswimlaneBody%3D0%3BstrokeColor%3Dinherit%3Btop%3D0%3Bleft%3D0%3Bbottom%3D0%3Bright%3D0%3Bcollapsible%3D0%3BdropTarget%3D0%3BfillColor%3Dnone%3Bpoints%3D%5B%5B0%2C0.5%5D%2C%5B1%2C0.5%5D%5D%3BportConstraint%3Deastwest%3BfontSize%3D16%3B%22%20vertex%3D%221%22%20parent%3D%222%22%3E%3CmxGeometry%20y%3D%227%22%20width%3D%2230%22%20height%3D%227%22%20as%3D%22geometry%22%2F%3E%3C%2FmxCell%3E%3CmxCell%20id%3D%229%22%20value%3D%22%22%20style%3D%22shape%3DpartialRectangle%3Bhtml%3D1%3BwhiteSpace%3Dwrap%3Bconnectable%3D0%3BstrokeColor%3Dinherit%3Boverflow%3Dhidden%3BfillColor%3Dnone%3Btop%3D0%3Bleft%3D0%3Bbottom%3D0%3Bright%3D0%3BpointerEvents%3D1%3BfontSize%3D16%3B%22%20vertex%3D%221%22%20parent%3D%228%22%3E%3CmxGeometry%20width%3D%228%22%20height%3D%227%22%20as%3D%22geometry%22%3E%3CmxRectangle%20width%3D%228%22%20height%3D%227%22%20as%3D%22alternateBounds%22%2F%3E%3C%2FmxGeometry%3E%3C%2FmxCell%3E%3CmxCell%20id%3D%2210%22%20value%3D%22%22%20style%3D%22shape%3DpartialRectangle%3Bhtml%3D1%3BwhiteSpace%3Dwrap%3Bconnectable%3D0%3BstrokeColor%3Dinherit%3Boverflow%3Dhidden%3BfillColor%3Dnone%3Btop%3D0%3Bleft%3D0%3Bbottom%3D0%3Bright%3D0%3BpointerEvents%3D1%3BfontSize%3D16%3B%22%20vertex%3D%221%22%20parent%3D%228%22%3E%3CmxGeometry%20x%3D%228%22%20width%3D%227%22%20height%3D%227%22%20as%3D%22geometry%22%3E%3CmxRectangle%20width%3D%227%22%20height%3D%227%22%20as%3D%22alternateBounds%22%2F%3E%3C%2FmxGeometry%3E%3C%2FmxCell%3E%3CmxCell%20id%3D%2211%22%20value%3D%22%22%20style%3D%22shape%3DpartialRectangle%3Bhtml%3D1%3BwhiteSpace%3Dwrap%3Bconnectable%3D0%3BstrokeColor%3Dinherit%3Boverflow%3Dhidden%3BfillColor%3Dnone%3Btop%3D0%3Bleft%3D0%3Bbottom%3D0%3Bright%3D0%3BpointerEvents%3D1%3BfontSize%3D16%3B%22%20vertex%3D%221%22%20parent%3D%228%22%3E%3CmxGeometry%20x%3D%2215%22%20width%3D%228%22%20height%3D%227%22%20as%3D%22geometry%22%3E%3CmxRectangle%20width%3D%228%22%20height%3D%227%22%20as%3D%22alternateBounds%22%2F%3E%3C%2FmxGeometry%3E%3C%2FmxCell%3E%3CmxCell%20id%3D%2212%22%20style%3D%22shape%3DpartialRectangle%3Bhtml%3D1%3BwhiteSpace%3Dwrap%3Bconnectable%3D0%3BstrokeColor%3Dinherit%3Boverflow%3Dhidden%3BfillColor%3Dnone%3Btop%3D0%3Bleft%3D0%3Bbottom%3D0%3Bright%3D0%3BpointerEvents%3D1%3BfontSize%3D16%3B%22%20vertex%3D%221%22%20parent%3D%228%22%3E%3CmxGeometry%20x%3D%2223%22%20width%3D%227%22%20height%3D%227%22%20as%3D%22geometry%22%3E%3CmxRectangle%20width%3D%227%22%20height%3D%227%22%20as%3D%22alternateBounds%22%2F%3E%3C%2FmxGeometry%3E%3C%2FmxCell%3E%3CmxCell%20id%3D%2213%22%20value%3D%22%22%20style%3D%22shape%3DtableRow%3Bhorizontal%3D0%3BstartSize%3D0%3BswimlaneHead%3D0%3BswimlaneBody%3D0%3BstrokeColor%3Dinherit%3Btop%3D0%3Bleft%3D0%3Bbottom%3D0%3Bright%3D0%3Bcollapsible%3D0%3BdropTarget%3D0%3BfillColor%3Dnone%3Bpoints%3D%5B%5B0%2C0.5%5D%2C%5B1%2C0.5%5D%5D%3BportConstraint%3Deastwest%3BfontSize%3D16%3B%22%20vertex%3D%221%22%20parent%3D%222%22%3E%3CmxGeometry%20y%3D%2214%22%20width%3D%2230%22%20height%3D%227%22%20as%3D%22geometry%22%2F%3E%3C%2FmxCell%3E%3CmxCell%20id%3D%2214%22%20value%3D%22%22%20style%3D%22shape%3DpartialRectangle%3Bhtml%3D1%3BwhiteSpace%3Dwrap%3Bconnectable%3D0%3BstrokeColor%3Dinherit%3Boverflow%3Dhidden%3BfillColor%3Dnone%3Btop%3D0%3Bleft%3D0%3Bbottom%3D0%3Bright%3D0%3BpointerEvents%3D1%3BfontSize%3D16%3B%22%20vertex%3D%221%22%20parent%3D%2213%22%3E%3CmxGeometry%20width%3D%228%22%20height%3D%227%22%20as%3D%22geometry%22%3E%3CmxRectangle%20width%3D%228%22%20height%3D%227%22%20as%3D%22alternateBounds%22%2F%3E%3C%2FmxGeometry%3E%3C%2FmxCell%3E%3CmxCell%20id%3D%2215%22%20value%3D%22%22%20style%3D%22shape%3DpartialRectangle%3Bhtml%3D1%3BwhiteSpace%3Dwrap%3Bconnectable%3D0%3BstrokeColor%3Dinherit%3Boverflow%3Dhidden%3BfillColor%3Dnone%3Btop%3D0%3Bleft%3D0%3Bbottom%3D0%3Bright%3D0%3BpointerEvents%3D1%3BfontSize%3D16%3B%22%20vertex%3D%221%22%20parent%3D%2213%22%3E%3CmxGeometry%20x%3D%228%22%20width%3D%227%22%20height%3D%227%22%20as%3D%22geometry%22%3E%3CmxRectangle%20width%3D%227%22%20height%3D%227%22%20as%3D%22alternateBounds%22%2F%3E%3C%2FmxGeometry%3E%3C%2FmxCell%3E%3CmxCell%20id%3D%2216%22%20value%3D%22%22%20style%3D%22shape%3DpartialRectangle%3Bhtml%3D1%3BwhiteSpace%3Dwrap%3Bconnectable%3D0%3BstrokeColor%3Dinherit%3Boverflow%3Dhidden%3BfillColor%3Dnone%3Btop%3D0%3Bleft%3D0%3Bbottom%3D0%3Bright%3D0%3BpointerEvents%3D1%3BfontSize%3D16%3B%22%20vertex%3D%221%22%20parent%3D%2213%22%3E%3CmxGeometry%20x%3D%2215%22%20width%3D%228%22%20height%3D%227%22%20as%3D%22geometry%22%3E%3CmxRectangle%20width%3D%228%22%20height%3D%227%22%20as%3D%22alternateBounds%22%2F%3E%3C%2FmxGeometry%3E%3C%2FmxCell%3E%3CmxCell%20id%3D%2217%22%20style%3D%22shape%3DpartialRectangle%3Bhtml%3D1%3BwhiteSpace%3Dwrap%3Bconnectable%3D0%3BstrokeColor%3Dinherit%3Boverflow%3Dhidden%3BfillColor%3Dnone%3Btop%3D0%3Bleft%3D0%3Bbottom%3D0%3Bright%3D0%3BpointerEvents%3D1%3BfontSize%3D16%3B%22%20vertex%3D%221%22%20parent%3D%2213%22%3E%3CmxGeometry%20x%3D%2223%22%20width%3D%227%22%20height%3D%227%22%20as%3D%22geometry%22%3E%3CmxRectangle%20width%3D%227%22%20height%3D%227%22%20as%3D%22alternateBounds%22%2F%3E%3C%2FmxGeometry%3E%3C%2FmxCell%3E%3CmxCell%20id%3D%2218%22%20value%3D%22%22%20style%3D%22shape%3DtableRow%3Bhorizontal%3D0%3BstartSize%3D0%3BswimlaneHead%3D0%3BswimlaneBody%3D0%3BstrokeColor%3Dinherit%3Btop%3D0%3Bleft%3D0%3Bbottom%3D0%3Bright%3D0%3Bcollapsible%3D0%3BdropTarget%3D0%3BfillColor%3Dnone%3Bpoints%3D%5B%5B0%2C0.5%5D%2C%5B1%2C0.5%5D%5D%3BportConstraint%3Deastwest%3BfontSize%3D16%3B%22%20vertex%3D%221%22%20parent%3D%222%22%3E%3CmxGeometry%20y%3D%2221%22%20width%3D%2230%22%20height%3D%227%22%20as%3D%22geometry%22%2F%3E%3C%2FmxCell%3E%3CmxCell%20id%3D%2219%22%20value%3D%22%22%20style%3D%22shape%3DpartialRectangle%3Bhtml%3D1%3BwhiteSpace%3Dwrap%3Bconnectable%3D0%3BstrokeColor%3Dinherit%3Boverflow%3Dhidden%3BfillColor%3Dnone%3Btop%3D0%3Bleft%3D0%3Bbottom%3D0%3Bright%3D0%3BpointerEvents%3D1%3BfontSize%3D16%3B%22%20vertex%3D%221%22%20parent%3D%2218%22%3E%3CmxGeometry%20width%3D%228%22%20height%3D%227%22%20as%3D%22geometry%22%3E%3CmxRectangle%20width%3D%228%22%20height%3D%227%22%20as%3D%22alternateBounds%22%2F%3E%3C%2FmxGeometry%3E%3C%2FmxCell%3E%3CmxCell%20id%3D%2220%22%20value%3D%22%22%20style%3D%22shape%3DpartialRectangle%3Bhtml%3D1%3BwhiteSpace%3Dwrap%3Bconnectable%3D0%3BstrokeColor%3Dinherit%3Boverflow%3Dhidden%3BfillColor%3Dnone%3Btop%3D0%3Bleft%3D0%3Bbottom%3D0%3Bright%3D0%3BpointerEvents%3D1%3BfontSize%3D16%3B%22%20vertex%3D%221%22%20parent%3D%2218%22%3E%3CmxGeometry%20x%3D%228%22%20width%3D%227%22%20height%3D%227%22%20as%3D%22geometry%22%3E%3CmxRectangle%20width%3D%227%22%20height%3D%227%22%20as%3D%22alternateBounds%22%2F%3E%3C%2FmxGeometry%3E%3C%2FmxCell%3E%3CmxCell%20id%3D%2221%22%20value%3D%22%22%20style%3D%22shape%3DpartialRectangle%3Bhtml%3D1%3BwhiteSpace%3Dwrap%3Bconnectable%3D0%3BstrokeColor%3Dinherit%3Boverflow%3Dhidden%3BfillColor%3Dnone%3Btop%3D0%3Bleft%3D0%3Bbottom%3D0%3Bright%3D0%3BpointerEvents%3D1%3BfontSize%3D16%3B%22%20vertex%3D%221%22%20parent%3D%2218%22%3E%3CmxGeometry%20x%3D%2215%22%20width%3D%228%22%20height%3D%227%22%20as%3D%22geometry%22%3E%3CmxRectangle%20width%3D%228%22%20height%3D%227%22%20as%3D%22alternateBounds%22%2F%3E%3C%2FmxGeometry%3E%3C%2FmxCell%3E%3CmxCell%20id%3D%2222%22%20style%3D%22shape%3DpartialRectangle%3Bhtml%3D1%3BwhiteSpace%3Dwrap%3Bconnectable%3D0%3BstrokeColor%3Dinherit%3Boverflow%3Dhidden%3BfillColor%3Dnone%3Btop%3D0%3Bleft%3D0%3Bbottom%3D0%3Bright%3D0%3BpointerEvents%3D1%3BfontSize%3D16%3B%22%20vertex%3D%221%22%20parent%3D%2218%22%3E%3CmxGeometry%20x%3D%2223%22%20width%3D%227%22%20height%3D%227%22%20as%3D%22geometry%22%3E%3CmxRectangle%20width%3D%227%22%20height%3D%227%22%20as%3D%22alternateBounds%22%2F%3E%3C%2FmxGeometry%3E%3C%2FmxCell%3E%3C%2Froot%3E%3C%2FmxGraphModel%3E&lt;/span&gt;" style="shape=partialRectangle;html=1;whiteSpace=wrap;connectable=0;strokeColor=inherit;overflow=hidden;fillColor=#FEF2D6;top=0;left=0;bottom=0;right=0;pointerEvents=1;fontSize=16;fontFamily=Times New Roman;" parent="kbOJXT6cfB6z6lRoZ_cL-333" vertex="1">
          <mxGeometry x="9" width="5" height="5" as="geometry">
            <mxRectangle width="5" height="5" as="alternateBounds" />
          </mxGeometry>
        </mxCell>
        <mxCell id="kbOJXT6cfB6z6lRoZ_cL-337" style="shape=partialRectangle;html=1;whiteSpace=wrap;connectable=0;strokeColor=inherit;overflow=hidden;fillColor=#F7A049;top=0;left=0;bottom=0;right=0;pointerEvents=1;fontSize=16;fontFamily=Times New Roman;" parent="kbOJXT6cfB6z6lRoZ_cL-333" vertex="1">
          <mxGeometry x="14" width="4" height="5" as="geometry">
            <mxRectangle width="4" height="5" as="alternateBounds" />
          </mxGeometry>
        </mxCell>
        <mxCell id="kbOJXT6cfB6z6lRoZ_cL-338" value="" style="shape=tableRow;horizontal=0;startSize=0;swimlaneHead=0;swimlaneBody=0;strokeColor=inherit;top=0;left=0;bottom=0;right=0;collapsible=0;dropTarget=0;fillColor=none;points=[[0,0.5],[1,0.5]];portConstraint=eastwest;fontSize=16;fontFamily=Times New Roman;" parent="kbOJXT6cfB6z6lRoZ_cL-322" vertex="1">
          <mxGeometry y="14" width="17.787709497206702" height="4" as="geometry" />
        </mxCell>
        <mxCell id="kbOJXT6cfB6z6lRoZ_cL-339" value="" style="shape=partialRectangle;html=1;whiteSpace=wrap;connectable=0;strokeColor=inherit;overflow=hidden;fillColor=#FEF2D6;top=0;left=0;bottom=0;right=0;pointerEvents=1;fontSize=16;fontFamily=Times New Roman;" parent="kbOJXT6cfB6z6lRoZ_cL-338" vertex="1">
          <mxGeometry width="4" height="4" as="geometry">
            <mxRectangle width="4" height="4" as="alternateBounds" />
          </mxGeometry>
        </mxCell>
        <mxCell id="kbOJXT6cfB6z6lRoZ_cL-340" value="" style="shape=partialRectangle;html=1;whiteSpace=wrap;connectable=0;strokeColor=inherit;overflow=hidden;fillColor=#F9BD6F;top=0;left=0;bottom=0;right=0;pointerEvents=1;fontSize=16;fontFamily=Times New Roman;" parent="kbOJXT6cfB6z6lRoZ_cL-338" vertex="1">
          <mxGeometry x="4" width="5" height="4" as="geometry">
            <mxRectangle width="5" height="4" as="alternateBounds" />
          </mxGeometry>
        </mxCell>
        <mxCell id="kbOJXT6cfB6z6lRoZ_cL-341" value="" style="shape=partialRectangle;html=1;whiteSpace=wrap;connectable=0;strokeColor=inherit;overflow=hidden;fillColor=#FDE4AF;top=0;left=0;bottom=0;right=0;pointerEvents=1;fontSize=16;fontFamily=Times New Roman;" parent="kbOJXT6cfB6z6lRoZ_cL-338" vertex="1">
          <mxGeometry x="9" width="5" height="4" as="geometry">
            <mxRectangle width="5" height="4" as="alternateBounds" />
          </mxGeometry>
        </mxCell>
        <mxCell id="kbOJXT6cfB6z6lRoZ_cL-342" style="shape=partialRectangle;html=1;whiteSpace=wrap;connectable=0;strokeColor=inherit;overflow=hidden;fillColor=#FBD18B;top=0;left=0;bottom=0;right=0;pointerEvents=1;fontSize=16;fontFamily=Times New Roman;" parent="kbOJXT6cfB6z6lRoZ_cL-338" vertex="1">
          <mxGeometry x="14" width="4" height="4" as="geometry">
            <mxRectangle width="4" height="4" as="alternateBounds" />
          </mxGeometry>
        </mxCell>
        <mxCell id="kbOJXT6cfB6z6lRoZ_cL-343" value="" style="shape=table;startSize=0;container=1;collapsible=0;childLayout=tableLayout;fontSize=16;gradientColor=none;gradientDirection=north;fillColor=none;fontFamily=Times New Roman;strokeColor=none;" parent="Dc8xoGKeF29MCSsuU2qs-2" vertex="1">
          <mxGeometry x="216.687653631285" y="110.00862283933127" width="17.787709497206702" height="17.788155284783222" as="geometry" />
        </mxCell>
        <mxCell id="kbOJXT6cfB6z6lRoZ_cL-344" style="shape=tableRow;horizontal=0;startSize=0;swimlaneHead=0;swimlaneBody=0;strokeColor=inherit;top=0;left=0;bottom=0;right=0;collapsible=0;dropTarget=0;fillColor=none;points=[[0,0.5],[1,0.5]];portConstraint=eastwest;fontSize=16;fontFamily=Times New Roman;" parent="kbOJXT6cfB6z6lRoZ_cL-343" vertex="1">
          <mxGeometry width="17.787709497206702" height="4" as="geometry" />
        </mxCell>
        <mxCell id="kbOJXT6cfB6z6lRoZ_cL-345" style="shape=partialRectangle;html=1;whiteSpace=wrap;connectable=0;strokeColor=inherit;overflow=hidden;fillColor=#E7F7F3;top=0;left=0;bottom=0;right=0;pointerEvents=1;fontSize=16;fontFamily=Times New Roman;" parent="kbOJXT6cfB6z6lRoZ_cL-344" vertex="1">
          <mxGeometry width="4" height="4" as="geometry">
            <mxRectangle width="4" height="4" as="alternateBounds" />
          </mxGeometry>
        </mxCell>
        <mxCell id="kbOJXT6cfB6z6lRoZ_cL-346" style="shape=partialRectangle;html=1;whiteSpace=wrap;connectable=0;strokeColor=inherit;overflow=hidden;fillColor=#425D5F;top=0;left=0;bottom=0;right=0;pointerEvents=1;fontSize=16;fontFamily=Times New Roman;" parent="kbOJXT6cfB6z6lRoZ_cL-344" vertex="1">
          <mxGeometry x="4" width="5" height="4" as="geometry">
            <mxRectangle width="5" height="4" as="alternateBounds" />
          </mxGeometry>
        </mxCell>
        <mxCell id="kbOJXT6cfB6z6lRoZ_cL-347" style="shape=partialRectangle;html=1;whiteSpace=wrap;connectable=0;strokeColor=inherit;overflow=hidden;fillColor=#b1ddf0;top=0;left=0;bottom=0;right=0;pointerEvents=1;fontSize=16;fontFamily=Times New Roman;" parent="kbOJXT6cfB6z6lRoZ_cL-344" vertex="1">
          <mxGeometry x="9" width="5" height="4" as="geometry">
            <mxRectangle width="5" height="4" as="alternateBounds" />
          </mxGeometry>
        </mxCell>
        <mxCell id="kbOJXT6cfB6z6lRoZ_cL-348" style="shape=partialRectangle;html=1;whiteSpace=wrap;connectable=0;strokeColor=inherit;overflow=hidden;fillColor=#E7F7F3;top=0;left=0;bottom=0;right=0;pointerEvents=1;fontSize=16;fontFamily=Times New Roman;" parent="kbOJXT6cfB6z6lRoZ_cL-344" vertex="1">
          <mxGeometry x="14" width="4" height="4" as="geometry">
            <mxRectangle width="4" height="4" as="alternateBounds" />
          </mxGeometry>
        </mxCell>
        <mxCell id="kbOJXT6cfB6z6lRoZ_cL-349" value="" style="shape=tableRow;horizontal=0;startSize=0;swimlaneHead=0;swimlaneBody=0;strokeColor=inherit;top=0;left=0;bottom=0;right=0;collapsible=0;dropTarget=0;fillColor=none;points=[[0,0.5],[1,0.5]];portConstraint=eastwest;fontSize=16;fontFamily=Times New Roman;" parent="kbOJXT6cfB6z6lRoZ_cL-343" vertex="1">
          <mxGeometry y="4" width="17.787709497206702" height="5" as="geometry" />
        </mxCell>
        <mxCell id="kbOJXT6cfB6z6lRoZ_cL-350" value="" style="shape=partialRectangle;html=1;whiteSpace=wrap;connectable=0;strokeColor=inherit;overflow=hidden;fillColor=#b1ddf0;top=0;left=0;bottom=0;right=0;pointerEvents=1;fontSize=16;fontFamily=Times New Roman;" parent="kbOJXT6cfB6z6lRoZ_cL-349" vertex="1">
          <mxGeometry width="4" height="5" as="geometry">
            <mxRectangle width="4" height="5" as="alternateBounds" />
          </mxGeometry>
        </mxCell>
        <mxCell id="kbOJXT6cfB6z6lRoZ_cL-351" value="" style="shape=partialRectangle;html=1;whiteSpace=wrap;connectable=0;strokeColor=inherit;overflow=hidden;fillColor=#A9CFCB;top=0;left=0;bottom=0;right=0;pointerEvents=1;fontSize=16;fontFamily=Times New Roman;" parent="kbOJXT6cfB6z6lRoZ_cL-349" vertex="1">
          <mxGeometry x="4" width="5" height="5" as="geometry">
            <mxRectangle width="5" height="5" as="alternateBounds" />
          </mxGeometry>
        </mxCell>
        <mxCell id="kbOJXT6cfB6z6lRoZ_cL-352" value="a9cfcb" style="shape=partialRectangle;html=1;whiteSpace=wrap;connectable=0;strokeColor=inherit;overflow=hidden;fillColor=#A9CFCB;top=0;left=0;bottom=0;right=0;pointerEvents=1;fontSize=16;fontFamily=Times New Roman;" parent="kbOJXT6cfB6z6lRoZ_cL-349" vertex="1">
          <mxGeometry x="9" width="5" height="5" as="geometry">
            <mxRectangle width="5" height="5" as="alternateBounds" />
          </mxGeometry>
        </mxCell>
        <mxCell id="kbOJXT6cfB6z6lRoZ_cL-353" style="shape=partialRectangle;html=1;whiteSpace=wrap;connectable=0;strokeColor=inherit;overflow=hidden;fillColor=#b1ddf0;top=0;left=0;bottom=0;right=0;pointerEvents=1;fontSize=16;fontFamily=Times New Roman;" parent="kbOJXT6cfB6z6lRoZ_cL-349" vertex="1">
          <mxGeometry x="14" width="4" height="5" as="geometry">
            <mxRectangle width="4" height="5" as="alternateBounds" />
          </mxGeometry>
        </mxCell>
        <mxCell id="kbOJXT6cfB6z6lRoZ_cL-354" value="" style="shape=tableRow;horizontal=0;startSize=0;swimlaneHead=0;swimlaneBody=0;strokeColor=inherit;top=0;left=0;bottom=0;right=0;collapsible=0;dropTarget=0;fillColor=none;points=[[0,0.5],[1,0.5]];portConstraint=eastwest;fontSize=16;fontFamily=Times New Roman;" parent="kbOJXT6cfB6z6lRoZ_cL-343" vertex="1">
          <mxGeometry y="9" width="17.787709497206702" height="5" as="geometry" />
        </mxCell>
        <mxCell id="kbOJXT6cfB6z6lRoZ_cL-355" value="" style="shape=partialRectangle;html=1;whiteSpace=wrap;connectable=0;strokeColor=inherit;overflow=hidden;fillColor=#425D5F;top=0;left=0;bottom=0;right=0;pointerEvents=1;fontSize=16;fontFamily=Times New Roman;" parent="kbOJXT6cfB6z6lRoZ_cL-354" vertex="1">
          <mxGeometry width="4" height="5" as="geometry">
            <mxRectangle width="4" height="5" as="alternateBounds" />
          </mxGeometry>
        </mxCell>
        <mxCell id="kbOJXT6cfB6z6lRoZ_cL-356" value="" style="shape=partialRectangle;html=1;whiteSpace=wrap;connectable=0;strokeColor=inherit;overflow=hidden;fillColor=#b1ddf0;top=0;left=0;bottom=0;right=0;pointerEvents=1;fontSize=16;fontFamily=Times New Roman;" parent="kbOJXT6cfB6z6lRoZ_cL-354" vertex="1">
          <mxGeometry x="4" width="5" height="5" as="geometry">
            <mxRectangle width="5" height="5" as="alternateBounds" />
          </mxGeometry>
        </mxCell>
        <mxCell id="kbOJXT6cfB6z6lRoZ_cL-357" value="&lt;span style=&quot;color: rgba(0, 0, 0, 0); font-size: 0px; text-align: start; text-wrap-mode: nowrap;&quot;&gt;%3CmxGraphModel%3E%3Croot%3E%3CmxCell%20id%3D%220%22%2F%3E%3CmxCell%20id%3D%221%22%20parent%3D%220%22%2F%3E%3CmxCell%20id%3D%222%22%20value%3D%22%22%20style%3D%22shape%3Dtable%3BstartSize%3D0%3Bcontainer%3D1%3Bcollapsible%3D0%3BchildLayout%3DtableLayout%3BfontSize%3D16%3BgradientColor%3D%23808080%3BgradientDirection%3Dnorth%3B%22%20vertex%3D%221%22%20parent%3D%221%22%3E%3CmxGeometry%20x%3D%22458%22%20y%3D%22158%22%20width%3D%2230%22%20height%3D%2228%22%20as%3D%22geometry%22%2F%3E%3C%2FmxCell%3E%3CmxCell%20id%3D%223%22%20style%3D%22shape%3DtableRow%3Bhorizontal%3D0%3BstartSize%3D0%3BswimlaneHead%3D0%3BswimlaneBody%3D0%3BstrokeColor%3Dinherit%3Btop%3D0%3Bleft%3D0%3Bbottom%3D0%3Bright%3D0%3Bcollapsible%3D0%3BdropTarget%3D0%3BfillColor%3Dnone%3Bpoints%3D%5B%5B0%2C0.5%5D%2C%5B1%2C0.5%5D%5D%3BportConstraint%3Deastwest%3BfontSize%3D16%3B%22%20vertex%3D%221%22%20parent%3D%222%22%3E%3CmxGeometry%20width%3D%2230%22%20height%3D%227%22%20as%3D%22geometry%22%2F%3E%3C%2FmxCell%3E%3CmxCell%20id%3D%224%22%20style%3D%22shape%3DpartialRectangle%3Bhtml%3D1%3BwhiteSpace%3Dwrap%3Bconnectable%3D0%3BstrokeColor%3Dinherit%3Boverflow%3Dhidden%3BfillColor%3Dnone%3Btop%3D0%3Bleft%3D0%3Bbottom%3D0%3Bright%3D0%3BpointerEvents%3D1%3BfontSize%3D16%3B%22%20vertex%3D%221%22%20parent%3D%223%22%3E%3CmxGeometry%20width%3D%228%22%20height%3D%227%22%20as%3D%22geometry%22%3E%3CmxRectangle%20width%3D%228%22%20height%3D%227%22%20as%3D%22alternateBounds%22%2F%3E%3C%2FmxGeometry%3E%3C%2FmxCell%3E%3CmxCell%20id%3D%225%22%20style%3D%22shape%3DpartialRectangle%3Bhtml%3D1%3BwhiteSpace%3Dwrap%3Bconnectable%3D0%3BstrokeColor%3Dinherit%3Boverflow%3Dhidden%3BfillColor%3Dnone%3Btop%3D0%3Bleft%3D0%3Bbottom%3D0%3Bright%3D0%3BpointerEvents%3D1%3BfontSize%3D16%3B%22%20vertex%3D%221%22%20parent%3D%223%22%3E%3CmxGeometry%20x%3D%228%22%20width%3D%227%22%20height%3D%227%22%20as%3D%22geometry%22%3E%3CmxRectangle%20width%3D%227%22%20height%3D%227%22%20as%3D%22alternateBounds%22%2F%3E%3C%2FmxGeometry%3E%3C%2FmxCell%3E%3CmxCell%20id%3D%226%22%20style%3D%22shape%3DpartialRectangle%3Bhtml%3D1%3BwhiteSpace%3Dwrap%3Bconnectable%3D0%3BstrokeColor%3Dinherit%3Boverflow%3Dhidden%3BfillColor%3Dnone%3Btop%3D0%3Bleft%3D0%3Bbottom%3D0%3Bright%3D0%3BpointerEvents%3D1%3BfontSize%3D16%3B%22%20vertex%3D%221%22%20parent%3D%223%22%3E%3CmxGeometry%20x%3D%2215%22%20width%3D%228%22%20height%3D%227%22%20as%3D%22geometry%22%3E%3CmxRectangle%20width%3D%228%22%20height%3D%227%22%20as%3D%22alternateBounds%22%2F%3E%3C%2FmxGeometry%3E%3C%2FmxCell%3E%3CmxCell%20id%3D%227%22%20style%3D%22shape%3DpartialRectangle%3Bhtml%3D1%3BwhiteSpace%3Dwrap%3Bconnectable%3D0%3BstrokeColor%3Dinherit%3Boverflow%3Dhidden%3BfillColor%3Dnone%3Btop%3D0%3Bleft%3D0%3Bbottom%3D0%3Bright%3D0%3BpointerEvents%3D1%3BfontSize%3D16%3B%22%20vertex%3D%221%22%20parent%3D%223%22%3E%3CmxGeometry%20x%3D%2223%22%20width%3D%227%22%20height%3D%227%22%20as%3D%22geometry%22%3E%3CmxRectangle%20width%3D%227%22%20height%3D%227%22%20as%3D%22alternateBounds%22%2F%3E%3C%2FmxGeometry%3E%3C%2FmxCell%3E%3CmxCell%20id%3D%228%22%20value%3D%22%22%20style%3D%22shape%3DtableRow%3Bhorizontal%3D0%3BstartSize%3D0%3BswimlaneHead%3D0%3BswimlaneBody%3D0%3BstrokeColor%3Dinherit%3Btop%3D0%3Bleft%3D0%3Bbottom%3D0%3Bright%3D0%3Bcollapsible%3D0%3BdropTarget%3D0%3BfillColor%3Dnone%3Bpoints%3D%5B%5B0%2C0.5%5D%2C%5B1%2C0.5%5D%5D%3BportConstraint%3Deastwest%3BfontSize%3D16%3B%22%20vertex%3D%221%22%20parent%3D%222%22%3E%3CmxGeometry%20y%3D%227%22%20width%3D%2230%22%20height%3D%227%22%20as%3D%22geometry%22%2F%3E%3C%2FmxCell%3E%3CmxCell%20id%3D%229%22%20value%3D%22%22%20style%3D%22shape%3DpartialRectangle%3Bhtml%3D1%3BwhiteSpace%3Dwrap%3Bconnectable%3D0%3BstrokeColor%3Dinherit%3Boverflow%3Dhidden%3BfillColor%3Dnone%3Btop%3D0%3Bleft%3D0%3Bbottom%3D0%3Bright%3D0%3BpointerEvents%3D1%3BfontSize%3D16%3B%22%20vertex%3D%221%22%20parent%3D%228%22%3E%3CmxGeometry%20width%3D%228%22%20height%3D%227%22%20as%3D%22geometry%22%3E%3CmxRectangle%20width%3D%228%22%20height%3D%227%22%20as%3D%22alternateBounds%22%2F%3E%3C%2FmxGeometry%3E%3C%2FmxCell%3E%3CmxCell%20id%3D%2210%22%20value%3D%22%22%20style%3D%22shape%3DpartialRectangle%3Bhtml%3D1%3BwhiteSpace%3Dwrap%3Bconnectable%3D0%3BstrokeColor%3Dinherit%3Boverflow%3Dhidden%3BfillColor%3Dnone%3Btop%3D0%3Bleft%3D0%3Bbottom%3D0%3Bright%3D0%3BpointerEvents%3D1%3BfontSize%3D16%3B%22%20vertex%3D%221%22%20parent%3D%228%22%3E%3CmxGeometry%20x%3D%228%22%20width%3D%227%22%20height%3D%227%22%20as%3D%22geometry%22%3E%3CmxRectangle%20width%3D%227%22%20height%3D%227%22%20as%3D%22alternateBounds%22%2F%3E%3C%2FmxGeometry%3E%3C%2FmxCell%3E%3CmxCell%20id%3D%2211%22%20value%3D%22%22%20style%3D%22shape%3DpartialRectangle%3Bhtml%3D1%3BwhiteSpace%3Dwrap%3Bconnectable%3D0%3BstrokeColor%3Dinherit%3Boverflow%3Dhidden%3BfillColor%3Dnone%3Btop%3D0%3Bleft%3D0%3Bbottom%3D0%3Bright%3D0%3BpointerEvents%3D1%3BfontSize%3D16%3B%22%20vertex%3D%221%22%20parent%3D%228%22%3E%3CmxGeometry%20x%3D%2215%22%20width%3D%228%22%20height%3D%227%22%20as%3D%22geometry%22%3E%3CmxRectangle%20width%3D%228%22%20height%3D%227%22%20as%3D%22alternateBounds%22%2F%3E%3C%2FmxGeometry%3E%3C%2FmxCell%3E%3CmxCell%20id%3D%2212%22%20style%3D%22shape%3DpartialRectangle%3Bhtml%3D1%3BwhiteSpace%3Dwrap%3Bconnectable%3D0%3BstrokeColor%3Dinherit%3Boverflow%3Dhidden%3BfillColor%3Dnone%3Btop%3D0%3Bleft%3D0%3Bbottom%3D0%3Bright%3D0%3BpointerEvents%3D1%3BfontSize%3D16%3B%22%20vertex%3D%221%22%20parent%3D%228%22%3E%3CmxGeometry%20x%3D%2223%22%20width%3D%227%22%20height%3D%227%22%20as%3D%22geometry%22%3E%3CmxRectangle%20width%3D%227%22%20height%3D%227%22%20as%3D%22alternateBounds%22%2F%3E%3C%2FmxGeometry%3E%3C%2FmxCell%3E%3CmxCell%20id%3D%2213%22%20value%3D%22%22%20style%3D%22shape%3DtableRow%3Bhorizontal%3D0%3BstartSize%3D0%3BswimlaneHead%3D0%3BswimlaneBody%3D0%3BstrokeColor%3Dinherit%3Btop%3D0%3Bleft%3D0%3Bbottom%3D0%3Bright%3D0%3Bcollapsible%3D0%3BdropTarget%3D0%3BfillColor%3Dnone%3Bpoints%3D%5B%5B0%2C0.5%5D%2C%5B1%2C0.5%5D%5D%3BportConstraint%3Deastwest%3BfontSize%3D16%3B%22%20vertex%3D%221%22%20parent%3D%222%22%3E%3CmxGeometry%20y%3D%2214%22%20width%3D%2230%22%20height%3D%227%22%20as%3D%22geometry%22%2F%3E%3C%2FmxCell%3E%3CmxCell%20id%3D%2214%22%20value%3D%22%22%20style%3D%22shape%3DpartialRectangle%3Bhtml%3D1%3BwhiteSpace%3Dwrap%3Bconnectable%3D0%3BstrokeColor%3Dinherit%3Boverflow%3Dhidden%3BfillColor%3Dnone%3Btop%3D0%3Bleft%3D0%3Bbottom%3D0%3Bright%3D0%3BpointerEvents%3D1%3BfontSize%3D16%3B%22%20vertex%3D%221%22%20parent%3D%2213%22%3E%3CmxGeometry%20width%3D%228%22%20height%3D%227%22%20as%3D%22geometry%22%3E%3CmxRectangle%20width%3D%228%22%20height%3D%227%22%20as%3D%22alternateBounds%22%2F%3E%3C%2FmxGeometry%3E%3C%2FmxCell%3E%3CmxCell%20id%3D%2215%22%20value%3D%22%22%20style%3D%22shape%3DpartialRectangle%3Bhtml%3D1%3BwhiteSpace%3Dwrap%3Bconnectable%3D0%3BstrokeColor%3Dinherit%3Boverflow%3Dhidden%3BfillColor%3Dnone%3Btop%3D0%3Bleft%3D0%3Bbottom%3D0%3Bright%3D0%3BpointerEvents%3D1%3BfontSize%3D16%3B%22%20vertex%3D%221%22%20parent%3D%2213%22%3E%3CmxGeometry%20x%3D%228%22%20width%3D%227%22%20height%3D%227%22%20as%3D%22geometry%22%3E%3CmxRectangle%20width%3D%227%22%20height%3D%227%22%20as%3D%22alternateBounds%22%2F%3E%3C%2FmxGeometry%3E%3C%2FmxCell%3E%3CmxCell%20id%3D%2216%22%20value%3D%22%22%20style%3D%22shape%3DpartialRectangle%3Bhtml%3D1%3BwhiteSpace%3Dwrap%3Bconnectable%3D0%3BstrokeColor%3Dinherit%3Boverflow%3Dhidden%3BfillColor%3Dnone%3Btop%3D0%3Bleft%3D0%3Bbottom%3D0%3Bright%3D0%3BpointerEvents%3D1%3BfontSize%3D16%3B%22%20vertex%3D%221%22%20parent%3D%2213%22%3E%3CmxGeometry%20x%3D%2215%22%20width%3D%228%22%20height%3D%227%22%20as%3D%22geometry%22%3E%3CmxRectangle%20width%3D%228%22%20height%3D%227%22%20as%3D%22alternateBounds%22%2F%3E%3C%2FmxGeometry%3E%3C%2FmxCell%3E%3CmxCell%20id%3D%2217%22%20style%3D%22shape%3DpartialRectangle%3Bhtml%3D1%3BwhiteSpace%3Dwrap%3Bconnectable%3D0%3BstrokeColor%3Dinherit%3Boverflow%3Dhidden%3BfillColor%3Dnone%3Btop%3D0%3Bleft%3D0%3Bbottom%3D0%3Bright%3D0%3BpointerEvents%3D1%3BfontSize%3D16%3B%22%20vertex%3D%221%22%20parent%3D%2213%22%3E%3CmxGeometry%20x%3D%2223%22%20width%3D%227%22%20height%3D%227%22%20as%3D%22geometry%22%3E%3CmxRectangle%20width%3D%227%22%20height%3D%227%22%20as%3D%22alternateBounds%22%2F%3E%3C%2FmxGeometry%3E%3C%2FmxCell%3E%3CmxCell%20id%3D%2218%22%20value%3D%22%22%20style%3D%22shape%3DtableRow%3Bhorizontal%3D0%3BstartSize%3D0%3BswimlaneHead%3D0%3BswimlaneBody%3D0%3BstrokeColor%3Dinherit%3Btop%3D0%3Bleft%3D0%3Bbottom%3D0%3Bright%3D0%3Bcollapsible%3D0%3BdropTarget%3D0%3BfillColor%3Dnone%3Bpoints%3D%5B%5B0%2C0.5%5D%2C%5B1%2C0.5%5D%5D%3BportConstraint%3Deastwest%3BfontSize%3D16%3B%22%20vertex%3D%221%22%20parent%3D%222%22%3E%3CmxGeometry%20y%3D%2221%22%20width%3D%2230%22%20height%3D%227%22%20as%3D%22geometry%22%2F%3E%3C%2FmxCell%3E%3CmxCell%20id%3D%2219%22%20value%3D%22%22%20style%3D%22shape%3DpartialRectangle%3Bhtml%3D1%3BwhiteSpace%3Dwrap%3Bconnectable%3D0%3BstrokeColor%3Dinherit%3Boverflow%3Dhidden%3BfillColor%3Dnone%3Btop%3D0%3Bleft%3D0%3Bbottom%3D0%3Bright%3D0%3BpointerEvents%3D1%3BfontSize%3D16%3B%22%20vertex%3D%221%22%20parent%3D%2218%22%3E%3CmxGeometry%20width%3D%228%22%20height%3D%227%22%20as%3D%22geometry%22%3E%3CmxRectangle%20width%3D%228%22%20height%3D%227%22%20as%3D%22alternateBounds%22%2F%3E%3C%2FmxGeometry%3E%3C%2FmxCell%3E%3CmxCell%20id%3D%2220%22%20value%3D%22%22%20style%3D%22shape%3DpartialRectangle%3Bhtml%3D1%3BwhiteSpace%3Dwrap%3Bconnectable%3D0%3BstrokeColor%3Dinherit%3Boverflow%3Dhidden%3BfillColor%3Dnone%3Btop%3D0%3Bleft%3D0%3Bbottom%3D0%3Bright%3D0%3BpointerEvents%3D1%3BfontSize%3D16%3B%22%20vertex%3D%221%22%20parent%3D%2218%22%3E%3CmxGeometry%20x%3D%228%22%20width%3D%227%22%20height%3D%227%22%20as%3D%22geometry%22%3E%3CmxRectangle%20width%3D%227%22%20height%3D%227%22%20as%3D%22alternateBounds%22%2F%3E%3C%2FmxGeometry%3E%3C%2FmxCell%3E%3CmxCell%20id%3D%2221%22%20value%3D%22%22%20style%3D%22shape%3DpartialRectangle%3Bhtml%3D1%3BwhiteSpace%3Dwrap%3Bconnectable%3D0%3BstrokeColor%3Dinherit%3Boverflow%3Dhidden%3BfillColor%3Dnone%3Btop%3D0%3Bleft%3D0%3Bbottom%3D0%3Bright%3D0%3BpointerEvents%3D1%3BfontSize%3D16%3B%22%20vertex%3D%221%22%20parent%3D%2218%22%3E%3CmxGeometry%20x%3D%2215%22%20width%3D%228%22%20height%3D%227%22%20as%3D%22geometry%22%3E%3CmxRectangle%20width%3D%228%22%20height%3D%227%22%20as%3D%22alternateBounds%22%2F%3E%3C%2FmxGeometry%3E%3C%2FmxCell%3E%3CmxCell%20id%3D%2222%22%20style%3D%22shape%3DpartialRectangle%3Bhtml%3D1%3BwhiteSpace%3Dwrap%3Bconnectable%3D0%3BstrokeColor%3Dinherit%3Boverflow%3Dhidden%3BfillColor%3Dnone%3Btop%3D0%3Bleft%3D0%3Bbottom%3D0%3Bright%3D0%3BpointerEvents%3D1%3BfontSize%3D16%3B%22%20vertex%3D%221%22%20parent%3D%2218%22%3E%3CmxGeometry%20x%3D%2223%22%20width%3D%227%22%20height%3D%227%22%20as%3D%22geometry%22%3E%3CmxRectangle%20width%3D%227%22%20height%3D%227%22%20as%3D%22alternateBounds%22%2F%3E%3C%2FmxGeometry%3E%3C%2FmxCell%3E%3C%2Froot%3E%3C%2FmxGraphModel%3E&lt;/span&gt;" style="shape=partialRectangle;html=1;whiteSpace=wrap;connectable=0;strokeColor=inherit;overflow=hidden;fillColor=#E7F7F3;top=0;left=0;bottom=0;right=0;pointerEvents=1;fontSize=16;fontFamily=Times New Roman;" parent="kbOJXT6cfB6z6lRoZ_cL-354" vertex="1">
          <mxGeometry x="9" width="5" height="5" as="geometry">
            <mxRectangle width="5" height="5" as="alternateBounds" />
          </mxGeometry>
        </mxCell>
        <mxCell id="kbOJXT6cfB6z6lRoZ_cL-358" style="shape=partialRectangle;html=1;whiteSpace=wrap;connectable=0;strokeColor=inherit;overflow=hidden;fillColor=#425D5F;top=0;left=0;bottom=0;right=0;pointerEvents=1;fontSize=16;fontFamily=Times New Roman;" parent="kbOJXT6cfB6z6lRoZ_cL-354" vertex="1">
          <mxGeometry x="14" width="4" height="5" as="geometry">
            <mxRectangle width="4" height="5" as="alternateBounds" />
          </mxGeometry>
        </mxCell>
        <mxCell id="kbOJXT6cfB6z6lRoZ_cL-359" value="" style="shape=tableRow;horizontal=0;startSize=0;swimlaneHead=0;swimlaneBody=0;strokeColor=inherit;top=0;left=0;bottom=0;right=0;collapsible=0;dropTarget=0;fillColor=none;points=[[0,0.5],[1,0.5]];portConstraint=eastwest;fontSize=16;fontFamily=Times New Roman;" parent="kbOJXT6cfB6z6lRoZ_cL-343" vertex="1">
          <mxGeometry y="14" width="17.787709497206702" height="4" as="geometry" />
        </mxCell>
        <mxCell id="kbOJXT6cfB6z6lRoZ_cL-360" value="" style="shape=partialRectangle;html=1;whiteSpace=wrap;connectable=0;strokeColor=inherit;overflow=hidden;fillColor=#E7F7F3;top=0;left=0;bottom=0;right=0;pointerEvents=1;fontSize=16;fontFamily=Times New Roman;" parent="kbOJXT6cfB6z6lRoZ_cL-359" vertex="1">
          <mxGeometry width="4" height="4" as="geometry">
            <mxRectangle width="4" height="4" as="alternateBounds" />
          </mxGeometry>
        </mxCell>
        <mxCell id="kbOJXT6cfB6z6lRoZ_cL-361" value="" style="shape=partialRectangle;html=1;whiteSpace=wrap;connectable=0;strokeColor=inherit;overflow=hidden;fillColor=#A9CFCB;top=0;left=0;bottom=0;right=0;pointerEvents=1;fontSize=16;fontFamily=Times New Roman;" parent="kbOJXT6cfB6z6lRoZ_cL-359" vertex="1">
          <mxGeometry x="4" width="5" height="4" as="geometry">
            <mxRectangle width="5" height="4" as="alternateBounds" />
          </mxGeometry>
        </mxCell>
        <mxCell id="kbOJXT6cfB6z6lRoZ_cL-362" value="" style="shape=partialRectangle;html=1;whiteSpace=wrap;connectable=0;strokeColor=inherit;overflow=hidden;fillColor=#425D5F;top=0;left=0;bottom=0;right=0;pointerEvents=1;fontSize=16;fontFamily=Times New Roman;" parent="kbOJXT6cfB6z6lRoZ_cL-359" vertex="1">
          <mxGeometry x="9" width="5" height="4" as="geometry">
            <mxRectangle width="5" height="4" as="alternateBounds" />
          </mxGeometry>
        </mxCell>
        <mxCell id="kbOJXT6cfB6z6lRoZ_cL-363" style="shape=partialRectangle;html=1;whiteSpace=wrap;connectable=0;strokeColor=inherit;overflow=hidden;fillColor=#A9CFCB;top=0;left=0;bottom=0;right=0;pointerEvents=1;fontSize=16;fontFamily=Times New Roman;" parent="kbOJXT6cfB6z6lRoZ_cL-359" vertex="1">
          <mxGeometry x="14" width="4" height="4" as="geometry">
            <mxRectangle width="4" height="4" as="alternateBounds" />
          </mxGeometry>
        </mxCell>
        <mxCell id="kbOJXT6cfB6z6lRoZ_cL-364" value="" style="endArrow=none;dashed=1;html=1;rounded=0;dashPattern=1 4;fontFamily=Times New Roman;strokeColor=none;" parent="Dc8xoGKeF29MCSsuU2qs-2" edge="1">
          <mxGeometry width="50" height="50" relative="1" as="geometry">
            <mxPoint x="202.53530726256992" y="48.30595919523947" as="sourcePoint" />
            <mxPoint x="216.98782122905035" y="48.30595919523947" as="targetPoint" />
          </mxGeometry>
        </mxCell>
        <mxCell id="kbOJXT6cfB6z6lRoZ_cL-365" value="" style="endArrow=none;dashed=1;html=1;rounded=0;dashPattern=1 4;fontFamily=Times New Roman;strokeColor=none;" parent="Dc8xoGKeF29MCSsuU2qs-2" edge="1">
          <mxGeometry width="50" height="50" relative="1" as="geometry">
            <mxPoint x="195.86491620111738" y="117.23506092377445" as="sourcePoint" />
            <mxPoint x="209.20569832402242" y="117.23506092377445" as="targetPoint" />
          </mxGeometry>
        </mxCell>
        <mxCell id="kbOJXT6cfB6z6lRoZ_cL-368" value="" style="endArrow=classicThin;html=1;rounded=0;strokeWidth=0.7;strokeColor=default;align=center;verticalAlign=middle;fontFamily=Times New Roman;fontSize=11;fontColor=default;labelBackgroundColor=default;endFill=1;entryX=0;entryY=0.5;entryDx=0;entryDy=0;edgeStyle=orthogonalEdgeStyle;curved=1;" parent="Dc8xoGKeF29MCSsuU2qs-2" edge="1">
          <mxGeometry width="50" height="50" relative="1" as="geometry">
            <mxPoint x="36.375865921787735" y="89.44106829130067" as="sourcePoint" />
            <mxPoint x="69.57217877094982" y="118.902700481723" as="targetPoint" />
            <Array as="points">
              <mxPoint x="36.375865921787735" y="90.55282799659963" />
              <mxPoint x="54.16357541899444" y="90.55282799659963" />
              <mxPoint x="54.16357541899444" y="119.45858033437236" />
            </Array>
          </mxGeometry>
        </mxCell>
        <mxCell id="kbOJXT6cfB6z6lRoZ_cL-369" value="" style="endArrow=classicThin;html=1;rounded=0;strokeWidth=0.7;strokeColor=default;align=center;verticalAlign=middle;fontFamily=Times New Roman;fontSize=11;fontColor=default;labelBackgroundColor=default;endFill=1;exitX=0.225;exitY=0.536;exitDx=0;exitDy=0;exitPerimeter=0;entryX=0;entryY=0.5;entryDx=0;entryDy=0;edgeStyle=orthogonalEdgeStyle;curved=1;" parent="Dc8xoGKeF29MCSsuU2qs-2" edge="1">
          <mxGeometry width="50" height="50" relative="1" as="geometry">
            <mxPoint x="44.15798882681567" y="74.44036849951327" as="sourcePoint" />
            <mxPoint x="69.57217877094982" y="46.50584944028945" as="targetPoint" />
            <Array as="points">
              <mxPoint x="54.674972067039114" y="74.85572192541285" />
              <mxPoint x="54.674972067039114" y="45.949969587640105" />
            </Array>
          </mxGeometry>
        </mxCell>
        <mxCell id="kbOJXT6cfB6z6lRoZ_cL-257" value="" style="shape=cube;whiteSpace=wrap;html=1;boundedLbl=1;backgroundOutline=1;darkOpacity=0.05;darkOpacity2=0.1;size=3;flipV=0;flipH=1;fillColor=#547A8A;fontFamily=Times New Roman;strokeColor=none;" parent="Dc8xoGKeF29MCSsuU2qs-2" vertex="1">
          <mxGeometry x="232.04976637887268" y="37.18836214224994" width="8.893854748603351" height="9.510310164757318" as="geometry" />
        </mxCell>
        <mxCell id="kbOJXT6cfB6z6lRoZ_cL-258" value="" style="shape=cube;whiteSpace=wrap;html=1;boundedLbl=1;backgroundOutline=1;darkOpacity=0.05;darkOpacity2=0.1;size=3;flipV=0;flipH=1;fillColor=#80AAB7;fontFamily=Times New Roman;strokeColor=none;" parent="Dc8xoGKeF29MCSsuU2qs-2" vertex="1">
          <mxGeometry x="228.7651041137634" y="40.35846553050221" width="8.893854748603351" height="9.510310164757318" as="geometry" />
        </mxCell>
        <mxCell id="kbOJXT6cfB6z6lRoZ_cL-259" value="" style="shape=cube;whiteSpace=wrap;html=1;boundedLbl=1;backgroundOutline=1;darkOpacity=0.05;darkOpacity2=0.1;size=3;flipV=0;flipH=1;fillColor=#A4D2D9;fontFamily=Times New Roman;strokeColor=none;" parent="Dc8xoGKeF29MCSsuU2qs-2" vertex="1">
          <mxGeometry x="225.48044184865432" y="43.52856891875473" width="8.893854748603351" height="9.510310164757318" as="geometry" />
        </mxCell>
        <mxCell id="kbOJXT6cfB6z6lRoZ_cL-260" value="" style="shape=cube;whiteSpace=wrap;html=1;boundedLbl=1;backgroundOutline=1;darkOpacity=0.05;darkOpacity2=0.1;size=3;flipV=0;flipH=1;fillColor=#CAEEF2;fontFamily=Times New Roman;strokeColor=none;" parent="Dc8xoGKeF29MCSsuU2qs-2" vertex="1">
          <mxGeometry x="222.1957795835451" y="46.69867230700724" width="8.893854748603351" height="9.510310164757318" as="geometry" />
        </mxCell>
        <mxCell id="kbOJXT6cfB6z6lRoZ_cL-261" value="" style="shape=cube;whiteSpace=wrap;html=1;boundedLbl=1;backgroundOutline=1;darkOpacity=0.05;darkOpacity2=0.1;size=3;flipV=0;flipH=1;fillColor=light-dark(#E3F8F8,#EDEDED);fontFamily=Times New Roman;strokeColor=none;" parent="Dc8xoGKeF29MCSsuU2qs-2" vertex="1">
          <mxGeometry x="218.91111731843586" y="49.868775695259764" width="8.893854748603351" height="9.510310164757318" as="geometry" />
        </mxCell>
        <mxCell id="kbOJXT6cfB6z6lRoZ_cL-263" value="" style="shape=cube;whiteSpace=wrap;html=1;boundedLbl=1;backgroundOutline=1;darkOpacity=0.05;darkOpacity2=0.1;size=3;flipV=0;flipH=1;fillColor=#F7A049;fontFamily=Times New Roman;strokeColor=none;" parent="Dc8xoGKeF29MCSsuU2qs-2" vertex="1">
          <mxGeometry x="84.38954291518552" y="32.61902975347124" width="8.893854748603351" height="9.510310164757318" as="geometry" />
        </mxCell>
        <mxCell id="kbOJXT6cfB6z6lRoZ_cL-264" value="" style="shape=cube;whiteSpace=wrap;html=1;boundedLbl=1;backgroundOutline=1;darkOpacity=0.05;darkOpacity2=0.1;size=3;flipV=0;flipH=1;fillColor=#F9BD6F;fontFamily=Times New Roman;strokeColor=none;" parent="Dc8xoGKeF29MCSsuU2qs-2" vertex="1">
          <mxGeometry x="81.1048806500763" y="35.78913314172351" width="8.893854748603351" height="9.510310164757318" as="geometry" />
        </mxCell>
        <mxCell id="kbOJXT6cfB6z6lRoZ_cL-265" value="" style="shape=cube;whiteSpace=wrap;html=1;boundedLbl=1;backgroundOutline=1;darkOpacity=0.05;darkOpacity2=0.1;size=3;flipV=0;flipH=1;fillColor=#FBD18B;fontFamily=Times New Roman;strokeColor=none;" parent="Dc8xoGKeF29MCSsuU2qs-2" vertex="1">
          <mxGeometry x="77.82021838496718" y="38.95923652997602" width="8.893854748603351" height="9.510310164757318" as="geometry" />
        </mxCell>
        <mxCell id="kbOJXT6cfB6z6lRoZ_cL-266" value="" style="shape=cube;whiteSpace=wrap;html=1;boundedLbl=1;backgroundOutline=1;darkOpacity=0.05;darkOpacity2=0.1;size=3;flipV=0;flipH=1;fillColor=#FDE4AF;fontFamily=Times New Roman;strokeColor=none;" parent="Dc8xoGKeF29MCSsuU2qs-2" vertex="1">
          <mxGeometry x="74.53555611985794" y="42.12933991822854" width="8.893854748603351" height="9.510310164757318" as="geometry" />
        </mxCell>
        <mxCell id="kbOJXT6cfB6z6lRoZ_cL-267" value="" style="shape=cube;whiteSpace=wrap;html=1;boundedLbl=1;backgroundOutline=1;darkOpacity=0.05;darkOpacity2=0.1;size=3;flipV=0;flipH=1;fillColor=light-dark(#FEF2D6,#EDEDED);fontFamily=Times New Roman;strokeColor=none;" parent="Dc8xoGKeF29MCSsuU2qs-2" vertex="1">
          <mxGeometry x="71.2508938547487" y="45.29944330648105" width="8.893854748603351" height="9.510310164757318" as="geometry" />
        </mxCell>
        <mxCell id="kbOJXT6cfB6z6lRoZ_cL-377" value="Shared MLP" style="rounded=1;whiteSpace=wrap;html=1;fontSize=8;horizontal=0;fontFamily=Times New Roman;fillColor=#fff2cc;strokeColor=#d6b656;" parent="Dc8xoGKeF29MCSsuU2qs-2" vertex="1">
          <mxGeometry x="113.08536312849165" y="11.640124114480052" width="15.564245810055866" height="57.81150467554548" as="geometry" />
        </mxCell>
        <mxCell id="kbOJXT6cfB6z6lRoZ_cL-378" value="" style="group;fontFamily=Times New Roman;strokeColor=none;" parent="Dc8xoGKeF29MCSsuU2qs-2" vertex="1" connectable="0">
          <mxGeometry x="147.86033519553072" y="14.997638424482867" width="22.03250380904018" height="22.190723717767113" as="geometry" />
        </mxCell>
        <mxCell id="kbOJXT6cfB6z6lRoZ_cL-379" value="" style="shape=cube;whiteSpace=wrap;html=1;boundedLbl=1;backgroundOutline=1;darkOpacity=0.05;darkOpacity2=0.1;size=3;flipV=0;flipH=1;fillColor=#154778;fontFamily=Times New Roman;strokeColor=none;" parent="kbOJXT6cfB6z6lRoZ_cL-378" vertex="1">
          <mxGeometry x="13.138649060436828" width="8.893854748603351" height="9.510310164757318" as="geometry" />
        </mxCell>
        <mxCell id="kbOJXT6cfB6z6lRoZ_cL-380" value="" style="shape=cube;whiteSpace=wrap;html=1;boundedLbl=1;backgroundOutline=1;darkOpacity=0.05;darkOpacity2=0.1;size=3;flipV=0;flipH=1;fillColor=#397AAA;fontFamily=Times New Roman;strokeColor=none;" parent="kbOJXT6cfB6z6lRoZ_cL-378" vertex="1">
          <mxGeometry x="9.85398679532759" y="3.170103388252264" width="8.893854748603351" height="9.510310164757318" as="geometry" />
        </mxCell>
        <mxCell id="kbOJXT6cfB6z6lRoZ_cL-381" value="" style="shape=cube;whiteSpace=wrap;html=1;boundedLbl=1;backgroundOutline=1;darkOpacity=0.05;darkOpacity2=0.1;size=3;flipV=0;flipH=1;fillColor=#5FA9D1;fontFamily=Times New Roman;strokeColor=none;" parent="kbOJXT6cfB6z6lRoZ_cL-378" vertex="1">
          <mxGeometry x="6.569324530218476" y="6.340206776504781" width="8.893854748603351" height="9.510310164757318" as="geometry" />
        </mxCell>
        <mxCell id="kbOJXT6cfB6z6lRoZ_cL-382" value="" style="shape=cube;whiteSpace=wrap;html=1;boundedLbl=1;backgroundOutline=1;darkOpacity=0.05;darkOpacity2=0.1;size=3;flipV=0;flipH=1;fillColor=#95D4EE;fontFamily=Times New Roman;strokeColor=none;" parent="kbOJXT6cfB6z6lRoZ_cL-378" vertex="1">
          <mxGeometry x="3.284662265109238" y="9.510310164757298" width="8.893854748603351" height="9.510310164757318" as="geometry" />
        </mxCell>
        <mxCell id="kbOJXT6cfB6z6lRoZ_cL-383" value="" style="shape=cube;whiteSpace=wrap;html=1;boundedLbl=1;backgroundOutline=1;darkOpacity=0.05;darkOpacity2=0.1;size=3;flipV=0;flipH=1;fillColor=light-dark(#C8EBF6,#EDEDED);fontFamily=Times New Roman;strokeColor=none;" parent="kbOJXT6cfB6z6lRoZ_cL-378" vertex="1">
          <mxGeometry y="12.680413553009815" width="8.893854748603351" height="9.510310164757318" as="geometry" />
        </mxCell>
        <mxCell id="kbOJXT6cfB6z6lRoZ_cL-384" value="" style="group;fontFamily=Times New Roman;" parent="Dc8xoGKeF29MCSsuU2qs-2" vertex="1" connectable="0">
          <mxGeometry x="145.53681564245812" y="52.96423236044207" width="100.05586592178771" height="26.47099858316804" as="geometry" />
        </mxCell>
        <mxCell id="kbOJXT6cfB6z6lRoZ_cL-385" value="" style="shape=cube;whiteSpace=wrap;html=1;boundedLbl=1;backgroundOutline=1;darkOpacity=0.05;darkOpacity2=0.1;size=3;flipV=0;flipH=1;fillColor=#7A57BE;fontFamily=Times New Roman;strokeColor=none;" parent="kbOJXT6cfB6z6lRoZ_cL-384" vertex="1">
          <mxGeometry x="15.362112747587664" y="-2.223519410597903" width="8.893854748603351" height="9.510310164757318" as="geometry" />
        </mxCell>
        <mxCell id="kbOJXT6cfB6z6lRoZ_cL-386" value="" style="shape=cube;whiteSpace=wrap;html=1;boundedLbl=1;backgroundOutline=1;darkOpacity=0.05;darkOpacity2=0.1;size=3;flipV=0;flipH=1;fillColor=#9473CC;fontFamily=Times New Roman;strokeColor=none;" parent="kbOJXT6cfB6z6lRoZ_cL-384" vertex="1">
          <mxGeometry x="12.077450482478428" y="0.9465839776543611" width="8.893854748603351" height="9.510310164757318" as="geometry" />
        </mxCell>
        <mxCell id="kbOJXT6cfB6z6lRoZ_cL-387" value="" style="shape=cube;whiteSpace=wrap;html=1;boundedLbl=1;backgroundOutline=1;darkOpacity=0.05;darkOpacity2=0.1;size=3;flipV=0;flipH=1;fillColor=#B29CDC;fontFamily=Times New Roman;strokeColor=none;" parent="kbOJXT6cfB6z6lRoZ_cL-384" vertex="1">
          <mxGeometry x="8.792788217369315" y="4.116687365906878" width="8.893854748603351" height="9.510310164757318" as="geometry" />
        </mxCell>
        <mxCell id="kbOJXT6cfB6z6lRoZ_cL-388" value="" style="shape=cube;whiteSpace=wrap;html=1;boundedLbl=1;backgroundOutline=1;darkOpacity=0.05;darkOpacity2=0.1;size=3;flipV=0;flipH=1;fillColor=#CEC3E7;fontFamily=Times New Roman;strokeColor=none;" parent="kbOJXT6cfB6z6lRoZ_cL-384" vertex="1">
          <mxGeometry x="5.508125952260076" y="7.286790754159395" width="8.893854748603351" height="9.510310164757318" as="geometry" />
        </mxCell>
        <mxCell id="kbOJXT6cfB6z6lRoZ_cL-389" value="" style="shape=cube;whiteSpace=wrap;html=1;boundedLbl=1;backgroundOutline=1;darkOpacity=0.05;darkOpacity2=0.1;size=3;flipV=0;flipH=1;fillColor=light-dark(#EAE6F5,#EDEDED);fontFamily=Times New Roman;strokeColor=none;" parent="kbOJXT6cfB6z6lRoZ_cL-384" vertex="1">
          <mxGeometry x="2.2234636871508378" y="10.456894142411912" width="8.893854748603351" height="9.510310164757318" as="geometry" />
        </mxCell>
        <mxCell id="kbOJXT6cfB6z6lRoZ_cL-480" value="" style="curved=1;endArrow=classicThin;html=1;rounded=0;strokeColor=default;strokeWidth=0.6;align=center;verticalAlign=middle;fontFamily=Times New Roman;fontSize=11;fontColor=default;labelBackgroundColor=default;endFill=1;" parent="kbOJXT6cfB6z6lRoZ_cL-384" edge="1">
          <mxGeometry width="50" height="50" relative="1" as="geometry">
            <mxPoint x="20.011173184357542" y="13.129882119580621" as="sourcePoint" />
            <mxPoint x="53.15189944134078" y="-4.658273165202605" as="targetPoint" />
            <Array as="points">
              <mxPoint x="29.805530726256986" y="13.129882119580621" />
              <mxPoint x="40.92284916201117" y="2.012285066591105" />
            </Array>
          </mxGeometry>
        </mxCell>
        <mxCell id="kbOJXT6cfB6z6lRoZ_cL-390" value="" style="shape=cube;whiteSpace=wrap;html=1;boundedLbl=1;backgroundOutline=1;darkOpacity=0.05;darkOpacity2=0.1;size=3;flipV=0;flipH=1;fillColor=#F7A049;fontFamily=Times New Roman;strokeColor=none;" parent="Dc8xoGKeF29MCSsuU2qs-2" vertex="1">
          <mxGeometry x="161.09904012188943" y="32.61902975347124" width="8.893854748603351" height="9.510310164757318" as="geometry" />
        </mxCell>
        <mxCell id="kbOJXT6cfB6z6lRoZ_cL-391" value="" style="shape=cube;whiteSpace=wrap;html=1;boundedLbl=1;backgroundOutline=1;darkOpacity=0.05;darkOpacity2=0.1;size=3;flipV=0;flipH=1;fillColor=#F9BD6F;fontFamily=Times New Roman;strokeColor=none;" parent="Dc8xoGKeF29MCSsuU2qs-2" vertex="1">
          <mxGeometry x="157.8143778567802" y="35.78913314172351" width="8.893854748603351" height="9.510310164757318" as="geometry" />
        </mxCell>
        <mxCell id="kbOJXT6cfB6z6lRoZ_cL-392" value="" style="shape=cube;whiteSpace=wrap;html=1;boundedLbl=1;backgroundOutline=1;darkOpacity=0.05;darkOpacity2=0.1;size=3;flipV=0;flipH=1;fillColor=#FBD18B;fontFamily=Times New Roman;strokeColor=none;" parent="Dc8xoGKeF29MCSsuU2qs-2" vertex="1">
          <mxGeometry x="154.52971559167108" y="38.95923652997602" width="8.893854748603351" height="9.510310164757318" as="geometry" />
        </mxCell>
        <mxCell id="kbOJXT6cfB6z6lRoZ_cL-393" value="" style="shape=cube;whiteSpace=wrap;html=1;boundedLbl=1;backgroundOutline=1;darkOpacity=0.05;darkOpacity2=0.1;size=3;flipV=0;flipH=1;fillColor=#FDE4AF;fontFamily=Times New Roman;strokeColor=none;" parent="Dc8xoGKeF29MCSsuU2qs-2" vertex="1">
          <mxGeometry x="151.24505332656187" y="42.12933991822854" width="8.893854748603351" height="9.510310164757318" as="geometry" />
        </mxCell>
        <mxCell id="kbOJXT6cfB6z6lRoZ_cL-394" value="" style="shape=cube;whiteSpace=wrap;html=1;boundedLbl=1;backgroundOutline=1;darkOpacity=0.05;darkOpacity2=0.1;size=3;flipV=0;flipH=1;fillColor=light-dark(#FEF2D6,#EDEDED);fontFamily=Times New Roman;strokeColor=none;" parent="Dc8xoGKeF29MCSsuU2qs-2" vertex="1">
          <mxGeometry x="147.9603910614526" y="45.29944330648105" width="8.893854748603351" height="9.510310164757318" as="geometry" />
        </mxCell>
        <mxCell id="kbOJXT6cfB6z6lRoZ_cL-396" value="" style="group;fontFamily=Times New Roman;" parent="Dc8xoGKeF29MCSsuU2qs-2" vertex="1" connectable="0">
          <mxGeometry x="195.04879205914855" y="38.34003222532389" width="12.149231524161126" height="12.149536002738234" as="geometry" />
        </mxCell>
        <mxCell id="kbOJXT6cfB6z6lRoZ_cL-397" value="" style="ellipse;whiteSpace=wrap;html=1;aspect=fixed;fontFamily=Times New Roman;fontSize=11;fontColor=default;labelBackgroundColor=default;rotation=30;" parent="kbOJXT6cfB6z6lRoZ_cL-396" vertex="1">
          <mxGeometry x="1.6276883877788868" y="1.6277291801733114" width="8.893854748603351" height="8.893854748603351" as="geometry" />
        </mxCell>
        <mxCell id="kbOJXT6cfB6z6lRoZ_cL-398" value="" style="shape=mxgraph.sysml.x;fontFamily=Times New Roman;fontSize=11;fontColor=default;labelBackgroundColor=default;strokeWidth=0.8;direction=west;rotation=45;" parent="kbOJXT6cfB6z6lRoZ_cL-396" vertex="1">
          <mxGeometry x="2.572660454818018" y="2.695018497260345" width="6.670391061452515" height="6.670558231793709" as="geometry" />
        </mxCell>
        <mxCell id="kbOJXT6cfB6z6lRoZ_cL-425" value="" style="shape=table;startSize=0;container=1;collapsible=0;childLayout=tableLayout;fontSize=16;gradientColor=none;gradientDirection=north;fillColor=none;fontFamily=Times New Roman;strokeColor=none;" parent="Dc8xoGKeF29MCSsuU2qs-2" vertex="1">
          <mxGeometry x="156.44290502793305" y="110.00862283933127" width="17.787709497206702" height="17.788155284783222" as="geometry" />
        </mxCell>
        <mxCell id="kbOJXT6cfB6z6lRoZ_cL-426" style="shape=tableRow;horizontal=0;startSize=0;swimlaneHead=0;swimlaneBody=0;strokeColor=inherit;top=0;left=0;bottom=0;right=0;collapsible=0;dropTarget=0;fillColor=none;points=[[0,0.5],[1,0.5]];portConstraint=eastwest;fontSize=16;fontFamily=Times New Roman;" parent="kbOJXT6cfB6z6lRoZ_cL-425" vertex="1">
          <mxGeometry width="17.787709497206702" height="4" as="geometry" />
        </mxCell>
        <mxCell id="kbOJXT6cfB6z6lRoZ_cL-427" style="shape=partialRectangle;html=1;whiteSpace=wrap;connectable=0;strokeColor=inherit;overflow=hidden;fillColor=#E7F7F3;top=0;left=0;bottom=0;right=0;pointerEvents=1;fontSize=16;fontFamily=Times New Roman;" parent="kbOJXT6cfB6z6lRoZ_cL-426" vertex="1">
          <mxGeometry width="4" height="4" as="geometry">
            <mxRectangle width="4" height="4" as="alternateBounds" />
          </mxGeometry>
        </mxCell>
        <mxCell id="kbOJXT6cfB6z6lRoZ_cL-428" style="shape=partialRectangle;html=1;whiteSpace=wrap;connectable=0;strokeColor=inherit;overflow=hidden;fillColor=#425D5F;top=0;left=0;bottom=0;right=0;pointerEvents=1;fontSize=16;fontFamily=Times New Roman;" parent="kbOJXT6cfB6z6lRoZ_cL-426" vertex="1">
          <mxGeometry x="4" width="5" height="4" as="geometry">
            <mxRectangle width="5" height="4" as="alternateBounds" />
          </mxGeometry>
        </mxCell>
        <mxCell id="kbOJXT6cfB6z6lRoZ_cL-429" style="shape=partialRectangle;html=1;whiteSpace=wrap;connectable=0;strokeColor=inherit;overflow=hidden;fillColor=#b1ddf0;top=0;left=0;bottom=0;right=0;pointerEvents=1;fontSize=16;fontFamily=Times New Roman;" parent="kbOJXT6cfB6z6lRoZ_cL-426" vertex="1">
          <mxGeometry x="9" width="5" height="4" as="geometry">
            <mxRectangle width="5" height="4" as="alternateBounds" />
          </mxGeometry>
        </mxCell>
        <mxCell id="kbOJXT6cfB6z6lRoZ_cL-430" style="shape=partialRectangle;html=1;whiteSpace=wrap;connectable=0;strokeColor=inherit;overflow=hidden;fillColor=#E7F7F3;top=0;left=0;bottom=0;right=0;pointerEvents=1;fontSize=16;fontFamily=Times New Roman;" parent="kbOJXT6cfB6z6lRoZ_cL-426" vertex="1">
          <mxGeometry x="14" width="4" height="4" as="geometry">
            <mxRectangle width="4" height="4" as="alternateBounds" />
          </mxGeometry>
        </mxCell>
        <mxCell id="kbOJXT6cfB6z6lRoZ_cL-431" value="" style="shape=tableRow;horizontal=0;startSize=0;swimlaneHead=0;swimlaneBody=0;strokeColor=inherit;top=0;left=0;bottom=0;right=0;collapsible=0;dropTarget=0;fillColor=none;points=[[0,0.5],[1,0.5]];portConstraint=eastwest;fontSize=16;fontFamily=Times New Roman;" parent="kbOJXT6cfB6z6lRoZ_cL-425" vertex="1">
          <mxGeometry y="4" width="17.787709497206702" height="5" as="geometry" />
        </mxCell>
        <mxCell id="kbOJXT6cfB6z6lRoZ_cL-432" value="" style="shape=partialRectangle;html=1;whiteSpace=wrap;connectable=0;strokeColor=inherit;overflow=hidden;fillColor=#b1ddf0;top=0;left=0;bottom=0;right=0;pointerEvents=1;fontSize=16;fontFamily=Times New Roman;" parent="kbOJXT6cfB6z6lRoZ_cL-431" vertex="1">
          <mxGeometry width="4" height="5" as="geometry">
            <mxRectangle width="4" height="5" as="alternateBounds" />
          </mxGeometry>
        </mxCell>
        <mxCell id="kbOJXT6cfB6z6lRoZ_cL-433" value="" style="shape=partialRectangle;html=1;whiteSpace=wrap;connectable=0;strokeColor=inherit;overflow=hidden;fillColor=#A9CFCB;top=0;left=0;bottom=0;right=0;pointerEvents=1;fontSize=16;fontFamily=Times New Roman;" parent="kbOJXT6cfB6z6lRoZ_cL-431" vertex="1">
          <mxGeometry x="4" width="5" height="5" as="geometry">
            <mxRectangle width="5" height="5" as="alternateBounds" />
          </mxGeometry>
        </mxCell>
        <mxCell id="kbOJXT6cfB6z6lRoZ_cL-434" value="a9cfcb" style="shape=partialRectangle;html=1;whiteSpace=wrap;connectable=0;strokeColor=inherit;overflow=hidden;fillColor=#A9CFCB;top=0;left=0;bottom=0;right=0;pointerEvents=1;fontSize=16;fontFamily=Times New Roman;" parent="kbOJXT6cfB6z6lRoZ_cL-431" vertex="1">
          <mxGeometry x="9" width="5" height="5" as="geometry">
            <mxRectangle width="5" height="5" as="alternateBounds" />
          </mxGeometry>
        </mxCell>
        <mxCell id="kbOJXT6cfB6z6lRoZ_cL-435" style="shape=partialRectangle;html=1;whiteSpace=wrap;connectable=0;strokeColor=inherit;overflow=hidden;fillColor=#b1ddf0;top=0;left=0;bottom=0;right=0;pointerEvents=1;fontSize=16;fontFamily=Times New Roman;" parent="kbOJXT6cfB6z6lRoZ_cL-431" vertex="1">
          <mxGeometry x="14" width="4" height="5" as="geometry">
            <mxRectangle width="4" height="5" as="alternateBounds" />
          </mxGeometry>
        </mxCell>
        <mxCell id="kbOJXT6cfB6z6lRoZ_cL-436" value="" style="shape=tableRow;horizontal=0;startSize=0;swimlaneHead=0;swimlaneBody=0;strokeColor=inherit;top=0;left=0;bottom=0;right=0;collapsible=0;dropTarget=0;fillColor=none;points=[[0,0.5],[1,0.5]];portConstraint=eastwest;fontSize=16;fontFamily=Times New Roman;" parent="kbOJXT6cfB6z6lRoZ_cL-425" vertex="1">
          <mxGeometry y="9" width="17.787709497206702" height="5" as="geometry" />
        </mxCell>
        <mxCell id="kbOJXT6cfB6z6lRoZ_cL-437" value="" style="shape=partialRectangle;html=1;whiteSpace=wrap;connectable=0;strokeColor=inherit;overflow=hidden;fillColor=#425D5F;top=0;left=0;bottom=0;right=0;pointerEvents=1;fontSize=16;fontFamily=Times New Roman;" parent="kbOJXT6cfB6z6lRoZ_cL-436" vertex="1">
          <mxGeometry width="4" height="5" as="geometry">
            <mxRectangle width="4" height="5" as="alternateBounds" />
          </mxGeometry>
        </mxCell>
        <mxCell id="kbOJXT6cfB6z6lRoZ_cL-438" value="" style="shape=partialRectangle;html=1;whiteSpace=wrap;connectable=0;strokeColor=inherit;overflow=hidden;fillColor=#b1ddf0;top=0;left=0;bottom=0;right=0;pointerEvents=1;fontSize=16;fontFamily=Times New Roman;" parent="kbOJXT6cfB6z6lRoZ_cL-436" vertex="1">
          <mxGeometry x="4" width="5" height="5" as="geometry">
            <mxRectangle width="5" height="5" as="alternateBounds" />
          </mxGeometry>
        </mxCell>
        <mxCell id="kbOJXT6cfB6z6lRoZ_cL-439" value="&lt;span style=&quot;color: rgba(0, 0, 0, 0); font-size: 0px; text-align: start; text-wrap-mode: nowrap;&quot;&gt;%3CmxGraphModel%3E%3Croot%3E%3CmxCell%20id%3D%220%22%2F%3E%3CmxCell%20id%3D%221%22%20parent%3D%220%22%2F%3E%3CmxCell%20id%3D%222%22%20value%3D%22%22%20style%3D%22shape%3Dtable%3BstartSize%3D0%3Bcontainer%3D1%3Bcollapsible%3D0%3BchildLayout%3DtableLayout%3BfontSize%3D16%3BgradientColor%3D%23808080%3BgradientDirection%3Dnorth%3B%22%20vertex%3D%221%22%20parent%3D%221%22%3E%3CmxGeometry%20x%3D%22458%22%20y%3D%22158%22%20width%3D%2230%22%20height%3D%2228%22%20as%3D%22geometry%22%2F%3E%3C%2FmxCell%3E%3CmxCell%20id%3D%223%22%20style%3D%22shape%3DtableRow%3Bhorizontal%3D0%3BstartSize%3D0%3BswimlaneHead%3D0%3BswimlaneBody%3D0%3BstrokeColor%3Dinherit%3Btop%3D0%3Bleft%3D0%3Bbottom%3D0%3Bright%3D0%3Bcollapsible%3D0%3BdropTarget%3D0%3BfillColor%3Dnone%3Bpoints%3D%5B%5B0%2C0.5%5D%2C%5B1%2C0.5%5D%5D%3BportConstraint%3Deastwest%3BfontSize%3D16%3B%22%20vertex%3D%221%22%20parent%3D%222%22%3E%3CmxGeometry%20width%3D%2230%22%20height%3D%227%22%20as%3D%22geometry%22%2F%3E%3C%2FmxCell%3E%3CmxCell%20id%3D%224%22%20style%3D%22shape%3DpartialRectangle%3Bhtml%3D1%3BwhiteSpace%3Dwrap%3Bconnectable%3D0%3BstrokeColor%3Dinherit%3Boverflow%3Dhidden%3BfillColor%3Dnone%3Btop%3D0%3Bleft%3D0%3Bbottom%3D0%3Bright%3D0%3BpointerEvents%3D1%3BfontSize%3D16%3B%22%20vertex%3D%221%22%20parent%3D%223%22%3E%3CmxGeometry%20width%3D%228%22%20height%3D%227%22%20as%3D%22geometry%22%3E%3CmxRectangle%20width%3D%228%22%20height%3D%227%22%20as%3D%22alternateBounds%22%2F%3E%3C%2FmxGeometry%3E%3C%2FmxCell%3E%3CmxCell%20id%3D%225%22%20style%3D%22shape%3DpartialRectangle%3Bhtml%3D1%3BwhiteSpace%3Dwrap%3Bconnectable%3D0%3BstrokeColor%3Dinherit%3Boverflow%3Dhidden%3BfillColor%3Dnone%3Btop%3D0%3Bleft%3D0%3Bbottom%3D0%3Bright%3D0%3BpointerEvents%3D1%3BfontSize%3D16%3B%22%20vertex%3D%221%22%20parent%3D%223%22%3E%3CmxGeometry%20x%3D%228%22%20width%3D%227%22%20height%3D%227%22%20as%3D%22geometry%22%3E%3CmxRectangle%20width%3D%227%22%20height%3D%227%22%20as%3D%22alternateBounds%22%2F%3E%3C%2FmxGeometry%3E%3C%2FmxCell%3E%3CmxCell%20id%3D%226%22%20style%3D%22shape%3DpartialRectangle%3Bhtml%3D1%3BwhiteSpace%3Dwrap%3Bconnectable%3D0%3BstrokeColor%3Dinherit%3Boverflow%3Dhidden%3BfillColor%3Dnone%3Btop%3D0%3Bleft%3D0%3Bbottom%3D0%3Bright%3D0%3BpointerEvents%3D1%3BfontSize%3D16%3B%22%20vertex%3D%221%22%20parent%3D%223%22%3E%3CmxGeometry%20x%3D%2215%22%20width%3D%228%22%20height%3D%227%22%20as%3D%22geometry%22%3E%3CmxRectangle%20width%3D%228%22%20height%3D%227%22%20as%3D%22alternateBounds%22%2F%3E%3C%2FmxGeometry%3E%3C%2FmxCell%3E%3CmxCell%20id%3D%227%22%20style%3D%22shape%3DpartialRectangle%3Bhtml%3D1%3BwhiteSpace%3Dwrap%3Bconnectable%3D0%3BstrokeColor%3Dinherit%3Boverflow%3Dhidden%3BfillColor%3Dnone%3Btop%3D0%3Bleft%3D0%3Bbottom%3D0%3Bright%3D0%3BpointerEvents%3D1%3BfontSize%3D16%3B%22%20vertex%3D%221%22%20parent%3D%223%22%3E%3CmxGeometry%20x%3D%2223%22%20width%3D%227%22%20height%3D%227%22%20as%3D%22geometry%22%3E%3CmxRectangle%20width%3D%227%22%20height%3D%227%22%20as%3D%22alternateBounds%22%2F%3E%3C%2FmxGeometry%3E%3C%2FmxCell%3E%3CmxCell%20id%3D%228%22%20value%3D%22%22%20style%3D%22shape%3DtableRow%3Bhorizontal%3D0%3BstartSize%3D0%3BswimlaneHead%3D0%3BswimlaneBody%3D0%3BstrokeColor%3Dinherit%3Btop%3D0%3Bleft%3D0%3Bbottom%3D0%3Bright%3D0%3Bcollapsible%3D0%3BdropTarget%3D0%3BfillColor%3Dnone%3Bpoints%3D%5B%5B0%2C0.5%5D%2C%5B1%2C0.5%5D%5D%3BportConstraint%3Deastwest%3BfontSize%3D16%3B%22%20vertex%3D%221%22%20parent%3D%222%22%3E%3CmxGeometry%20y%3D%227%22%20width%3D%2230%22%20height%3D%227%22%20as%3D%22geometry%22%2F%3E%3C%2FmxCell%3E%3CmxCell%20id%3D%229%22%20value%3D%22%22%20style%3D%22shape%3DpartialRectangle%3Bhtml%3D1%3BwhiteSpace%3Dwrap%3Bconnectable%3D0%3BstrokeColor%3Dinherit%3Boverflow%3Dhidden%3BfillColor%3Dnone%3Btop%3D0%3Bleft%3D0%3Bbottom%3D0%3Bright%3D0%3BpointerEvents%3D1%3BfontSize%3D16%3B%22%20vertex%3D%221%22%20parent%3D%228%22%3E%3CmxGeometry%20width%3D%228%22%20height%3D%227%22%20as%3D%22geometry%22%3E%3CmxRectangle%20width%3D%228%22%20height%3D%227%22%20as%3D%22alternateBounds%22%2F%3E%3C%2FmxGeometry%3E%3C%2FmxCell%3E%3CmxCell%20id%3D%2210%22%20value%3D%22%22%20style%3D%22shape%3DpartialRectangle%3Bhtml%3D1%3BwhiteSpace%3Dwrap%3Bconnectable%3D0%3BstrokeColor%3Dinherit%3Boverflow%3Dhidden%3BfillColor%3Dnone%3Btop%3D0%3Bleft%3D0%3Bbottom%3D0%3Bright%3D0%3BpointerEvents%3D1%3BfontSize%3D16%3B%22%20vertex%3D%221%22%20parent%3D%228%22%3E%3CmxGeometry%20x%3D%228%22%20width%3D%227%22%20height%3D%227%22%20as%3D%22geometry%22%3E%3CmxRectangle%20width%3D%227%22%20height%3D%227%22%20as%3D%22alternateBounds%22%2F%3E%3C%2FmxGeometry%3E%3C%2FmxCell%3E%3CmxCell%20id%3D%2211%22%20value%3D%22%22%20style%3D%22shape%3DpartialRectangle%3Bhtml%3D1%3BwhiteSpace%3Dwrap%3Bconnectable%3D0%3BstrokeColor%3Dinherit%3Boverflow%3Dhidden%3BfillColor%3Dnone%3Btop%3D0%3Bleft%3D0%3Bbottom%3D0%3Bright%3D0%3BpointerEvents%3D1%3BfontSize%3D16%3B%22%20vertex%3D%221%22%20parent%3D%228%22%3E%3CmxGeometry%20x%3D%2215%22%20width%3D%228%22%20height%3D%227%22%20as%3D%22geometry%22%3E%3CmxRectangle%20width%3D%228%22%20height%3D%227%22%20as%3D%22alternateBounds%22%2F%3E%3C%2FmxGeometry%3E%3C%2FmxCell%3E%3CmxCell%20id%3D%2212%22%20style%3D%22shape%3DpartialRectangle%3Bhtml%3D1%3BwhiteSpace%3Dwrap%3Bconnectable%3D0%3BstrokeColor%3Dinherit%3Boverflow%3Dhidden%3BfillColor%3Dnone%3Btop%3D0%3Bleft%3D0%3Bbottom%3D0%3Bright%3D0%3BpointerEvents%3D1%3BfontSize%3D16%3B%22%20vertex%3D%221%22%20parent%3D%228%22%3E%3CmxGeometry%20x%3D%2223%22%20width%3D%227%22%20height%3D%227%22%20as%3D%22geometry%22%3E%3CmxRectangle%20width%3D%227%22%20height%3D%227%22%20as%3D%22alternateBounds%22%2F%3E%3C%2FmxGeometry%3E%3C%2FmxCell%3E%3CmxCell%20id%3D%2213%22%20value%3D%22%22%20style%3D%22shape%3DtableRow%3Bhorizontal%3D0%3BstartSize%3D0%3BswimlaneHead%3D0%3BswimlaneBody%3D0%3BstrokeColor%3Dinherit%3Btop%3D0%3Bleft%3D0%3Bbottom%3D0%3Bright%3D0%3Bcollapsible%3D0%3BdropTarget%3D0%3BfillColor%3Dnone%3Bpoints%3D%5B%5B0%2C0.5%5D%2C%5B1%2C0.5%5D%5D%3BportConstraint%3Deastwest%3BfontSize%3D16%3B%22%20vertex%3D%221%22%20parent%3D%222%22%3E%3CmxGeometry%20y%3D%2214%22%20width%3D%2230%22%20height%3D%227%22%20as%3D%22geometry%22%2F%3E%3C%2FmxCell%3E%3CmxCell%20id%3D%2214%22%20value%3D%22%22%20style%3D%22shape%3DpartialRectangle%3Bhtml%3D1%3BwhiteSpace%3Dwrap%3Bconnectable%3D0%3BstrokeColor%3Dinherit%3Boverflow%3Dhidden%3BfillColor%3Dnone%3Btop%3D0%3Bleft%3D0%3Bbottom%3D0%3Bright%3D0%3BpointerEvents%3D1%3BfontSize%3D16%3B%22%20vertex%3D%221%22%20parent%3D%2213%22%3E%3CmxGeometry%20width%3D%228%22%20height%3D%227%22%20as%3D%22geometry%22%3E%3CmxRectangle%20width%3D%228%22%20height%3D%227%22%20as%3D%22alternateBounds%22%2F%3E%3C%2FmxGeometry%3E%3C%2FmxCell%3E%3CmxCell%20id%3D%2215%22%20value%3D%22%22%20style%3D%22shape%3DpartialRectangle%3Bhtml%3D1%3BwhiteSpace%3Dwrap%3Bconnectable%3D0%3BstrokeColor%3Dinherit%3Boverflow%3Dhidden%3BfillColor%3Dnone%3Btop%3D0%3Bleft%3D0%3Bbottom%3D0%3Bright%3D0%3BpointerEvents%3D1%3BfontSize%3D16%3B%22%20vertex%3D%221%22%20parent%3D%2213%22%3E%3CmxGeometry%20x%3D%228%22%20width%3D%227%22%20height%3D%227%22%20as%3D%22geometry%22%3E%3CmxRectangle%20width%3D%227%22%20height%3D%227%22%20as%3D%22alternateBounds%22%2F%3E%3C%2FmxGeometry%3E%3C%2FmxCell%3E%3CmxCell%20id%3D%2216%22%20value%3D%22%22%20style%3D%22shape%3DpartialRectangle%3Bhtml%3D1%3BwhiteSpace%3Dwrap%3Bconnectable%3D0%3BstrokeColor%3Dinherit%3Boverflow%3Dhidden%3BfillColor%3Dnone%3Btop%3D0%3Bleft%3D0%3Bbottom%3D0%3Bright%3D0%3BpointerEvents%3D1%3BfontSize%3D16%3B%22%20vertex%3D%221%22%20parent%3D%2213%22%3E%3CmxGeometry%20x%3D%2215%22%20width%3D%228%22%20height%3D%227%22%20as%3D%22geometry%22%3E%3CmxRectangle%20width%3D%228%22%20height%3D%227%22%20as%3D%22alternateBounds%22%2F%3E%3C%2FmxGeometry%3E%3C%2FmxCell%3E%3CmxCell%20id%3D%2217%22%20style%3D%22shape%3DpartialRectangle%3Bhtml%3D1%3BwhiteSpace%3Dwrap%3Bconnectable%3D0%3BstrokeColor%3Dinherit%3Boverflow%3Dhidden%3BfillColor%3Dnone%3Btop%3D0%3Bleft%3D0%3Bbottom%3D0%3Bright%3D0%3BpointerEvents%3D1%3BfontSize%3D16%3B%22%20vertex%3D%221%22%20parent%3D%2213%22%3E%3CmxGeometry%20x%3D%2223%22%20width%3D%227%22%20height%3D%227%22%20as%3D%22geometry%22%3E%3CmxRectangle%20width%3D%227%22%20height%3D%227%22%20as%3D%22alternateBounds%22%2F%3E%3C%2FmxGeometry%3E%3C%2FmxCell%3E%3CmxCell%20id%3D%2218%22%20value%3D%22%22%20style%3D%22shape%3DtableRow%3Bhorizontal%3D0%3BstartSize%3D0%3BswimlaneHead%3D0%3BswimlaneBody%3D0%3BstrokeColor%3Dinherit%3Btop%3D0%3Bleft%3D0%3Bbottom%3D0%3Bright%3D0%3Bcollapsible%3D0%3BdropTarget%3D0%3BfillColor%3Dnone%3Bpoints%3D%5B%5B0%2C0.5%5D%2C%5B1%2C0.5%5D%5D%3BportConstraint%3Deastwest%3BfontSize%3D16%3B%22%20vertex%3D%221%22%20parent%3D%222%22%3E%3CmxGeometry%20y%3D%2221%22%20width%3D%2230%22%20height%3D%227%22%20as%3D%22geometry%22%2F%3E%3C%2FmxCell%3E%3CmxCell%20id%3D%2219%22%20value%3D%22%22%20style%3D%22shape%3DpartialRectangle%3Bhtml%3D1%3BwhiteSpace%3Dwrap%3Bconnectable%3D0%3BstrokeColor%3Dinherit%3Boverflow%3Dhidden%3BfillColor%3Dnone%3Btop%3D0%3Bleft%3D0%3Bbottom%3D0%3Bright%3D0%3BpointerEvents%3D1%3BfontSize%3D16%3B%22%20vertex%3D%221%22%20parent%3D%2218%22%3E%3CmxGeometry%20width%3D%228%22%20height%3D%227%22%20as%3D%22geometry%22%3E%3CmxRectangle%20width%3D%228%22%20height%3D%227%22%20as%3D%22alternateBounds%22%2F%3E%3C%2FmxGeometry%3E%3C%2FmxCell%3E%3CmxCell%20id%3D%2220%22%20value%3D%22%22%20style%3D%22shape%3DpartialRectangle%3Bhtml%3D1%3BwhiteSpace%3Dwrap%3Bconnectable%3D0%3BstrokeColor%3Dinherit%3Boverflow%3Dhidden%3BfillColor%3Dnone%3Btop%3D0%3Bleft%3D0%3Bbottom%3D0%3Bright%3D0%3BpointerEvents%3D1%3BfontSize%3D16%3B%22%20vertex%3D%221%22%20parent%3D%2218%22%3E%3CmxGeometry%20x%3D%228%22%20width%3D%227%22%20height%3D%227%22%20as%3D%22geometry%22%3E%3CmxRectangle%20width%3D%227%22%20height%3D%227%22%20as%3D%22alternateBounds%22%2F%3E%3C%2FmxGeometry%3E%3C%2FmxCell%3E%3CmxCell%20id%3D%2221%22%20value%3D%22%22%20style%3D%22shape%3DpartialRectangle%3Bhtml%3D1%3BwhiteSpace%3Dwrap%3Bconnectable%3D0%3BstrokeColor%3Dinherit%3Boverflow%3Dhidden%3BfillColor%3Dnone%3Btop%3D0%3Bleft%3D0%3Bbottom%3D0%3Bright%3D0%3BpointerEvents%3D1%3BfontSize%3D16%3B%22%20vertex%3D%221%22%20parent%3D%2218%22%3E%3CmxGeometry%20x%3D%2215%22%20width%3D%228%22%20height%3D%227%22%20as%3D%22geometry%22%3E%3CmxRectangle%20width%3D%228%22%20height%3D%227%22%20as%3D%22alternateBounds%22%2F%3E%3C%2FmxGeometry%3E%3C%2FmxCell%3E%3CmxCell%20id%3D%2222%22%20style%3D%22shape%3DpartialRectangle%3Bhtml%3D1%3BwhiteSpace%3Dwrap%3Bconnectable%3D0%3BstrokeColor%3Dinherit%3Boverflow%3Dhidden%3BfillColor%3Dnone%3Btop%3D0%3Bleft%3D0%3Bbottom%3D0%3Bright%3D0%3BpointerEvents%3D1%3BfontSize%3D16%3B%22%20vertex%3D%221%22%20parent%3D%2218%22%3E%3CmxGeometry%20x%3D%2223%22%20width%3D%227%22%20height%3D%227%22%20as%3D%22geometry%22%3E%3CmxRectangle%20width%3D%227%22%20height%3D%227%22%20as%3D%22alternateBounds%22%2F%3E%3C%2FmxGeometry%3E%3C%2FmxCell%3E%3C%2Froot%3E%3C%2FmxGraphModel%3E&lt;/span&gt;" style="shape=partialRectangle;html=1;whiteSpace=wrap;connectable=0;strokeColor=inherit;overflow=hidden;fillColor=#E7F7F3;top=0;left=0;bottom=0;right=0;pointerEvents=1;fontSize=16;fontFamily=Times New Roman;" parent="kbOJXT6cfB6z6lRoZ_cL-436" vertex="1">
          <mxGeometry x="9" width="5" height="5" as="geometry">
            <mxRectangle width="5" height="5" as="alternateBounds" />
          </mxGeometry>
        </mxCell>
        <mxCell id="kbOJXT6cfB6z6lRoZ_cL-440" style="shape=partialRectangle;html=1;whiteSpace=wrap;connectable=0;strokeColor=inherit;overflow=hidden;fillColor=#425D5F;top=0;left=0;bottom=0;right=0;pointerEvents=1;fontSize=16;fontFamily=Times New Roman;" parent="kbOJXT6cfB6z6lRoZ_cL-436" vertex="1">
          <mxGeometry x="14" width="4" height="5" as="geometry">
            <mxRectangle width="4" height="5" as="alternateBounds" />
          </mxGeometry>
        </mxCell>
        <mxCell id="kbOJXT6cfB6z6lRoZ_cL-441" value="" style="shape=tableRow;horizontal=0;startSize=0;swimlaneHead=0;swimlaneBody=0;strokeColor=inherit;top=0;left=0;bottom=0;right=0;collapsible=0;dropTarget=0;fillColor=none;points=[[0,0.5],[1,0.5]];portConstraint=eastwest;fontSize=16;fontFamily=Times New Roman;" parent="kbOJXT6cfB6z6lRoZ_cL-425" vertex="1">
          <mxGeometry y="14" width="17.787709497206702" height="4" as="geometry" />
        </mxCell>
        <mxCell id="kbOJXT6cfB6z6lRoZ_cL-442" value="" style="shape=partialRectangle;html=1;whiteSpace=wrap;connectable=0;strokeColor=inherit;overflow=hidden;fillColor=#E7F7F3;top=0;left=0;bottom=0;right=0;pointerEvents=1;fontSize=16;fontFamily=Times New Roman;" parent="kbOJXT6cfB6z6lRoZ_cL-441" vertex="1">
          <mxGeometry width="4" height="4" as="geometry">
            <mxRectangle width="4" height="4" as="alternateBounds" />
          </mxGeometry>
        </mxCell>
        <mxCell id="kbOJXT6cfB6z6lRoZ_cL-443" value="" style="shape=partialRectangle;html=1;whiteSpace=wrap;connectable=0;strokeColor=inherit;overflow=hidden;fillColor=#A9CFCB;top=0;left=0;bottom=0;right=0;pointerEvents=1;fontSize=16;fontFamily=Times New Roman;" parent="kbOJXT6cfB6z6lRoZ_cL-441" vertex="1">
          <mxGeometry x="4" width="5" height="4" as="geometry">
            <mxRectangle width="5" height="4" as="alternateBounds" />
          </mxGeometry>
        </mxCell>
        <mxCell id="kbOJXT6cfB6z6lRoZ_cL-444" value="" style="shape=partialRectangle;html=1;whiteSpace=wrap;connectable=0;strokeColor=inherit;overflow=hidden;fillColor=#425D5F;top=0;left=0;bottom=0;right=0;pointerEvents=1;fontSize=16;fontFamily=Times New Roman;" parent="kbOJXT6cfB6z6lRoZ_cL-441" vertex="1">
          <mxGeometry x="9" width="5" height="4" as="geometry">
            <mxRectangle width="5" height="4" as="alternateBounds" />
          </mxGeometry>
        </mxCell>
        <mxCell id="kbOJXT6cfB6z6lRoZ_cL-445" style="shape=partialRectangle;html=1;whiteSpace=wrap;connectable=0;strokeColor=inherit;overflow=hidden;fillColor=#A9CFCB;top=0;left=0;bottom=0;right=0;pointerEvents=1;fontSize=16;fontFamily=Times New Roman;" parent="kbOJXT6cfB6z6lRoZ_cL-441" vertex="1">
          <mxGeometry x="14" width="4" height="4" as="geometry">
            <mxRectangle width="4" height="4" as="alternateBounds" />
          </mxGeometry>
        </mxCell>
        <mxCell id="kbOJXT6cfB6z6lRoZ_cL-470" style="edgeStyle=none;shape=connector;rounded=0;orthogonalLoop=1;jettySize=auto;html=1;entryX=0;entryY=0.5;entryDx=0;entryDy=0;strokeColor=default;strokeWidth=0.4;align=center;verticalAlign=middle;fontFamily=Times New Roman;fontSize=11;fontColor=default;labelBackgroundColor=default;endArrow=classicThin;endFill=1;" parent="Dc8xoGKeF29MCSsuU2qs-2" source="kbOJXT6cfB6z6lRoZ_cL-401" target="kbOJXT6cfB6z6lRoZ_cL-425" edge="1">
          <mxGeometry relative="1" as="geometry" />
        </mxCell>
        <mxCell id="kbOJXT6cfB6z6lRoZ_cL-462" style="edgeStyle=none;shape=connector;rounded=0;orthogonalLoop=1;jettySize=auto;html=1;strokeColor=default;strokeWidth=0.6;align=center;verticalAlign=middle;fontFamily=Times New Roman;fontSize=11;fontColor=default;labelBackgroundColor=default;endArrow=classicThin;endFill=1;exitX=1;exitY=0.5;exitDx=0;exitDy=0;" parent="Dc8xoGKeF29MCSsuU2qs-2" edge="1">
          <mxGeometry relative="1" as="geometry">
            <mxPoint x="90.15033519553076" y="119.45858033437236" as="sourcePoint" />
            <mxPoint x="120.86748603351958" y="119.45858033437236" as="targetPoint" />
          </mxGeometry>
        </mxCell>
        <mxCell id="kbOJXT6cfB6z6lRoZ_cL-466" style="edgeStyle=none;shape=connector;rounded=0;orthogonalLoop=1;jettySize=auto;html=1;entryX=0;entryY=1;entryDx=0;entryDy=0;strokeColor=default;strokeWidth=0.4;align=center;verticalAlign=middle;fontFamily=Times New Roman;fontSize=11;fontColor=default;labelBackgroundColor=default;endArrow=classicThin;endFill=1;" parent="Dc8xoGKeF29MCSsuU2qs-2" edge="1">
          <mxGeometry relative="1" as="geometry">
            <mxPoint x="95.29765363128494" y="40.5236412581468" as="sourcePoint" />
            <mxPoint x="111.97363128491622" y="40.5236412581468" as="targetPoint" />
          </mxGeometry>
        </mxCell>
        <mxCell id="kbOJXT6cfB6z6lRoZ_cL-471" style="edgeStyle=none;shape=connector;rounded=0;orthogonalLoop=1;jettySize=auto;html=1;entryX=-0.073;entryY=-0.016;entryDx=0;entryDy=0;entryPerimeter=0;strokeColor=default;strokeWidth=0.4;align=center;verticalAlign=middle;fontFamily=Times New Roman;fontSize=11;fontColor=default;labelBackgroundColor=default;endArrow=classicThin;endFill=1;" parent="Dc8xoGKeF29MCSsuU2qs-2" source="kbOJXT6cfB6z6lRoZ_cL-425" target="kbOJXT6cfB6z6lRoZ_cL-354" edge="1">
          <mxGeometry relative="1" as="geometry" />
        </mxCell>
        <mxCell id="kbOJXT6cfB6z6lRoZ_cL-472" value="" style="group;fontFamily=Times New Roman;" parent="Dc8xoGKeF29MCSsuU2qs-2" vertex="1" connectable="0">
          <mxGeometry x="121.19354995987143" y="110.89057478999983" width="16.01473000861018" height="16.015131362572042" as="geometry" />
        </mxCell>
        <mxCell id="kbOJXT6cfB6z6lRoZ_cL-401" value="" style="ellipse;whiteSpace=wrap;html=1;aspect=fixed;fontFamily=Times New Roman;fontSize=11;fontColor=default;labelBackgroundColor=default;rotation=42;" parent="kbOJXT6cfB6z6lRoZ_cL-472" vertex="1">
          <mxGeometry x="2.3375326020704597" y="2.337591184261375" width="11.339664804469272" height="11.339664804469272" as="geometry" />
        </mxCell>
        <mxCell id="kbOJXT6cfB6z6lRoZ_cL-402" value="" style="shape=mxgraph.sysml.x;fontFamily=Times New Roman;fontSize=11;fontColor=default;labelBackgroundColor=default;strokeWidth=0.8;direction=west;rotation=45;" parent="kbOJXT6cfB6z6lRoZ_cL-472" vertex="1">
          <mxGeometry x="3.5649975261621174" y="3.565086870527238" width="8.449162011173184" height="8.449373760272032" as="geometry" />
        </mxCell>
        <mxCell id="kbOJXT6cfB6z6lRoZ_cL-474" value="" style="curved=1;endArrow=classicThin;html=1;rounded=0;strokeColor=default;strokeWidth=0.6;align=center;verticalAlign=middle;fontFamily=Times New Roman;fontSize=11;fontColor=default;labelBackgroundColor=default;endFill=1;" parent="Dc8xoGKeF29MCSsuU2qs-2" edge="1">
          <mxGeometry width="50" height="50" relative="1" as="geometry">
            <mxPoint x="90.15033519553076" y="143.91729385094928" as="sourcePoint" />
            <mxPoint x="124.82525139664807" y="125.18414281666193" as="targetPoint" />
            <Array as="points">
              <mxPoint x="106.41497206703914" y="127.24089827146501" />
            </Array>
          </mxGeometry>
        </mxCell>
        <mxCell id="kbOJXT6cfB6z6lRoZ_cL-475" value="" style="curved=1;endArrow=classicThin;html=1;rounded=0;strokeColor=default;strokeWidth=0.6;align=center;verticalAlign=middle;fontFamily=Times New Roman;fontSize=11;fontColor=default;labelBackgroundColor=default;endFill=1;" parent="Dc8xoGKeF29MCSsuU2qs-2" edge="1">
          <mxGeometry width="50" height="50" relative="1" as="geometry">
            <mxPoint x="89.03860335195535" y="94.05487106829129" as="sourcePoint" />
            <mxPoint x="123.71351955307266" y="112.78802210257865" as="targetPoint" />
            <Array as="points">
              <mxPoint x="105.30324022346372" y="110.73126664777556" />
            </Array>
          </mxGeometry>
        </mxCell>
        <mxCell id="kbOJXT6cfB6z6lRoZ_cL-476" style="edgeStyle=none;shape=connector;rounded=0;orthogonalLoop=1;jettySize=auto;html=1;entryX=0;entryY=1;entryDx=0;entryDy=0;strokeColor=default;strokeWidth=0.4;align=center;verticalAlign=middle;fontFamily=Times New Roman;fontSize=11;fontColor=default;labelBackgroundColor=default;endArrow=classicThin;endFill=1;" parent="Dc8xoGKeF29MCSsuU2qs-2" edge="1">
          <mxGeometry relative="1" as="geometry">
            <mxPoint x="129.76134078212294" y="40.5236412581468" as="sourcePoint" />
            <mxPoint x="146.4373184357542" y="40.5236412581468" as="targetPoint" />
          </mxGeometry>
        </mxCell>
        <mxCell id="kbOJXT6cfB6z6lRoZ_cL-482" style="edgeStyle=none;shape=connector;rounded=0;orthogonalLoop=1;jettySize=auto;html=1;entryX=1;entryY=0;entryDx=0;entryDy=0;strokeColor=default;strokeWidth=0.6;align=center;verticalAlign=middle;fontFamily=Times New Roman;fontSize=11;fontColor=default;labelBackgroundColor=default;endArrow=classicThin;endFill=1;entryPerimeter=0;" parent="Dc8xoGKeF29MCSsuU2qs-2" edge="1">
          <mxGeometry relative="1" as="geometry">
            <mxPoint x="167.56022346368715" y="44.97068007934261" as="sourcePoint" />
            <mxPoint x="193.13005586592183" y="44.37032983848102" as="targetPoint" />
          </mxGeometry>
        </mxCell>
        <mxCell id="kbOJXT6cfB6z6lRoZ_cL-483" value="" style="curved=1;endArrow=classicThin;html=1;rounded=0;strokeColor=default;strokeWidth=0.6;align=center;verticalAlign=middle;fontFamily=Times New Roman;fontSize=11;fontColor=default;labelBackgroundColor=default;endFill=1;exitX=0;exitY=0;exitDx=0;exitDy=5.554285714285715;exitPerimeter=0;" parent="Dc8xoGKeF29MCSsuU2qs-2" edge="1">
          <mxGeometry width="50" height="50" relative="1" as="geometry">
            <mxPoint x="172.00715083798886" y="20.511966562765675" as="sourcePoint" />
            <mxPoint x="198.6887150837989" y="40.5236412581468" as="targetPoint" />
            <Array as="points">
              <mxPoint x="175.3423463687151" y="20.511966562765675" />
              <mxPoint x="186.4596648044693" y="33.85308302635309" />
            </Array>
          </mxGeometry>
        </mxCell>
        <mxCell id="kbOJXT6cfB6z6lRoZ_cL-484" style="edgeStyle=none;shape=connector;rounded=0;orthogonalLoop=1;jettySize=auto;html=1;entryX=0;entryY=1;entryDx=0;entryDy=0;strokeColor=default;strokeWidth=0.4;align=center;verticalAlign=middle;fontFamily=Times New Roman;fontSize=11;fontColor=default;labelBackgroundColor=default;endArrow=classicThin;endFill=1;" parent="Dc8xoGKeF29MCSsuU2qs-2" edge="1">
          <mxGeometry relative="1" as="geometry">
            <mxPoint x="207.19346368715085" y="44.681622555964886" as="sourcePoint" />
            <mxPoint x="223.86944134078212" y="44.681622555964886" as="targetPoint" />
          </mxGeometry>
        </mxCell>
        <mxCell id="kbOJXT6cfB6z6lRoZ_cL-485" value="Conv" style="text;html=1;align=center;verticalAlign=middle;whiteSpace=wrap;rounded=0;fontFamily=Times New Roman;fontSize=9;fontColor=default;labelBackgroundColor=none;" parent="Dc8xoGKeF29MCSsuU2qs-2" vertex="1">
          <mxGeometry x="174.2306145251397" y="106.11746387078493" width="35.575418994413404" height="12.229356758288468" as="geometry" />
        </mxCell>
        <mxCell id="kbOJXT6cfB6z6lRoZ_cL-577" value="&lt;font style=&quot;font-size: 7px;&quot;&gt;&lt;br&gt;&lt;/font&gt;" style="text;html=1;align=center;verticalAlign=middle;whiteSpace=wrap;rounded=0;fontSize=5;fontFamily=Times New Roman;strokeColor=none;" parent="Dc8xoGKeF29MCSsuU2qs-2" vertex="1">
          <mxGeometry x="120.16709497206702" y="179.49360442051577" width="34.46368715083799" height="16.67639557948427" as="geometry" />
        </mxCell>
        <mxCell id="kbOJXT6cfB6z6lRoZ_cL-579" value="$$S_{\beta}$$" style="text;html=1;align=center;verticalAlign=middle;whiteSpace=wrap;rounded=0;fontSize=7;fontFamily=Times New Roman;fontStyle=1;strokeColor=none;" parent="Dc8xoGKeF29MCSsuU2qs-2" vertex="1">
          <mxGeometry x="83.3243016759777" y="105.005704165486" width="34.46368715083799" height="16.67639557948427" as="geometry" />
        </mxCell>
        <mxCell id="kbOJXT6cfB6z6lRoZ_cL-580" value="$$S_{\alpha}$$" style="text;html=1;align=center;verticalAlign=middle;whiteSpace=wrap;rounded=0;fontSize=7;fontFamily=Times New Roman;fontStyle=1;strokeColor=none;" parent="Dc8xoGKeF29MCSsuU2qs-2" vertex="1">
          <mxGeometry x="89.99469273743021" y="88.32930858600172" width="34.46368715083799" height="16.67639557948427" as="geometry" />
        </mxCell>
        <mxCell id="kbOJXT6cfB6z6lRoZ_cL-581" value="$$S_{\gamma}$$" style="text;html=1;align=center;verticalAlign=middle;whiteSpace=wrap;rounded=0;fontSize=7;fontFamily=Times New Roman;fontStyle=1;strokeColor=none;" parent="Dc8xoGKeF29MCSsuU2qs-2" vertex="1">
          <mxGeometry x="90.96189944134083" y="131.13205724001133" width="34.46368715083799" height="16.67639557948427" as="geometry" />
        </mxCell>
        <mxCell id="kbOJXT6cfB6z6lRoZ_cL-585" value="$$C_{\beta}$$" style="text;html=1;align=center;verticalAlign=middle;whiteSpace=wrap;rounded=0;fontSize=7;fontFamily=Times New Roman;fontStyle=1;strokeColor=none;" parent="Dc8xoGKeF29MCSsuU2qs-2" vertex="1">
          <mxGeometry x="161.10106145251402" y="28.316519693964295" width="34.46368715083799" height="16.67639557948427" as="geometry" />
        </mxCell>
        <mxCell id="kbOJXT6cfB6z6lRoZ_cL-586" value="$$C_{\alpha}$$" style="text;html=1;align=center;verticalAlign=middle;whiteSpace=wrap;rounded=0;fontSize=7;fontFamily=Times New Roman;fontStyle=1;strokeColor=none;" parent="Dc8xoGKeF29MCSsuU2qs-2" vertex="1">
          <mxGeometry x="172.7297765363129" y="11.64012411448002" width="34.46368715083799" height="16.67639557948427" as="geometry" />
        </mxCell>
        <mxCell id="kbOJXT6cfB6z6lRoZ_cL-595" value="CA" style="text;html=1;align=center;verticalAlign=middle;whiteSpace=wrap;rounded=0;fontFamily=Times New Roman;fontSize=11;fontColor=default;labelBackgroundColor=none;" parent="Dc8xoGKeF29MCSsuU2qs-2" vertex="1">
          <mxGeometry x="205.57033519553082" y="8.282609804477207" width="39.021787709497204" height="15.564635874185322" as="geometry" />
        </mxCell>
        <mxCell id="kbOJXT6cfB6z6lRoZ_cL-596" value="SA" style="text;html=1;align=center;verticalAlign=middle;whiteSpace=wrap;rounded=0;fontFamily=Times New Roman;fontSize=11;fontColor=default;labelBackgroundColor=none;" parent="Dc8xoGKeF29MCSsuU2qs-2" vertex="1">
          <mxGeometry x="201.92385474860347" y="88.32930858600172" width="39.021787709497204" height="15.564635874185322" as="geometry" />
        </mxCell>
        <mxCell id="kbOJXT6cfB6z6lRoZ_cL-598" value="&lt;font style=&quot;font-size: 7px;&quot;&gt;$$\mathbf{H} \times \mathbf{W} \times \mathbf{1}$$&lt;/font&gt;" style="text;html=1;align=center;verticalAlign=middle;whiteSpace=wrap;rounded=0;fontSize=5;fontFamily=Times New Roman;strokeColor=none;" parent="Dc8xoGKeF29MCSsuU2qs-2" vertex="1">
          <mxGeometry x="149.27223463687147" y="127.7967781241145" width="34.46368715083799" height="16.67639557948427" as="geometry" />
        </mxCell>
      </root>
    </mxGraphModel>
  </diagram>
</mxfile>
